<?xml version="1.0" standalone="no"?>
<!DOCTYPE svg PUBLIC "-//W3C//DTD SVG 20010904//EN"
 "http://www.w3.org/TR/2001/REC-SVG-20010904/DTD/svg10.dtd">
<svg version="1.0" xmlns="http://www.w3.org/2000/svg"
 width="260.000000pt" height="260.000000pt" viewBox="0 0 260.000000 260.000000"
 preserveAspectRatio="xMidYMid meet">
<metadata>
Created by potrace 1.14, written by Peter Selinger 2001-2017
</metadata>
<g transform="translate(0.000000,260.000000) scale(0.100000,-0.100000)"
fill="#000000" stroke="none">
<path d="M0 1300 l0 -1300 1300 0 1300 0 0 1300 0 1300 -1300 0 -1300 0 0
-1300z m1479 545 c89 -23 159 -65 219 -130 31 -34 65 -75 75 -92 l17 -31 -104
-60 -104 -60 -30 48 c-38 62 -93 98 -166 110 -116 19 -224 -24 -273 -108 l-28
-47 0 -215 c0 -235 4 -257 63 -316 45 -44 82 -57 174 -62 80 -4 93 -2 142 22
71 35 96 74 96 150 l0 56 -105 0 -105 0 0 105 0 105 230 0 230 0 0 -325 0
-325 -110 0 -110 0 -1 93 -1 92 -14 -41 c-19 -53 -75 -111 -132 -137 -28 -12
-77 -21 -126 -24 -240 -15 -418 126 -488 386 -29 108 -29 314 1 424 53 200
177 332 358 382 65 18 225 18 292 0z"/>
</g>
</svg>
