<svg enable-background="new 0 0 960 1080" viewBox="0 0 960 1080" xmlns="http://www.w3.org/2000/svg"><path d="m234.05 675.81-.19-167.54 30.94-2.26 30.15 180.83z" fill="#f3e7d9"/><path d="m621.23 112.38c-12.74 16.44-35.73 19.95-51.35 7.85s-17.96-35.24-5.22-51.68c0 0-3.05 24.85 13.46 37.64 16.51 12.8 43.11 6.19 43.11 6.19z" fill="#f3e7d9"/><path d="m555.55 394.01s53.58 21.97 69.63 9.49c28.48-22.15-77.54-83.87-77.54-83.87 19.55 12.72 64.48 8.31 43.12-10.68s-58.45-41.92-66.46-52.22c0 0 49.85 26.11 45.1 14.24s-65.52-67.15-65.52-67.15 49.5 26.3 38.22 12.55c-37.98-46.27-100.04-131.36-101.44-133.35-.01-.02-.03-.02-.04 0-1.01 1.83-52.17 69.24-70.16 92.55-24.18 31.32-52.67 65.74-41.99 63.37s38.25-19.72 42.97-21.42c-35.85 58.21-56.02 61.77-72.64 86.69-10.47 15.71 42.36 6.7 42.36 6.7s-13.27 18.26-45.92 51.45 57.71 11.78 57.71 11.78-94.89 56.26-80.65 89.49c13.81 32.22 68.33-14.12 68.33-14.12-69.57 50.01-33.52 94.94-3.85 90.87 27.96-3.84 80.19-39.57 87.82-43.91l-7.11 140.57 72.43-3.26-10.11-123.47c9.06 6.65 18.57 11.38 27.49 11.67 31.61 1.03 27.57-37.57 27.57-37.57 18.62 9.67 71.8 9.38 71.2-16.83-.58-26.19-50.52-73.57-50.52-73.57z" fill="#f3e7d9"/><path d="m252.8 212.06s-55.56 102.67-84.83 133.02 14.09 11.92 27.1-3.25c0 0-70.46 106.23-97.56 124.66s8.77 35.03 48.88 10.1c0 0-52.13 80.96-84.65 104.81s-22.76 43.36 50.95 1.08c0 0-16.26 16.26 18.43 17.34s46.61-23.85 46.61-23.85-40.11 55.28-11.92 59.62c28.18 4.34 60.7-48.78 60.7-48.78s-15.21 37.75-1.11 39.92 43.39-36.67 43.39-36.67 31.44 37.75 50.95 36.67-6.51-63.77-6.51-63.77 18.43 23.85 44.44 27.1c26.02 3.25 5.42-33.6 5.42-33.6s43.36 29.27 76.96 18.43-30.8-53.9-59.47-78.27c-23.4-19.89-37.44-39.78-37.44-39.78l43.29 13.65c21.68 4.34-36.35-68.66-50.44-93.6 0 0 31.64 4.39 20.8-14.04-10.83-18.43-88.81-116.65-103.99-150.79z" fill="#fff"/><path d="m242.64 209.57s-60.8 105.18-90.38 135.85 14.24 12.05 27.39-3.29c0 0-71.21 107.37-98.6 125.99s8.87 35.4 49.4 10.2c0 0-52.69 81.82-85.56 105.93s-23.01 43.82 51.49 1.1c0 0-16.43 16.43 18.62 17.53s47.11-24.1 47.11-24.1-40.54 55.87-12.05 60.26c28.48 4.38 61.35-49.3 61.35-49.3s-15.37 38.16-1.13 40.35 43.85-37.06 43.85-37.06 31.78 38.16 51.5 37.06-6.58-64.45-6.58-64.45 18.62 24.1 44.92 27.39c26.29 3.29 5.48-33.96 5.48-33.96s43.82 29.58 77.79 18.62-33.96-54.78-59.16-83.26-52.59-66.83-52.59-66.83 36.15 28.48 58.07 32.87c21.91 4.38-33.96-60.26-48.21-85.45 0 0 31.77 7.67 20.82-10.96-10.96-18.64-88.19-119.98-103.53-154.49z" fill="#f3e7d9"/><path d="m677.65 168.91s-52.08 84.24-92.83 123.43c-29.35 28.22 20.52 36.05 46.27-.6 0 0-47.81 52.87-66.63 67.73s39.07-9.92 39.07-9.92-30.4 51.57-51.95 79.28 35.02 20.78 35.02 20.78-33.87 47.72-58.49 80.05c-24.63 32.33 46.59 38.3 72.35 4.62 0 0-46.65 54.2-16.93 63.11s98.52-46.18 98.52-46.18 41.06 38.43 69.27 41.56c15.52 1.72 20.05-34.23 20.05-34.23 7.84 9.4 57.04 26.06 67.74 18.48 23.77-16.84-7.92-35.66-7.92-35.66s73.95 20.12 57.45-2.97c-9.91-13.87-41.4-56.61-84.98-118.03 0 0 58.49 21.55 27.71-7.7-20.71-19.68-62.04-65.05-89.77-109.62 0 0 61.57 34.52 51.73 21.94-28.23-36.05-90.91-110.5-115.68-156.07z" fill="#fff"/><g fill="#f3e7d9"><path d="m747.78 668.56-20.9-164.31h-40.32l-21.03 164.31z"/><path d="m693.45 154.52s-59.95 97.6-101.85 137.88c-30.17 29.01 27.52 26.06 53.99-11.61 0 0-49.15 54.35-68.49 69.62-19.35 15.27 40.17-10.2 40.17-10.2s-34.81 56.97-56.97 85.45c-22.15 28.48 39.56 17.41 39.56 17.41s-34.81 49.05-60.13 82.29 47.9 39.37 74.37 4.75c0 0-47.95 55.71-17.41 64.88 30.55 9.16 101.27-47.47 101.27-47.47s42.21 39.5 71.21 42.73c15.95 1.77 20.61-35.19 20.61-35.19 8.06 9.67 58.64 26.79 69.63 19 24.44-17.31-22.2-50.27-22.2-50.27s85 11.08 68.04-12.66c-10.18-14.26-40.65-46.05-85.45-109.19 0 0 60.13 22.15 28.48-7.91-21.29-20.23-42.7-45.96-71.21-91.78 0 0 45.38 25.66 35.26 12.73-28.98-37.08-93.43-113.62-118.88-160.46z"/><path d="m208.96 661.04s25.11 3.08 30.64 14.77c0 0-6.96-13.12-5.89-28.45 0 0 16.15 23.51 14.2 28.85 0 0-4.24-11.17-3.09-19.99 0 0 14.2 18.33 5.59 28l-11.6-.47c-.01 0-20.95-13.87-29.85-22.71z"/><path d="m745.25 669.39s-2.79-31.05-8.36-37.41c0 0 10.35 4.78 13.53 15.92 0 0-.8-19.1-2.39-24.68 0 0 13.53 23.88 10.35 36.62 0 0 6.37-21.49 4.78-30.25 0 0 7.16 19.9 4.78 30.25 0 0 5.57-17.51 22.29-21.49s22.29.8 22.29.8-20.7.8-27.86 9.55c0 0 25.47 3.98 31.84 10.35 0 0-30.25-3.58-40.6 4.78s-25.47 2.39-25.47 2.39z"/><path d="m248.56 753.22s102.86 15.82 117.1 26.9l-6.33-23.74s31.65-1.58 45.89 7.91c0 0-30.07-28.48-49.05-37.98l41.14 17.41 6.33-11.08 33.23 6.33 18.99-26.9 60.13 14.24 9.49-6.33 41.14 26.9s12.66-14.24 20.57-26.9l3.16 9.49s6.33-4.75 12.66-20.57l7.91 11.08s25.32-18.99 25.32-49.05l-336.26-16.62 11.86 21.84-117.48 1.89z"/><path d="m330.85 781.7s31.65 9.49 47.47 14.24l-39.56 22.15 17.41 14.24s-31.65 11.08-71.21 22.15l33.23 7.91-133.32 16.22 84.26 5.93-144.79 39.16-74.77-33.23 62.9-40.35-55.78-10.68s199.78-59.34 218.77-59.34 55.39 1.6 55.39 1.6z"/><path d="m628.74 672.12 49.85-17.8 261.49 122.64-28.88 41.14-148.35 53.41 36.79-28.48-58.95 14.64-64.88-1.58 9.49-28.48-61.71-12.66 45.89-25.32-33.23-6.33 9.49-18.99s-23.74 0-41.14 4.75c-17.41 4.75 18.99-17.41 18.99-17.41l-12.66-9.49s34.81-25.32 50.64-26.9c15.82-1.58-53.8-7.91-58.55-6.33s4.75-1.58 4.75-1.58z"/></g><path d="m377.44 621.04s220.93-4.81 244.2-4.01c0 0 19.53 13.64 19.53 35.57s-12.84 34.24-12.84 34.24h-246.61s-17.86-10.73-19.26-19.26c-5.89-35.84 14.98-46.54 14.98-46.54z" fill="#7a462f"/><path d="m628.33 686.9-10.7-12.04-5.62-25.68s4.03-27.61 9.57-31.34c5.55-3.72 19.8 18.3 20.17 33.62s0 22.79 0 22.79z" fill="#cc6d3d"/><path d="m629.3 673.87-6.57-7.39-3.45-15.77s2.47-16.96 5.88-19.25 12.16 11.24 12.39 20.65 0 14 0 14z" fill="#b44c29"/><path d="m628.33 686.84-38.13-10.94 7.16-4.31-14.49 1.35 6.72-6.11-15.26.61-3.05-3.66 20.86-.73-14.38-9.45 24.9-10.46-141.95-.5c-18.78-.65-67.58 1.7-85.72 2.63l-5.93-.13.77.4c-1.15.06-1.77.09-1.77.09l8.05 3.18 4.4 2.3-11.46.5 1.99 3.49 23.92 1.18 37.34 14.76-50.6 15.82h246.63z" fill="#a96443"/><path d="m393.96 663.05-11.95-1 13.95 4.49-5.98 1.49 22.41-2.99z" fill="#a96443"/><path d="m609.2 695.44s-.78-21.3 7.8-29.61l-3.29 23.23s6.02-13.55 17.75-16.65c0 0-12.28 8.24-15.86 23.48z" fill="#bb83c3"/><path d="m413.08 693.45s-.93-5.55-4.63-11.11c-3.7-5.55-9.72-5.55-9.72-5.55s6.02 7.4 7.87 9.72c0 0-6.02-2.31-9.72 2.78s-3.7 5.09-3.7 5.09 15.09-2.55 19.9-.93z" fill="#bb83c3"/><path d="m416.61 694.09s-3.47-8.68 3.82-13.54z" fill="#bb83c3"/><path d="m419.73 693.05s-.69-5.21 5.55-7.64c6.25-2.43 9.37-2.08 9.37-2.08z" fill="#bb83c3"/><path d="m458.59 612.82s-2.33 24.07 20.07 21.66c20.71-2.23 32.81.64 37.59-5.42 4.66-5.9 4.46-16.25-7.65-24.21-12.1-7.96-39.18.01-50.01 7.97z" fill="#1d2538"/><path d="m458.59 605.49s-30.58 6.37-38.87 9.88c-8.28 3.5-8.6 8.28-5.73 13.38s11.69 17.23 30.58 9.24c8.28-3.5 30.26-.96 36.32-4.14 6.05-3.19 0-35.68-22.3-28.36z" fill="#1d2538"/><path d="m501.3 608.51c14.3-4.87 49.66-12.26 56.03-9.71 11.15 4.46 14.78 19.85 1.87 23.91-7.78 2.45-10.22 4.1-26.08 7.29-15.76 3.16-21.4 2.58-27.67 2.21-12.37-.73-16.45-19.51-4.15-23.7z" fill="#273252"/><path d="m501.3 608.51c14.3-4.87 49.66-12.26 56.03-9.71 11.15 4.46 14.78 19.85 1.87 23.91-7.78 2.45-10.22 4.1-26.08 7.29-15.76 3.16-21.4 2.58-27.67 2.21-12.37-.73-16.45-19.51-4.15-23.7z" fill="#1d2538"/><path d="m567.79 708.46s8.31 1.77 9.16 6.98c.89 5.51-.15 7.82-2.65 8.61-2.56.81-6.65 2.22-12.14 1.85-10.23-.68-9.71-.86-17.97-8.93-8.01-7.84-1.7-10.7-1-12.04.69-1.31 24.6 3.53 24.6 3.53z" fill="#ee5d4f"/><path d="m560.41 703.38s15.95 6.59 16.69 11.32c.78 4.99-1.49 7.55-14.94 7.24-10.08-.23-9.55-2.23-17.55-9.48-7.81-7.08-2.2-8.05-1.51-9.26.69-1.19 17.31.18 17.31.18z" fill="#121721"/><path d="m538.02 616.28c-.48-11.88 23.09-16.99 28.65-8.51s1.55 33.4 1 46.23-2.86 35.79-1.96 37.81 4.25 8.42 4.25 8.42l-1.2 4.89s-12.01 3.44-13 3.39c-.99-.04-12.54.45-13.77-1.58s-3.02-6.39-3.02-6.39.34-7.89.38-8.88c.05-1-.86-63.5-1.33-75.38z" fill="#1d2538"/><path d="m561.07 659.31s1.28-43.92 6.03-36.69c4.75 7.24 1.33 28.51.85 39.46-.47 10.95-2.44 30.55-1.67 32.27s3.63 7.19 3.63 7.19l-1.02 4.17s-10.25 2.93-11.09 2.9c-.84-.04-10.7.38-11.75-1.35s-2.58-5.46-2.58-5.46 1.15-24.48 1.18-25.32 16.42-17.17 16.42-17.17z" fill="#273252"/><path d="m430.97 714.07s-8.31 1.77-9.16 6.98c-.89 5.51.15 7.82 2.65 8.61 2.56.81 6.65 2.22 12.14 1.85 10.23-.68 9.71-.86 17.97-8.93 8.01-7.84 1.7-10.7 1-12.04-.69-1.31-24.6 3.53-24.6 3.53z" fill="#ee5d4f"/><path d="m438.36 708.99s-15.95 6.59-16.69 11.32c-.78 4.99 1.49 7.55 14.94 7.24 10.08-.23 9.55-2.23 17.55-9.48 7.81-7.08 2.2-8.05 1.51-9.26-.69-1.18-17.31.18-17.31.18z" fill="#121721"/><path d="m449.67 661.56s-1.91-24.53-7.65-32.18c-5.73-7.65-21.34-19.43-28.03-9.56s-3.5 16.88-.32 26.76 12.6 48.61 14.19 54.34.96 3.5 1.91 7.65 10.51 6.37 10.51 6.37 16.88-2.23 18.8-4.46c1.91-2.23-.32-2.55.32-7.33s-3.82-10.19-3.82-10.19z" fill="#1d2538"/><path d="m449.4 662.53-11.98-10.32s-19.45-10.96-16.9-2.5c1.44 4.77 12.04 41.73 12.04 41.73l15.32 7.84-14.43 3.51c.77 3.55 8.43 5.46 8.43 5.46s13.54-1.91 15.08-3.82-.26-2.18.26-6.27-3.07-8.73-3.07-8.73z" fill="#273252"/><path d="m520.72 578.13s-7.18-14.66-7.47-21.92c-.29-7.25-.11-14.48 7.43-12.73 7.54 1.74 10.08 4.46 11.53 12.59 1.45 8.12 2.9 12.19 5.51 17.99s13.87 26.34 3.17 29.22c-11.9 3.21-20.17-25.15-20.17-25.15z" fill="#cc6d3d"/><path d="m457.32 550.7c-4.14-3.19-9.08-1.44-12.42 1.91-4.46 4.46-6.69 9.24-8.28 16.57s-7.1 17.37-8.92 26.12c-1.59 7.65-3.82 14.97 4.78 16.57 8.6 1.59 13.06-10.51 14.65-15.29s6.05-15.61 8.92-21.98c2.57-5.74 5.41-20.71 1.27-23.9z" fill="#cc6d3d"/><path d="m518.48 542.74s-14.97-6.69-35.36-4.46c-18.33 2-31.54 10.51-31.54 10.51s2.27 23.72 2.27 27.22c0 1.55 8.22 38.48 8.22 38.48s11.17 7.25 12.13 7.89 20.39 2.55 26.76 1.91 16.88-18.48 16.88-18.48-.32-36.95 0-39.5.64-23.57.64-23.57z" fill="#f7bc4b"/><path d="m513.99 562.9c-2.23-1.95-27.39-4.44-27.39-4.44s-23.61 5.06-25.4 8.47.91 19.41.91 21.64c0 .99 6.69 24.49 6.69 24.49s9.1 4.62 9.87 5.02c.78.41 16.6 1.62 21.79 1.22 5.19-.41 13.75-11.76 13.75-11.76s-.26-23.53 0-25.15c.27-1.62 2.02-17.54-.22-19.49z" fill="#feed7f"/><path d="m464.32 601.16s1.03-20.89 1.81-22.85c0 0-8.14 10.05-1.81 22.85z" fill="#f7bc4b"/><path d="m500.59 561.57s7.08 7.43 8.84 9.55c1.77 2.12 5.66 20.17 5.66 20.17s-.35-15.57-3.18-21.23-11.32-8.49-11.32-8.49z" fill="#f7bc4b"/><path d="m515.45 597.65-7.43 12.03s-8.49 4.25-15.21 6.01c-6.72 1.77-16.63 6.01-16.63 6.01s18.62-2.29 23-3.89c18.39-6.71 16.27-20.16 16.27-20.16z" fill="#f7bc4b"/><path d="m500.32 547.2c0 7.21-5.71 17.2-12.74 17.2s-12.74-5.85-12.74-13.06 5.71-13.06 12.74-13.06 12.74 1.7 12.74 8.92z" fill="#f5894e"/><path d="m490.84 555.22-12.82 5.04s-5.73-5.21-5.73-12.42 8.25-9.56 15.29-9.56 3.26 16.94 3.26 16.94z" fill="#cc6d3d"/><path d="m476.75 538.28 1.91 13.7s1.91 3.82 8.92 4.14 7.01-12.74 7.01-12.74l-.64-7.01z" fill="#cc6d3d"/><path d="m525.45 716.86c-.12 3.44-10.38 6.71-28.14 6.71s-28.29-4.53-28.17-7.97 10.46-11.96 28.22-11.96 28.22 9.78 28.09 13.22z" fill="#856792"/><path d="m468.92 715.6-4.45-54.67 62.28-2.01-1.3 57.94z" fill="#856792"/><ellipse cx="495.79" cy="659.85" fill="#665070" rx="31.29" ry="7.69" transform="matrix(1 -.00172532 .00172532 1 -1.1377 .8564)"/><ellipse cx="495.85" cy="659.26" fill="#34283a" rx="28.92" ry="6.03" transform="matrix(1 -.00172229 .00172229 1 -1.1347 .855)"/><path d="m467.68 700.37s9.6 4.4 29.11 4.4 28.66-3.9 28.66-3.9" style="fill:none;stroke:#665070;stroke-width:4;stroke-linecap:round;stroke-linejoin:round;stroke-miterlimit:10"/><path d="m467.93 707.65s9.35 4.4 28.86 4.4 28.66-3.9 28.66-3.9" style="fill:none;stroke:#665070;stroke-width:4;stroke-linecap:round;stroke-linejoin:round;stroke-miterlimit:10"/><path d="m469.15 608.04c2.27 1.14 3.44 3.36 2.3 6.2-.84 2.11-.69 3.66-8.93 3.21-8.4-.47-29.45-1.74-32.57-4.01s-6.05-6.55.48-11.38 14.19-1.03 18.12-.18c8.47 1.83 18.32 5.03 20.6 6.16z" fill="#f5894e"/><path d="m469.15 608.04c2.27 1.14-23.38-3.27-28.86-3.77s-10.34 9.16-10.34 9.16c-3.12-2.27-6.05-6.55.48-11.38s14.19-1.03 18.12-.18c8.47 1.84 18.32 5.04 20.6 6.17z" fill="#cc6d3d"/><path d="m475.83 607.91s-4.1 4.54-2.55 5.88 6.88-3.21 8.45-3.62c1.57-.4 3.58-2.73 1.78-3.47s-7.68 1.21-7.68 1.21z" fill="#cc6d3d"/><path d="m465.03 611.5s.69 5.95 5.04 5.73c4.35-.23 4.58-4.12 6.87-7.1s7.1-5.04 7.1-5.04 5.95 1.37 7.1.23c1.15-1.15-.92-1.6-.92-1.6s.23-2.29-1.83-2.52c0 0 1.6-1.6-.92-2.98s-9.39-2.75-10.76-2.52-5.73 4.79-7.79 6.18c-2.05 1.39-4.12 5.04-3.89 9.62z" fill="#f5894e"/><path d="m543.08 607.12c2.58-3.69 5.72-10.72.55-13.3s-7.91-2.3-15.44 5.23c-6.27 6.27-17.03 18.4-20.72 22.46s-3.56 12.12 9.04 6.27c10.34-4.8 23.99-16.97 26.57-20.66z" fill="#cc6d3d"/><path d="m540.73 610.16c2.24-3.2-4.07-6.63-4.07-6.63s-4.69-1.04-11.21 5.48c-5.43 5.43-12.37 10.1-15.56 13.61-3.2 3.52-3.08 10.5 7.83 5.43 8.95-4.15 20.78-14.7 23.01-17.89z" fill="#f5894e"/><path d="m514.75 621.8s3 3.66-.66 6.65c-3.66 3-10.02 5.58-10.02 5.58l-5.02 5.88s.23 4-.54 4.53-3.06.64-3.36-.83.3-4.71.3-4.71l1.48-2.94-3.18 2.47s-1.42 2.18-1.71 3.65-2.06.88-2.94-.3.71-4.18.71-4.18-2.53.53-3.12-.65 7.13-13.02 7.42-13.31 6.6-3.88 6.6-3.88 5.97-.27 8.74-.03 5.3 2.07 5.3 2.07z" fill="#f5894e"/><path d="m466.66 534.93c6.94 11.6 11.8 12.27 11.8 12.27 20.21-.5 29.15-13.83 26.67-25.86-2.08-12.53-5.3-16.81-19.63-15.41-19.95 1.94-25.02 18.66-18.84 29z" fill="#1d2538"/><path d="m466.66 534.93c6.94 11.6 11.8 12.27 11.8 12.27 20.21-.5 29.15-13.83 26.67-25.86-2.08-12.53-5.3-16.81-19.63-15.41-19.95 1.94-25.02 18.66-18.84 29z" fill="#3e4c6f"/><path d="m466.25 531.37c5.92 9.9 20.05.41 20.05.41 2.83-2.18 3.16-9.2 2.98-16.25-.16-6.09 2.71-12.2-14.26-8.39-15.09 3.38-14.03 15.42-8.77 24.23z" fill="#1d2538"/><path d="m485.59 507.4s11.38 4.09 13.42 5.79c2.04 1.71 6.08 22.77 3.47 29.75-2.57 6.88-24.91 6.29-30.43 2.18-4.52-3.37-3.77-5.48-5.41-11.75-1.73-6.61 2.53-11.57 2.73-14.24.35-4.57 16.22-11.73 16.22-11.73z" fill="#cc6d3d"/><path d="m500.15 524.45c2.02 1.69 4.93 11.52 2.32 18.5-1.73 4.57-24.89 7.31-25.49.3-.31-3.66-1.53-9.83 2.72-14.94 5.2-6.26 19.35-4.78 20.45-3.86z" fill="#f5894e"/><path d="m463.69 530.59c1.35 3.68 4.2 6.19 6.38 5.6 2.19-.59 2.88-4.08 1.53-7.79-1.35-3.73-4.23-6.25-6.42-5.63s-2.85 4.13-1.49 7.82z" fill="#cc6d3d"/><path d="m470.35 514.78s2.29 9.74 1.44 12.82l-2.16 4.67-2.66-13.9z" fill="#1d2538"/><path d="m493.97 507.14s-2.57 4.13-13.43 6.38c-5.39 1.12-9.6 3.95-12.33 3.96-6.69.02 1.83-13.85 12.83-16.5 11.12-2.69 12.93 6.16 12.93 6.16z" fill="#1d2538"/><path d="m481.08 500.83c-8.75 2.48-16.45 12.24-11.06 12.22 1.53-.01 3.95-.09 6.86-.35 4.86-1.74 9.57-5.25 9.57-5.25.13 2.4-2.47 3.88-5.43 4.79 2.59-.34 5.37-.82 8.15-1.48 4.57-1.09 5.1-.96 5.12-2.49.05-3.13-3.76-10.13-13.21-7.44z" fill="#3e4c6f"/><path d="m495.06 524.65c.36 1.6 1.28 2.1 2.08 1.89.81-.21 1.2-1.06.84-2.66-.36-1.61-1.31-2.74-2.12-2.52-.8.21-1.16 1.69-.8 3.29z" fill="#34283a"/><path d="m481.04 525.64c.38 1.58 1.29 2.08 2.08 1.87s1.16-1.05.79-2.64c-.38-1.59-1.32-2.71-2.12-2.5-.8.22-1.13 1.68-.75 3.27z" fill="#34283a"/><path d="m480.69 519.65s1.4-1.29 3.09-.8" fill="none" stroke="#34283a" stroke-linecap="round" stroke-linejoin="round" stroke-miterlimit="10"/><path d="m494.48 518.29c1.7-.23 3.1.67 3.1.67" fill="none" stroke="#34283a" stroke-linecap="round" stroke-linejoin="round" stroke-miterlimit="10"/><path d="m881.18 717.71-202.72-36.64s-18.84 8.72-21.98 9.77-8.37 26.17-8.37 26.17l16.75 33.5 189.46 49.2 36.29-13.96 11.51-40.82z" fill="#7a462f"/><path d="m881.18 717.71s-28.26 2.44-35.24 11.51-9.77 37.68-9.77 37.68l18.14 32.8 36.29-13.96s11.17-25.82 11.51-40.82c.36-14.99-20.93-27.21-20.93-27.21z" fill="#cc6d3d"/><path d="m876.97 733.76s-.63.06-1.67.18l-1.09 16.57-2.93-15.98c-5.25.91-12.61 2.72-15.16 6.04-4.13 5.37-5.78 22.29-5.78 22.29l10.73 19.4 21.46-8.26s6.6-15.27 6.81-24.15c.22-8.86-12.37-16.09-12.37-16.09z" fill="#b44c29"/><path d="m798.11 759.91.5-1.11-8.34-1.29 9.86-2.05.28-.61-26.89-8.96 28.87 4.6 2.68-5.9-134.78-18.51s43.56 17.55 41.04 18.4c-2.53.84-37.73-2.83-37.73-2.83l12.81 14.72 124.45 32.22 28.65-6.37z" fill="#a96443"/><path d="m652.85 710.03-1.4 5.58 15.36 1.4 2.79-3.49 27.21 2.79-28.61-10.46z" fill="#a96443"/><path d="m663.33 760.87s1.71-13.84 13.51-18.18c0 0-1.38 8.78-13.51 18.18z" fill="#bb83c3"/><path d="m666.36 745.66c.2-2.53-1.21-5.79-.47-10.48 0 0-8.37 9.31-5.73 17.82l.62 3.25c-.01.01 5.38-8.06 5.58-10.59z" fill="#bb83c3"/><path d="m872.88 809.45s15.05-22.71 28.68-28.48c0 0-19.83-1.25-25.99 11.38 0 0-3.05-8.3-4.37-21.26 0 0-5.91 27.84-2.15 34.51 2.07 3.65 3.83 3.85 3.83 3.85z" fill="#34283a"/><path d="m864.62 803.28s.94-7.31-2.87-18.02c-.99-2.77-7.58-7.43-7.58-7.43z" fill="#34283a"/><path d="m779.74 798.34s1.74-13.67 9.76-17.86l-5.33 14.37s6.49-7.85 16.53-8.31c0 0-8.19 2.71-13.46 9.36-.85 1.08-1.63 2.26-2.28 3.55z" fill="#bb83c3"/><path d="m808.9 794.2s9.6-15.87 16.69-18.03l-8.42 11.94s16.33-7.95 24.79-7.55l-24.55 15.66s4.52-.78 7.82.74c3.29 1.53-18.39 4.11-18.39 4.11l-3.28-12.25z" fill="#bb83c3"/><path d="m756.1 581.69s-8.43-4.53-15.53 1.34-18.84 26.17-27.02 37.6c-5.19 7.26-11.17 20.37-1.41 24.19 21.4 8.37 28.62-32.54 37.57-40.87 8.95-8.34 14.04-17.58 6.39-22.26z" fill="#7a462f"/><path d="m740.57 583.03c-7.1 5.87-18.84 26.17-27.02 37.6-5.19 7.26 3.01 4.41 9.34 2.43s3.18.16 8.84-10.68c4.74-9.09 15.94-35.22 8.84-29.35z" fill="#a96443"/><path d="m740.41 663.64s-22.64 5.11-36.13 8.84-22.1 7.44-17.91 17.21 83.81 10.24 89.4-3.72-13.03-26.06-35.36-22.33z" fill="#ce9436"/><path d="m816.29 660.32s7.56 33.09-4.54 38.67-67.46-1.4-66.06-18.14c1.4-16.75 9.3-27.45 36.29-25.59s34.31 5.06 34.31 5.06z" fill="#ce9436"/><path d="m807.1 684.57c-2.86 1.27-10.07 3.19-16.12 4.88 2.14-1.21 4.28-2.47 6.47-3.48 8.67-4 15.35-9.77 15.35-9.77s-15.79-6.53-23.38-1.74c-20.47 12.91-24.08 11.63-18.14 16.17 2.81 2.15 5.48 2.97 8.07 2.97-2.85 1.76-3.1 3.46 5.42 2.14 12.09-1.87 26.51-13.03 22.33-11.17z" fill="#f7bc4b"/><path d="m744.06 581.05c-2.79 3.37-1.05 11.05-1.05 23.61 0 7.68.81 13.49 1.74 27.91 1.44 22.37.95 30.18.95 30.18s10.84 4.99 27.16 6.59c13.66 1.35 44.57-3.16 44.57-3.16s1.39-4.05.77-14.24c-1.92-31.58-1.18-35.04-1.8-46.7-.93-17.42.58-25.35-6.05-27.45s-21.28-3.81-29.44-4.05c-9.98-.27-32.31 2.98-36.85 7.31z" fill="#29abe2"/><path d="m744.06 581.05c-2.79 3.37-1.05 11.05-1.05 23.61 0 7.68 4.4-16.18 18.78-17.6 32.18-3.16 40.62 36.4 40.62 36.4s-24.53-9.49-38.77 10.68c-5.56 7.88 3.36 34.63 9.23 35.21 13.66 1.35 44.57-3.16 44.57-3.16s1.39-4.05.77-14.24c-1.92-31.58-1.18-35.04-1.8-46.7-.93-17.42.58-25.35-6.05-27.45s-21.28-3.81-29.44-4.05c-9.99-.28-32.32 2.97-36.86 7.3z" fill="#1689cb"/><path d="m744.99 624.86s25.12 10.63 61.61 2.44l-1.11-9.57s-20.47 9.55-61.12-1.09z" fill="#3e4c6f"/><path d="m744.17 612.58s28.62 9.42 60.49.62l-1.28-9.93s-29.1 7.11-60.08-.08z" fill="#3e4c6f"/><path d="m790.23 574.77c-1.05 6.4-3.22 8.25-4.3 9.77-2.8 3.9-7.82 7.2-15.66 6.97s-4.43-10.97-4.43-10.97 2.56-6.3 8.7-7c8.46-.96 15.8.59 15.69 1.23z" fill="#7a462f"/><path d="m774.64 581.01c-5.91-.19-5.46-2.02-5.46-2.02l-1.66-15.4c-.24-2.34 1.9-4.28 5.58-4.16l6.34.1c3.57.11 5.55 2.12 6.14 4.39 0 0 2.23 10.11 2.23 13.27.01 3.2-7.25 4.01-13.17 3.82" fill="#7a462f"/><path d="m723.04 821.85c-.11.04-.22.09-.32.15-1.59.87-14.56 7.89-16.06 9.77-1.23 1.54-.44 7.21-.01 9.77.13.79.69 1.44 1.45 1.7 3.07 1.06 11.16 3.88 19 3.09 9.83-.99 9.53-4.7 16.85-8.2 4.79-2.29 7.71-3.76 9.15-4.51.69-.36 1-1.06 1.03-1.84l.4-8.58c.05-1.08-.54-2.03-1.6-2.24-4.89-.99-18.63-3.17-29.89.89z" fill="#29abe2"/><path d="m722.87 821.92s-14.9 8.13-16.5 10.14c-1.6 2-.08 8.9-.08 8.9s10.67 4.24 20.5 3.25 9.83-4.27 17.15-7.77c5.67-2.71 8.72-4.28 9.8-4.85.29-.15.48-.45.5-.77l.45-8.16c.04-.75-.47-1.41-1.2-1.57-4.32-.94-18.86-3.49-30.62.83z" fill="#121721"/><path d="m715.61 825.78s7.45-2.63 14.75.73" style="fill:none;stroke:#29abe2;stroke-width:2;stroke-linecap:round;stroke-linejoin:round;stroke-miterlimit:10"/><path d="m721.01 822.57s7.45-2.63 14.75.73" style="fill:none;stroke:#29abe2;stroke-width:2;stroke-linecap:round;stroke-linejoin:round;stroke-miterlimit:10"/><path d="m760.58 803.66s5.58-27.91 8.84-41.87 0-20.47 0-20.47l3.26-15.35 4.19-6.51s-1.86-7.44-9.77-13.49-21.4-21.4-26.52-8.37-13.03 70.71-13.96 79.09c-.93 8.37-2.79 26.98-2.79 26.98s-5.58 4.65-5.12 7.91c.47 3.26 6.51 9.3 6.51 9.3l18.61-1.86s8.84 3.72 12.1 2.79c3.25-.93 4.65-18.15 4.65-18.15z" fill="#f7bc4b"/><path d="m776.86 719.46s-1.86-7.44-9.77-13.49-21.4-21.4-26.52-8.37c-2.12 5.39-4.65 19.31-4.65 19.31s12.09 16.08 17.24 34.93c-1.07 12.16-3.49 31.56-3.49 31.56 3.12-7.2 4.86-13.36 5.7-18.53.12 2.32.1 4.64-.13 6.94-1.4 13.96-9.07 33.5-9.07 33.5s-27.91 3.02-27.45 6.28c.47 3.26 6.51 9.3 6.51 9.3l18.61-1.86s8.84 3.72 12.1 2.79 4.65-18.14 4.65-18.14 5.58-27.91 8.84-41.87 0-20.47 0-20.47l3.26-15.35z" fill="#ce9436"/><path d="m794.07 699.92s-52.34-21.63-71.41-23.96-32.1-3.49-35.82 4.42 0 12.1 2.79 18.61 90.49 22.8 90.49 22.8z" fill="#f7bc4b"/><path d="m794.07 699.92s-52.57-22.33-71.64-24.66-31.87-2.79-35.59 5.12 0 12.1 2.79 18.61c.5 1.17.37-16.29 9.07-16.75 20-1.06 58.62 12.56 58.62 12.56l22.8 26.98z" fill="#ce9436"/><path d="m731.73 686.89s9.72-.03 13.96 3.26c4.24 3.28 9.77 12.1 9.77 12.1z" fill="#ce9436"/><path d="m709.4 680.38s22.8 3.72 28.38 7.44c0 0-8.84-12.56-28.38-7.44z" fill="#f7bc4b"/><path d="m786.28 701.66s-4.88 4.19-11.75 12.68c-3.04 3.76-7.26 7.33-8.44 11.76-1.23 4.61 1 13.25 7.98 15.23 8.56 2.5 12.94-2.85 16.36-5.41s6.4-15.79 9.39-17.08 6.83-8.54 6.83-8.54-2.56-8.54-6.83-11.1-10.13-2.23-13.54 2.46z" fill="#121721"/><path d="m788.02 710.04s-11.55 13.23-13.39 16.91-4.09 11.25 3.28 13.46 10.64-2.43 14.74-6.63 5.53-13.63 8.11-14.74 5.06-6.42 5.77-8.3c1.05-2.79-.7-7.79-4.71-9.25-4.05-1.46-10.85 4.5-13.8 8.55z" fill="#1689cb"/><path d="m811.4 578.61c6.87.82 10.89 8.97 12.24 14.34 2.18 8.65 3.41 20.81 5.3 26.54 3.47 10.53 4.56 22.27-6.07 23.93-10.64 1.66-10.29-9.26-12.86-20.22-1.81-7.7-5.8-20.8-4.25-16.35 1.56 4.5-8.32-29.89 5.64-28.24z" fill="#a96443"/><path d="m811.4 578.61c6.87.82 11.37 8.42 12.72 13.78 2.18 8.64 2.92 21.37 4.82 27.1 3.47 10.53 4.56 22.27-6.07 23.93-5.63.88-9.91-26.29-9.91-26.29s-1.44-15.84-3.17-23.61c-2.2-9.79 1.61-14.91 1.61-14.91z" fill="#7a462f"/><path d="m842.26 636.44c.64 5.2-3.21 11.27-8.61 13.58s-17.97 4.43-18.62-.77c-.64-5.2-2.61-9.19 2.79-11.5 5.4-2.3 23.8-6.5 24.44-1.31z" fill="#7a462f"/><ellipse cx="851.89" cy="616.38" fill="#4b3355" rx="1.65" ry="1.57"/><ellipse cx="845.75" cy="617.8" fill="#4b3355" rx="1.65" ry="1.57"/><path d="m843.09 623.61-50.92 16.96 2.34 9.94 50.75-17.95 3.51.99 11.35-4.63 1.43-.91.59-3.1-7.36-6.95-10.69 3.25z" fill="#4b3355"/><path d="m842.26 621.65-50.92 16.95 2.34 9.94 50.75-17.95 3.5.99 11.36-4.63 2.85-2.1-4.22-8.05-3.98-.81-10.68 3.25z" fill="#665070"/><path d="m802.15 646.23s3.08 17.52-4.3 22.12c-7.06 4.4-10.96 3.58-10.96 3.58-2.66 1.84-7.37 9.42-15.15 12.49s-21.91-.82-29.69-8.19 60.1-30 60.1-30z" fill="#4b3355"/><path d="m802.15 646.23s-.92-16.28-12.9-20.27-16.89 5.53-20.27 6.45-11.36-1.84-17.81-.92-16.28 5.84-15.97 24.27 9.21 27.03 23.65 24.88 19.66-14.44 23.04-18.12c0 0 5.84 3.07 13.51-.61 7.26-3.5 6.75-15.68 6.75-15.68z" fill="#856792"/><ellipse cx="776.56" cy="647.46" fill="#4b3355" rx="8.09" ry="7.06"/><ellipse cx="776.56" cy="648.18" fill="#34283a" rx="7.27" ry="6.35"/><path d="m749.76 670.03 5.58-1.86-7.91-21.87-4.18 2.33z" fill="#bb83c3"/><path d="m751.79 652.96s89.01-29.73 91.3-30.58c2.29-.86 3.57-1 2.86-3.43" style="fill:none;stroke:#bb83c3;stroke-width:.5;stroke-linecap:round;stroke-linejoin:round;stroke-miterlimit:10"/><path d="m752.36 655.25s91.71-31.08 96.15-32.19 4.44-3.11 3.44-6.54" style="fill:none;stroke:#bb83c3;stroke-width:.5;stroke-linecap:round;stroke-linejoin:round;stroke-miterlimit:10"/><path d="m753.7 657.15s96.38-32.39 97.96-32.8 2.87 4.31 2.87 4.31" style="fill:none;stroke:#bb83c3;stroke-width:.5;stroke-linecap:round;stroke-linejoin:round;stroke-miterlimit:10"/><path d="m754.27 659.25s90.82-30.44 92.25-31.01 3 .57 3.86 2.86" style="fill:none;stroke:#bb83c3;stroke-width:.5;stroke-linecap:round;stroke-linejoin:round;stroke-miterlimit:10"/><ellipse cx="851.31" cy="632.49" fill="#665070" rx="1.57" ry="1.65" transform="matrix(.0158 -.9999 .9999 .0158 205.4249 1473.6827)"/><ellipse cx="855.19" cy="630.42" fill="#665070" rx="1.57" ry="1.65" transform="matrix(.0158 -.9999 .9999 .0158 211.3197 1475.5247)"/><path d="m828.09 633.49-1.59 1.39.4 5.56 4.17 3.97s3.37 4.56 5.36 4.37c1.98-.2 2.18-1.39 4.17-1.39 1.98 0 2.58.6 4.37-.99s3.57-1.79 4.56-1.98c.99-.2.99-2.78 1.98-4.56.99-1.79-2.38-6.75-3.77-9.33s-4.37-1.39-4.37-.4 1.39 3.97 1.39 3.97l-.6 4.37-1.79-4.76-4.17-5.56s-1.98 0-2.78.6c-.79.6-.4 2.78-.4 2.78l-3.37-1.39-2.98 1.79.6 1.98z" fill="#7a462f"/><path d="m750.34 643.79c-2.9-1.34-7.76-2.31-12.94-7.07-3.71-3.41-13.63-9.47-20.78-9.23-7.14.23-12.69 4.36-9.04 14.56s26.88 12.74 33 14.59c6.13 1.84 9.35 4.2 14.07-1.15s-1.41-10.36-4.31-11.7z" fill="#7a462f"/><path d="m717.75 641.26c-3.71-3.41-13.82-9.42-10.17.78s26.88 12.74 33 14.59c6.13 1.84-17.65-10.6-22.83-15.37z" fill="#a96443"/><path d="m750.09 642.89s4.84-2.72 7.56-2.42 5.45 4.54 6.96 5.14c1.51.61.61 5.14.61 5.14l-1.82.91s3.33 3.33 4.84 3.93c1.51.61 2.12 1.51 2.12 3.33s-.91 3.33-.91 3.33 1.21 0 1.21 1.82-1.51 3.33-3.03 3.33c-1.51 0-4.54-1.82-4.54-1.82l-4.24 1.82s-4.54 1.51-6.35.3c-1.82-1.21-5.75-10.89-5.75-10.89s1.22-13.92 3.34-13.92z" fill="#7a462f"/><path d="m789.5 546.11c3.71 17.94 1.48 24.4-9.93 27.4-8.63 2.27-18.27-6.71-21.45-19.73-3.18-13.01 1.27-25.28 9.93-27.4s18.11 3.58 21.45 19.73z" fill="#273252"/><path d="m783.68 543.26c-2.93-11.65-5.8-18.02-18.53-15.91-6.64 1.1-12.92 3.28-16.2 6.23-2.97 2.67-4.34 6.02-3.66 13.96.51 5.99 2.25 19.16 6.48 28.36 2.71 5.89 10.48 3.86 17.3 2.29 9.92-2.28 19.31-8.49 18.32-17.27-1.35-11.89-2.51-12.88-3.71-17.66z" fill="#a96443"/><path d="m787.03 556.75c-.75-10.23-5.7-20.19-16.56-18.39-5.67.94-15.88 6.74-14.8 13.46 1.17 7.28 2.1 15.02 4.77 20.92 2.29 5.07 6.74 6.3 13.09 4.04 7.22-2.57 10.21-2.84 12.4-8.18 2.18-5.33 1.48-6.68 1.1-11.85z" fill="#7a462f"/><path d="m746.22 534.06c-.88.91-1.53 6.78-1.25 11.13.06.92 1.84-4.59 1.84-4.59s.97 1.19 7.26.56 10.55-2.95 10.55-2.95 4.35 7.32 6.73 10.29c2.37 2.97 5.66 4.28 5.66 4.28l8.42-4.4c-1.85-9.06-6.1-21.52-12.3-22.11-11.33-1.07-23.65 4.45-26.91 7.79z" fill="#273252"/><path d="m787.04 552.51c.03 5.09-2.45 9.28-5.52 9.5 0 0-2.57-10.93-3.13-13-.35-1.3-.6-5.51 2.67-5.75 3.28-.24 5.96 3.98 5.98 9.25z" fill="#7a462f"/><path d="m786.22 556.35c.12 1.2-.74 2.31-1.91 2.5-1.17.18-2.24-.63-2.37-1.82-.14-1.21.72-2.34 1.91-2.53 1.18-.2 2.25.64 2.37 1.85z" fill="#f3e7d9"/><path d="m761.63 556.31c.3 1.81-.18 3.38-1.07 3.53-.89.14-1.87-1.19-2.19-3-.33-1.83.14-3.45 1.05-3.6.92-.15 1.91 1.24 2.21 3.07z" fill="#1d2538"/><path d="m749.52 557.26c.26 1.65.08 3.05-.4 3.13s-1.09-1.17-1.36-2.82c-.28-1.67-.1-3.11.39-3.2.49-.08 1.1 1.22 1.37 2.89z" fill="#1d2538"/><path d="m756.84 548.58 4.76.3" fill="none" stroke="#1d2538" stroke-linecap="round" stroke-linejoin="round" stroke-miterlimit="10"/><path d="m746.29 550.77 1.8-.59" fill="none" stroke="#1d2538" stroke-linecap="round" stroke-linejoin="round" stroke-miterlimit="10"/><path d="m349.91 652.01s.41-5.62 1.33-9.77c.88-3.97 2.61-1.68 4.1 1.77 1.56 3.61 2.32 9.43 2.6 10.8.29 1.37-6.85 1.96-8.03-2.8z" fill="#1d2538"/><path d="m344.02 700.13c-4.32-.77-14.98-9.53-14.7-17.11s-.14-18.66 1.31-23.12c0 0-1.15-7.68-1.24-11.91-.08-4.23.96-4.62 2.78-2.93s5.05 8.04 5.05 8.04 8.8-5.72 17.16-3.91 11.74 6.56 13.26 10.89l.3.28s8.85.41 13.14 1.26 5.9 2.65 4.94 7.27-.84 6.81-2.96 8.86c-2.13 2.05-12.22 7.6-17.59 9.5 0 0-.38 10.42-1.73 13.45s-15.4.19-19.72-.57z" fill="#273252"/><path d="m340.37 688.07s-11.32 2.52-11.05-5.06c.28-7.58-.14-18.66 1.31-23.12 0 0-1.15-7.68-1.24-11.91-.08-4.23.96-4.62 2.78-2.93s5.05 8.04 5.05 8.04 8.8-5.72 17.16-3.91c0 0-8.88 1.99-11.7 6.01-2.81 4.02-4.43 18.5-4.43 18.5s12.14 9.98 11.71 10.93c-1.33 3.03-9.59 3.45-9.59 3.45z" fill="#1d2538"/><path d="m351.84 651.74s.08-5.43.2-9.04c.14-4.07 2.46-2.21 3.96 1.24 1.56 3.61 2.77 7.41 3.06 8.78.28 1.37-6.82 2.44-7.22-.98z" fill="#273252"/><ellipse cx="353.57" cy="660.84" fill="#121721" rx="1.64" ry="2.92" transform="matrix(.8098 -.5868 .5868 .8098 -320.4862 333.1707)"/><ellipse cx="365.02" cy="658.16" fill="#121721" rx=".96" ry="2.49" transform="matrix(.8616 -.5076 .5076 .8616 -283.5439 276.3524)"/><path d="m386.1 664.89c.76 2.3-.23 3.62-.56 5.07-.46 1.98-6.11-.43-6.87-2.73s-1.44-5.61 1.48-5.65c2.03-.03 5.2 1.01 5.95 3.31z" fill="#121721"/><path d="m353.05 686.44s11.94 3.42 12.11.74c5.28-1.81 13.47-6.37 13.47-6.37l-14.67 2.89z" fill="#1d2538"/><path d="m301.74 727.75c-.73-1.24-5.43-7.25-6.3-10.26s-2.64-10.19.82-13.72c0 0-4.54-.3-7.31 9.18s5.99 19.13 6.73 19.94c3.33 3.63 8.15-1.6 6.06-5.14z" fill="#1d2538"/><path d="m376.26 756.82c-1.23-2.11-4.75-3.92-4.75-3.92-.39-.45-1.61-1.28-1.79-1.75-1.35-3.61-5.02-13.48-5.44-15.09-.87-3.35-1.37-13.74-3.18-21.45-1.82-7.71-12.4.73-11.46 8.33.67 5.42 8.71 26.55 9.52 28.61l4.27 6.42c1.36 1.28 4.52 1.75 7.59 1.3 3.05-.47 6.44-.38 5.24-2.45z" fill="#1d2538"/><path d="m351.29 686.92s-13.9-6.29-23.64.61c-8.72 6.17-11.1 24.22-21.73 26.48-6.68 1.42-6.38 25.4-4.08 29.72 4.21 8.07 13.33 7.21 17.14 6.59 11.24-1.83 37.99-29.6 42.17-32.7 3.75-2.78 7.59-15.34.71-22.96-2.63-2.91-5.61-6.03-10.57-7.74z" fill="#273252"/><path d="m348.43 688.4c-8.06-4.17-11.03-7.78-20.78-.88-8.72 6.17-13.95 24.92-24.54 27.36-11.99 2.76-8.81 25.03-1.09 30.69 20.2 14.81 32.08-8.05 35.5-15.46 0 0-11.54-4.6-11.97-9.41s9.94-14.05 9.94-14.05c4.5-6.86 15.79-16.77 12.94-18.25z" fill="#1d2538"/><path d="m355.93 760.06c-.39-2.05-6.42-6.01-6.49-6.52-1.16-8.58-.62-17.02-.66-19.02-.09-4.1 3.06-11.71 2.91-20.58-.14-8.55-14.06-1.59-14.1 8.31-.02 5.71.97 25.12 1.28 30.41.04.75.24 1.47.56 2.15l4.17 5.68c.7 1.73 3.84 2.71 7.36 2.23 3.52-.5 5.5.13 4.97-2.66z" fill="#273252"/><path d="m328.97 683.44s-1.74 2.78-1.89 4.95c0 0 7.68 3.52 20.93 6.9 7.1 1.81 17.69 2.67 17.69 2.67l.38-5.73c-0 .01-21.54-1.32-37.11-8.79z" fill="#992c29"/><path d="m366.02 692.31s4.95 6.52 5.1 10.27l-8.51 4.7s1.44-11.26 3.41-14.97z" fill="#c94039"/><path d="m366.02 692.31c-2.16 3.2-3.41 14.97-3.41 14.97s3.99-4.71 4.19-6.26c.2-1.54-.78-8.71-.78-8.71z" fill="#992c29"/><path d="m365.31 696.19s-5.37 6.99-8.14 8.28l-1.71-4.68s4.24-3.31 9.85-3.6z" fill="#992c29"/><path d="m113.55 873.2s-12 1.71-22.29-3.43c0 0 4.29-5.14 12-2.57 0 0-8.57-9.43-18-18.86 0 0 35.15 9.43 40.29 19.72 5.15 10.28-12 5.14-12 5.14z" fill="#34283a"/><path d="m177.8 874.73 153.9-101.11s5.23-25.4-2.24-41.84-42.59-17.18-42.59-17.18l-182.29 85.92z" fill="#7a462f"/><path d="m193.12 865.52 138.58-91.9-41.83 6.73 11.95-18.68-5.23-8.22-93.39 49.31-10.08 22.41 23.53 14.57z" fill="#a96443"/><path d="m177.8 874.73s-39.85 2.99-53.29 0c-13.45-2.99-27.39-33.87-27.39-33.87s-10.46-25.4 7.47-40.34 45.57-.75 55.29 4.48c9.7 5.23 31.37 26.4 17.92 69.73z" fill="#cc6d3d"/><path d="m188.59 820.38-4.81-4.92 45.5-21.08-25.09 17.13 14.69-3.98-1.23 8.26 11.02-1.83-35.19 19.89z" fill="#7a462f"/><path d="m328.16 779.23s0-20.23-7.28-29.14l2.43 21.85s-12.14-14.57-16.19-18.62c0 0 9.71 14.57 13.76 25.9l-11.33-8.9 16.19 18.62z" fill="#856792"/><path d="m153.95 812.93s-23.21-12.06-37.17-5.43l8.72 22.9-18.85-10.47c-2.77 9.55 1.25 19.32 1.25 19.32s10.23 24.32 20.1 26.52c9.87 2.19 39.11-1.66 39.11-1.66 9.86-31.81-13.16-51.18-13.16-51.18z" fill="#b44c29"/><path d="m305.71 725.15-18.97 7.81 4.41.83 15.2-3.96-2.72 6.33 18.83-7.08-7.66-3.73z" fill="#a96443"/><path d="m216.48 768.3c5.23 8.43 46.74-12.26 52.85-21.59 5.33-8.14-41.15-1.69-50.94 2.36s-6.82 11.31-1.91 19.23z" fill="#c94039"/><path d="m165.14 629.07c.08-3.59-9.15-17.77-15.39-14.96-6.25 2.82 3.57 14.31 3.57 14.31s-8.92-.65-13.38 2.38-3.12 11.92 4.24 11.05c7.36-.86 20.74-2.38 20.96-12.78z" fill="#273252"/><path d="m151.65 639.83s-7.2 1.8-8.1 9.22c-.81 6.7 2.7 9.22 2.7 9.22s-9.45 3.82-6.43 14.02c3.54 11.99 26.51 12.92 31.76 5.04 0 0 21.79 3.27 34.71-11.18 12.92-14.46 0-29.44-8.32-28.79 0 0-8.55-26.99-33.28-15.29-12.74 6.02-13.04 17.76-13.04 17.76z" fill="#273252"/><path d="m158.32 639.1s-6.32 3.65-7.09 10.83c-.69 6.48 2.31 8.91 2.31 8.91s-8.07 3.7-5.49 13.55c3.03 11.59 22.64 12.5 27.13 4.87 0 0 18.61 3.16 29.65-10.81s0-28.47-7.11-27.83c0 0-10.31-27.29-31.44-15.98-10.89 5.83-7.96 16.46-7.96 16.46z" fill="#3e4c6f"/><path d="m166.18 628.28c-.4-2.68-9.07-12.05-13.36-9.16s4.48 10.18 4.48 10.18-6.72.66-9.65 3.48c-2.93 2.83-.8 9.27 4.56 7.68 5.38-1.57 15.14-4.41 13.97-12.18z" fill="#3e4c6f"/><path d="m252.12 724.11s21.93 2.36 25.3 4.05 6.22 11.95-2.55 17.35-15.66 6.6-30.84 1.54c-15.19-5.07-14.51-24.63 8.09-22.94z" fill="#1d2538"/><path d="m209.28 765.93h46.89s12.14-24.96-5.06-25.97-41.83-7.42-47.9-1.01-13.16 24.62 6.07 26.98z" fill="#273252"/><path d="m209.28 765.93h46.89s12.14-24.96-5.06-25.97-41.83-7.42-47.9-1.01-13.16 24.62 6.07 26.98z" fill="#1d2538"/><path d="m252.38 826.6s27.74-72.09 23.29-79.87-30.44 14.4-28.79 25.99c1.64 11.59-6.47 50.77-6.47 50.77z" fill="#cc6d3d"/><path d="m271.29 771.76c5.98-18.91 10.6-36.21 8.72-39.5-4.45-7.78-16.39-7.02-22.36 2.07s-12.42 26.79-10.78 38.39z" fill="#1d2538"/><path d="m272.45 770.4c4.9-15.51 8.7-29.7 7.16-32.39-3.65-6.38-14.21-5.93-19.11 1.53s-9.42 22.15-8.07 31.65z" fill="#273252"/><path d="m242.85 820.84c-1.46.96-3.31 2.96-7.19 5.67-3.32 2.32 2.38 7.76 3.27 11.53-1.3-2.33 14.48 14.8 18.68 16.95 9.51 4.86-2.79-16.17.45-10.09 0 0-7.07-12.26-5.78-17.53 1.3-5.27-7.96-7.49-9.43-6.53z" fill="#cc6d3d"/><path d="m237.82 824.14c.62-.33 1.42-.47 1.17.09s-.7 3.01.06 4.31 9.55 15.88 14.97 17.49c3.31.98 2.77-2.04 1.7-4.91-.71-1.9-1.89-5.28-1.89-5.28s3.18 7.05 4.94 10.13 4.19 11.45 3.46 13.69c-.74 2.24-19.27-10.07-21.39-13.12s-4.78-7.8-5.89-10.06c-.88-1.78-2.76-2.71-2.93-3.63-.37-2.06 3.94-7.7 5.8-8.71z" fill="#992c29"/><path d="m247.65 754.2s.99-7.03 8.97-7.6c9.15-.64 25.03 36.86 26.9 40.28s22.75 40.2 24.39 45.68c1.51 5.01-6.73 12.87-13.9 3.82-6.49-8.2-20.94-27.51-27.9-34.31-6.97-6.8-26.13-32.04-18.46-47.87z" fill="#cc6d3d"/><path d="m276.2 778.91c5.12-.36 13.27 19.48 15.01 21.96 1.75 2.47 12.17 21.87 13.1 24.93.84 2.81-9.59-6.23-12.2-9.59s-6.35-8.97-9.71-13.82-10.66-23.17-6.2-23.48z" fill="#f5894e"/><path d="m240.7 749.96s4.85-10.13 14-9.43 25.61 40.88 28.73 45.29l-17.33 16.24c-6.96-6.79-33.07-36.27-25.4-52.1z" fill="#1d2538"/><path d="m247.16 752.62s3.78-7.88 10.9-7.34 19.94 31.82 22.37 35.26l-14.22-2.69c-5.43-5.29-19.05-25.23-19.05-25.23z" fill="#273252"/><path d="m293.93 834.03c.47 1.69 1.8 4.06 3.18 8.58 1.19 3.88 8.12.12 11.98.43-2.62.52 18.54-9.23 21.87-12.57 7.55-7.55-16.24-2.31-9.46-3.53 0 0-13.84 2.96-18.46.11-4.62-2.84-9.58 5.29-9.11 6.98z" fill="#cc6d3d"/><path d="m294.87 838.78c-.13-.69-.01-1.5.45-1.09.45.41 3.2.24 4.67-.08s19.51-5.81 22.42-8.57-1.05-1.72-4.17-1.35c-2.02.24-6.87.59-6.87.59s7.51-.96 10.99-1.68 11.13-1.12 13.9-.33c2.27.65.92 7.91-16.75 15.33-3.42 1.44-9.82 1.61-13.49 4.75-.49.42-.4 1.26-.88 1.67-.97.84-2.44 1.13-3.06 1.05-2.11-.27-6.83-8.21-7.21-10.29z" fill="#992c29"/><path d="m259.61 680.33s2.9.93 2.61 1.96c-.28 1.03-2.9.56-2.9.56s.37 1.59-.75 1.87-2.05-.09-2.05-.09.93 1.03 0 1.31-5.42.75-5.23.28c.19-.48 8.32-5.89 8.32-5.89z" fill="#f5894e"/><path d="m247.28 686.86s3.74-7.25 4.98-8.5c1.25-1.25 6.23.37 6.23.37z" fill="#f5894e"/><path d="m207.68 689.95s11.92 15.97 13.91 19.71-2.21 11.8-8.69 7.56c-6.47-4.23-16.44-16.06-16.69-21.29-.23-5.24 6.49-8.97 11.47-5.98z" fill="#cc6d3d"/><path d="m238.56 692.81c-4.57 2.43-20.92 7.6-26.9 12.33s-4.23 9.71 1.74 12.95 19.89-8.19 27.61-12.92 9.62-8.87 7.63-11.61c-1.98-2.74-4.22-3.86-10.08-.75z" fill="#cc6d3d"/><path d="m239.8 700.53-17.05 16.19s9.46-5.48 19.67-12.51c8.93-6.15-2.62-3.68-2.62-3.68z" fill="#f5894e"/><path d="m246.2 699.65s5.43.6 7.72-1.93 6.53-5.17 7.83-6c1.77-1.12 2.43-3.18-1.12-2.9-2.44.19-3.58 1.41-5.87 1.89s-2.77-2.41-2.77-2.41 2.77-3.14 3.38-4.22 4.22-2.53 6.39-3.74 2.65-2.17 1.81-3.38-2.1-.19-4.7.36c-2.01.43-6.04 1.5-7.73 3.18-1.69 1.69-3.74 3.33-8.34 9.81-2.99 4.21-1.42 9.58 3.4 9.34z" fill="#cc6d3d"/><path d="m187.3 680.76c2.25-5.85 4.72-7.2 10.34-4.95s12.14 19.34 12.14 19.34l-16.42 5.4c.01 0-6.71-18.1-6.06-19.79z" fill="#ee5d4f"/><path d="m162.67 678.28c1.82-3.64 7.6-2.52 16.64-2.7 11.24-.22 14.62 1.12 26.42 6.52 8.42 3.85 7.98 22.94 8.88 29.01s.9 30.81-15.29 34.41-20.91-16.64-30.58-31.93-8.99-29.46-6.07-35.31z" fill="#f7bc4b"/><path d="m162.67 678.28c1.82-3.64 7.6-2.52 16.64-2.7 5.62-.11 5.27 13 2.59 18.69-3.16 6.73-5.43 13.01.59 19.19 10.29 10.55-.66 9.82 16.83 32.06-16.19 3.6-20.91-16.64-30.58-31.93s-8.99-29.46-6.07-35.31z" fill="#ce9436"/><path d="m179.33 734.92c.22 13.04-.3 17.86 5.38 25.61 5.68 7.76 28.56 7.2 32.38 8.77s3.6.9 3.6.9.51-5.51 1.41-10.68 1.01-11.13 8.43-17.54 14.67-.49 18.89-3.71c12.82-9.78 18.22-12.48 18.22-12.48s-13.16-1.69-28.67-3.37c-14.12-1.53-13.16-1.57-28.67-1.35-5.7.08-31.2.81-30.97 13.85z" fill="#f7bc4b"/><path d="m178.08 734.06c.22 13.04.96 18.72 6.63 26.48 5.68 7.76 28.56 7.2 32.38 8.77s3.6.9 3.6.9.51-5.51 1.41-10.68 1.01-11.13 8.43-17.54 14.67-.49 18.89-3.71c0 0-11.6-8.73-22.56-7.73s-26.37 3.47-29.14 2.74-6.33-4.39-8.9-7.36-10.88.53-10.74 8.13z" fill="#ce9436"/><path d="m209.85 702.67c-1.03-3.09-8.25-4.47-11.69-2.41s-6.88 6.88-7.56 10.31 4.47-2.75 11.69-3.78c5.48-.78 8.59-1.02 7.56-4.12z" fill="#ce9436"/><path d="m172.12 706.62s-2.53 19.85-3.88 22.99c-1.35 3.15-2.25 10.12-8.77 9.9s-7.2-5.17-6.97-10.12.28-23.67 1.18-25.47 17.99-6.52 18.44 2.7z" fill="#cc6d3d"/><path d="m172.12 706.62s-2.53 19.85-3.88 22.99c-1.35 3.15-4.11 5.12-3.88.18.22-4.95.28-23.67 1.18-25.47.89-1.8 6.13-6.92 6.58 2.3z" fill="#f5894e"/><path d="m173.02 698.3s3.15-22.04-6.52-21.81c-9.67.22-11.7 10.6-12.59 21.36-.45 5.4-.9 10.34-.9 10.34s4.27-1.57 8.77-2.25c4.9-.73 10.34.67 10.34.67z" fill="#c94039"/><path d="m173.02 698.3s3.15-22.04-6.52-21.81l2.34 9.73-1.99 15.69-5.07 4.05c4.9-.73 10.34.67 10.34.67z" fill="#ee5d4f"/><path d="m166.83 740.02c.96-7.37 3.54-16.81-6.13-18.83s-8.26 12.31-8.94 15.91c-.67 3.6-1.8 32.38-2.02 36.88s8.32 8.55 11.47 3.15 4.58-29.11 5.62-37.11z" fill="#cc6d3d"/><path d="m166.83 740.02c.78-6 2.64-13.39-1.94-17.01-1.04-.82-.26 1.4-1.2 8.5-.45 3.43-1.94 10.22-2.61 13.82s-1.49 10.35-1.71 14.85 3.69 11.57 4.39 7.17c1.48-9.27 2.37-21.91 3.07-27.33z" fill="#f5894e"/><path d="m133.02 786.06s-2.71.68-3.9-.68 6.61-6.44 8.14-7.97 8.14-3.73 11.7-3.39-15.94 12.04-15.94 12.04z" fill="#a96443"/><path d="m160.82 772.49s2.2 3.22 1.86 6.44.17 4.58-4.41 5.09-8.65 3.73-8.65 3.73-1.02.85-2.54.85-2.2-.85-2.03-1.7 6.44-5.93 6.44-5.93-5.59.34-6.61.34-5.76 2.54-5.76 2.54-3.22 3.39-4.41 4.24-2.03 1.19-3.9-.17c-1.86-1.36 1.7-4.24 2.54-5.76.85-1.53 6.27-5.42 6.27-5.42s14.93-5.43 21.2-4.25z" fill="#cc6d3d"/><ellipse cx="185.09" cy="680.98" fill="#f5894e" rx="4.79" ry="6.65" transform="matrix(.4751 -.8799 .8799 .4751 -502.0598 520.305)"/><path d="m170.32 661.87 8.96 19.78 12.18 1.29-4.73-20z" fill="#f5894e"/><path d="m170.32 661.87 8.96 19.78 8.97-11.18-1.52-7.53z" fill="#cc6d3d"/><path d="m186.67 624.99s3.25 3.63 6.49 5.11c2.45 1.12 4.38 1.26 4.38 1.26l-.52-.94 1.16-.97s-4.51-.28-10.6-5.07z" fill="#ee5d4f"/><path d="m186.34 624.56s1.81 4.53 4.35 7.03c1.92 1.89 3.69 2.69 3.69 2.69l-.17-1.06 1.42-.52s-4.14-1.81-8.23-8.39z" fill="#ee5d4f"/><path d="m188.41 626.91c1.14-.25 1.97-6.4-.76-6.42-2.57-.01-5.46.43-4.9 2.35s4.53 4.31 5.66 4.07z" fill="#ee5d4f"/><path d="m189.25 623.39s-.53-2.6-1.34-2.51-.04 1.18.25 2.9c.28 1.71 1.29.71 1.09-.39z" fill="#f7bc4b"/><path d="m187.41 625.68s-.22-1.2 1.49-2.44 3.02-1.93 4.16-1.28c1.15.65 1.66 3.68 1.09 5.24s-4.53.56-5.54.02-1.2-1.54-1.2-1.54z" fill="#ee5d4f"/><path d="m193.76 624.39s.47 2.43-.61 2.87c-1.6.66-.77-4.01-.7-4.75.06-.72 1.53.12 1.31 1.88z" fill="#f7bc4b"/><path d="m195.64 637.56c8.07 18.68 4.19 26.69-9.36 30.47-10.18 2.84-20.44-.95-25.05-13.36-4.62-12.41-2.55-24.43 6.88-29.21 12.46-6.32 22.11-.45 27.53 12.1z" fill="#f5894e"/><path d="m192.76 642.18c6.15 16.61-3.35 23.45-9.19 25.13-8.18 2.35-17.55-.39-21.59-11.39s-1.63-23.2 5.94-27.18c17.64-9.28 22.42 6.92 24.84 13.44z" fill="#cc6d3d"/><ellipse cx="160.79" cy="655.23" fill="#cc6d3d" rx="4.37" ry="7.58" transform="matrix(.8449 -.5348 .5348 .8449 -325.5163 187.5888)"/><path d="m159.59 649.44 1.05 1.78s-3.43-10.54 6.93-18.28c9.22-6.9 20.57-6.19 20.57-6.19s-10.23-9.75-23.92 1.3c-10.47 8.45-4.63 21.39-4.63 21.39z" fill="#f7bc4b"/><path d="m177.7 643.32s.24 2.31-1.5 3.22c-1.74.92-3.44-.91-3.44-.91s1.23.2 2.59-.43c1.37-.64 2.35-1.88 2.35-1.88z" fill="#273252"/><path d="m193.34 636.63s1.03 1.65-.85 2.59c-1.01.51-2.88-.85-2.88-.85s1.51.23 2.54-.26 1.19-1.48 1.19-1.48z" fill="#273252"/><path d="m187.51 633.39c2.18-1.64 4.08-.53 4.08-.53" style="fill:none;stroke:#1d2538;stroke-width:.25;stroke-linecap:round;stroke-linejoin:round;stroke-miterlimit:10"/><path d="m173.55 638.63c-2.23.51-2.97 3.69-2.97 3.69" style="fill:none;stroke:#1d2538;stroke-width:.25;stroke-linecap:round;stroke-linejoin:round;stroke-miterlimit:10"/><path d="m502.46 905.53s-68.45 5.4-71.15 5.4-5.4 9.01 2.7 16.21l64.85-12.61z" fill="#b44c29"/><path d="m464.53 913.66 6.41 2.85-36.93 10.64 64.84-12.61-21.14-4.8z" fill="#7a462f"/><path d="m525.87 920.84s19.81 21.62 28.82 29.72c9.01 8.11 26.12 16.21 26.12 16.21s.9 8.11-3.6 12.61-20.72 5.4-20.72 5.4l-16.43-23.39-25-36.96z" fill="#b44c29"/><path d="m580.81 966.78-11.53-.74-12.83 7.48.36 11.4s18.95-1.38 20.4-2.83c2.7-2.7 6.31-10.81 3.6-15.31z" fill="#d77d5b"/><path d="m577.25 970.76-6.96-.45-7.74 4.52.22 6.88s11.44-.84 12.32-1.71c1.61-1.63 3.79-6.52 2.16-9.24z" fill="#a96443"/><path d="m538.88 942.46 6.56 2.31-17.31-17.93-.89 4.05 18.2 24.58 6.27 9.26z" fill="#7a462f"/><path d="m613.47 946.44-81.29-31-2.8 6.77 41.53 27.46 19.04 13.16z" fill="#b44c29"/><path d="m613.47 946.44s-9.79-4.28-10.69-4.28-11.05 6.41-11.05 6.41-4.73 13.57-1.43 14.96c3.31 1.4 14.25 1.07 14.25 1.07l9.26-5.34z" fill="#d77d5b"/><path d="m609.4 950.13s-8.39-.49-8.88-.49-4.38 3.35-4.38 3.35-1.87 5.75-.06 6.52 7.89 1.48 7.89 1.48l5.43-6.41z" fill="#a96443"/><path d="m588.36 945.25-30.89-17.34 8.83 1.89-24.91-10.08-4.73 3.78 28.69 15.45-1.58-3.79z" fill="#7a462f"/><path d="m495.88 919.36s-22.25 33.01-26.75 36.61-5.4 18.01 9.91 21.62c15.31 3.6 22.52-1.8 22.52-1.8l9.01-54.04z" fill="#b44c29"/><path d="m501.56 975.79-3.53-15.09-18.88-8.55-11.4 4.63s-2.85 7.48 0 13.54 7.84 7.84 17.82 9.98c9.96 2.13 15.99-4.51 15.99-4.51z" fill="#d77d5b"/><path d="m494.52 973.12-2.21-9.45-11.82-5.35-7.14 2.9s-1.78 4.68 0 8.47 4.91 4.91 11.15 6.24c6.24 1.34 10.02-2.81 10.02-2.81z" fill="#a96443"/><path d="m499.8 927.2-9.62 16.03 7.13-3.92 2.49 18.17 8.91-28.86z" fill="#7a462f"/><path d="m488.95 911.84-33.32 13.51-10.81 9.01c-7.21 1.8-37.83 18.01-41.43 18.91s.7 13.94 5.21 15.74c4.5 1.8 8.3-2.23 8.3-2.23s72.05-40.53 79.26-44.13c7.2-3.61-7.21-10.81-7.21-10.81z" fill="#b44c29"/><path d="m485.79 919.48-24.39 10.03 15.24-3.19-14.99 8.85.24 1.23-9.83 6.63 40.62-20.11z" fill="#7a462f"/><path d="m401.22 958.38c-.3-4.32 2.15-5.12 2.15-5.12s7.11-.16 8.89 1.5 2.73 10.57 2.73 10.57-.83 3.62-1.9 4.1-4.71.41-7.3-.59c-5.4-2.09-4.41-8.19-4.57-10.46z" fill="#d77d5b"/><path d="m403.32 960.31c-.19-2.78 1.39-3.3 1.39-3.3s4.58-.11 5.73.97c1.15 1.07 1.76 6.81 1.76 6.81s-.54 2.33-1.22 2.64c-.69.31-3.03.26-4.7-.38-3.5-1.35-2.86-5.27-2.96-6.74z" fill="#a96443"/><path d="m460.02 932.9-35.64 17.1-4.75 7.6 6.66-5.22 10.92-1.43z" fill="#7a462f"/><path d="m516.64 932.55c-44.34 1.11-60.75-46.63-62.99-53.72s-8.49-33.09 0-42.52c0 26.85 14.91 29.3 14.91 29.3s-14.02-26.56-3.77-35.83c10.25-9.26 30.26-9.14 29.23-40.54-.32-9.61 8.79-19.45 16.33-19.45 0 0-5.62 29.54 14.26 28.71s13.14 34.5 14.09 46.76c0 0 2.75 12.32 8.55 3.76s7.9-21.12 7.9-21.12 7.04 22.92 8.11 38.23c2.82 40.56-22.03 65.81-46.62 66.42z" fill="#f7bc4b"/><path d="m504.7 925.87c-41.53-7.87-31.3-42.51-28.3-47.94 0 0 .2 11.34 2.15 15.82 3.24 7.47 16 10 10.68-1.4s-7.15-18.61 3.52-38.42c0 0 15.29-12.5 11.98-39-1.94-15.54 7.58 34.71 7.58 34.71s5.31-12.12 7.33 5.6c1.27 11.18 8.83 48.59 21.53 32.02 2.85 25.15-20.5 41.64-36.47 38.61z" fill="#ee5d4f"/><path d="m559.4 911.28c19.62 2.14 12.33-24.09 12.33-24.09s-4.38 15.3-12.33 24.09z" fill="#f7bc4b"/><path d="m479.04 759.88c-.88 5.3.15 15.72 5.3 4.42 4.6-10.08-4.42-9.72-5.3-4.42z" fill="#feed7f"/><path d="m539.31 786.3s9.72 1.77 7.07-6.19c-2.65-7.95-7.07 6.19-7.07 6.19z" fill="#ee5d4f"/><path d="m530.03 826.07s4.42-2.65 3.53-9.72c-.88-7.08-3.53 9.72-3.53 9.72z" fill="#ee5d4f"/><path d="m482.75 798.67-2.65-12.37-1.77 1.77c.01 0-5.3 5.3 4.42 10.6z" fill="#ee5d4f"/><path d="m496.39 711.2c-9.42 3.14-18.84-14.65-4.19-21.98 10.92-5.46 2.85-1.44-.05 8.09-3.24 10.66 6.65 13.09 4.24 13.89z" fill="#f7bc4b"/><path d="m460.65 784.22c-3.14-4.19-16.43 8.49-11.46 22.57 1.88 5.32-.06-6.87 7.27-12.1s7.33-6.28 4.19-10.47z" fill="#f7bc4b"/><path d="m528.68 731.45c-3.14 1.05-6.28 12.56 6.28 19.89 0 0-3.14-20.94-6.28-19.89z" fill="#f7bc4b"/><path d="m438.04 824.71s-9.65-41.97 24.03-71.49c0 0 6-39.58 38.08-61.71s38.28-18.24 45.9-80.7c5.96-48.84 28.1-59.21 16.09-99.69-12.23-41.22 7.65-94.95-24-121.85s-44.4-42.5-45.89-53.8c-4.57-34.8 17.53-66.3 41.14-112.35 9.81-19.14-15.82-112.35-15.82-112.35 33.23 34.81 44.57 104.97 39.56 125.01-13.56 54.23-22.93 53.97 1.58 99.69s58.55 53.8 69.63 137.67c17.99 33.65 4.75 69.63-4.75 91.78-9.49 22.15-3.88 76.09-7.39 96.53-13.78 80.19-45.33 93.36-34.45 142.42 10.88 49.05 17.41 87.92-38.72 117.44-56.14 29.5-159.53-42.49-104.99-96.6z" fill="#feed7f" opacity=".4"/></svg>