<svg width="948" height="1241" viewBox="0 0 948 1241" fill="none" xmlns="http://www.w3.org/2000/svg">
<g clip-path="url(#clip0)">
<ellipse cx="573.5" cy="370" rx="361.5" ry="366" fill="#C4C4C4"/>
<path d="M440.7 1234.31C439.114 1234.31 437.589 1233.69 436.449 1232.59C435.309 1231.49 434.642 1229.99 434.59 1228.4L461.79 847.88H499.61L446.81 1228.4C446.758 1229.99 446.092 1231.49 444.951 1232.59C443.811 1233.69 442.286 1234.31 440.7 1234.31V1234.31Z" fill="white" stroke="#3F4D79" stroke-width="5" stroke-miterlimit="10" stroke-linecap="round"/>
<path d="M675.7 1234.31C674.114 1234.31 672.589 1233.69 671.449 1232.59C670.309 1231.49 669.642 1229.99 669.59 1228.4L616.79 847.88H654.61L681.81 1228.4C681.758 1229.99 681.092 1231.49 679.951 1232.59C678.811 1233.69 677.286 1234.31 675.7 1234.31V1234.31Z" fill="white" stroke="#3F4D79" stroke-width="5" stroke-miterlimit="10" stroke-linecap="round"/>
<path d="M784.7 1234.31C783.114 1234.31 781.589 1233.69 780.449 1232.59C779.309 1231.49 778.642 1229.99 778.59 1228.4L725.79 847.88H763.61L790.81 1228.4C790.758 1229.99 790.092 1231.49 788.951 1232.59C787.811 1233.69 786.286 1234.31 784.7 1234.31V1234.31Z" fill="white" stroke="#3F4D79" stroke-width="5" stroke-miterlimit="10" stroke-linecap="round"/>
<path d="M798.68 766.29L787.76 810.09H751.86L762.78 766.29H798.68Z" fill="white" stroke="#3F4D79" stroke-width="5" stroke-miterlimit="10" stroke-linecap="round"/>
<path d="M658.55 766.29L647.63 810.09H611.73L622.65 766.29H658.55Z" fill="white" stroke="#3F4D79" stroke-width="5" stroke-miterlimit="10" stroke-linecap="round"/>
<path d="M792.62 807.08H417.37C404.999 807.08 394.97 817.107 394.97 829.475C394.97 841.843 404.999 851.87 417.37 851.87H792.62C804.991 851.87 815.02 841.843 815.02 829.475C815.02 817.107 804.991 807.08 792.62 807.08Z" fill="#888888"/>
<path d="M947 458.53L878.95 731.53C876.262 742.308 870.046 751.878 861.292 758.717C852.538 765.555 841.748 769.27 830.64 769.27H582.64C568.91 769.27 559.36 748.52 564.09 728.95L631.88 448.61C635.1 435.29 643.45 426.45 652.8 426.45H922.24C933.18 426.45 950.73 443 947 458.53Z" fill="#888888"/>
<path d="M164.34 1168.44C164.34 1175.36 185.75 1196.55 178.54 1231.97C178.54 1231.97 125.72 1232.05 99.81 1232.21C69.01 1232.4 3.49999 1232.4 3.49999 1232.4C3.49999 1232.4 -2.86002 1204.17 30.88 1200.26C64.62 1196.35 107.39 1160.69 107.39 1160.69L164.34 1168.44Z" fill="#ECDB9D"/>
<path d="M180.81 1235.21C150.01 1235.4 3.5 1235.4 3.5 1235.4" stroke="#3F4D79" stroke-width="7" stroke-miterlimit="10" stroke-linecap="round"/>
<path d="M108.39 1160.69C111.73 1151.38 116.54 1120.97 116.54 1120.97L170.81 1125.73C170.81 1125.73 161.81 1146.06 163.34 1167.44C163.86 1174.65 104.72 1170.9 108.39 1160.69Z" fill="#FFC0B7"/>
<path d="M656.08 781.24C595.74 805.9 312.87 790.33 312.87 790.33C312.87 790.33 307.08 1011.94 200.71 1126.66C200.71 1126.66 127.34 1124.2 107.23 1119.01C107.23 1119.01 162.83 787.35 202.58 722.2C223.58 687.71 460.02 635.08 511 630.65C526.184 640.765 542.301 649.404 559.13 656.45C605.47 676 653 683 688.74 685.07C694.23 717.11 695.1 765.3 656.08 781.24Z" fill="#3C4564"/>
<path d="M205.34 1168.44C205.34 1175.36 226.75 1196.55 219.54 1231.97C219.54 1231.97 166.72 1232.05 140.81 1232.21C110.01 1232.4 44.5 1232.4 44.5 1232.4C44.5 1232.4 38.14 1204.17 71.88 1200.26C105.62 1196.35 148.39 1160.69 148.39 1160.69L205.34 1168.44Z" fill="#ECDBBA"/>
<path d="M221.81 1235.21C191.01 1235.4 44.5 1235.4 44.5 1235.4" stroke="#3F4D79" stroke-width="7" stroke-miterlimit="10" stroke-linecap="round"/>
<path d="M149.39 1160.69C152.73 1151.38 157.54 1120.97 157.54 1120.97L219.81 1127.73C219.81 1127.73 208.51 1138.09 204.34 1167.44C203.32 1174.59 145.72 1170.9 149.39 1160.69Z" fill="#FFCFC9"/>
<path d="M699.75 807.31C639.41 832 356.54 816.4 356.54 816.4C356.54 816.4 362.38 1009.4 228.76 1128.08C228.76 1128.08 161.9 1123.27 141.76 1118.08C141.76 1118.08 227.4 804.72 246.22 748.27C256.52 717.37 519.22 657.79 559.1 656.45C624.89 684.21 693 686.6 726.54 685.7C732.53 706 752.26 785.86 699.75 807.31Z" fill="#3F4D79"/>
<path d="M527.25 547C458.81 560.65 294.39 554.8 225.46 540.95C221.721 543.841 217.792 546.476 213.7 548.84C204.7 554.01 187.37 558.19 183.26 557.96C179.15 557.73 153.93 553.86 153.93 553.86C153.93 553.86 153.03 551.01 156.72 547.25C160.41 543.49 187.46 546.48 177.57 538.25C173.17 534.57 151.26 542.85 141.73 552.03C132.2 561.21 127.73 553.94 127.73 553.94C127.73 553.94 136.85 536.94 140.12 533.86C143.39 530.78 165.12 517.72 179.84 515.73C190.5 514.29 216.14 516.27 229.71 519.54C280 507.6 376.49 492.38 445.19 492.93C454.32 454.93 465.41 408.41 468.36 394.65L517.2 426.65L527.25 547Z" fill="#FFC0B7"/>
<path d="M468.36 394.65L465.28 408.3C465.28 408.3 477.93 440.35 518.76 450.93L517.2 426.63L468.36 394.65Z" fill="#FAB6AD"/>
<path d="M765.82 480.06C765.82 480.06 762.17 479.83 756.02 479.2C749.02 530.89 742.86 574.31 742.86 583.84C742.86 609.45 747.86 684.45 747.86 684.45C747.86 684.45 613 699.58 510.14 630.06C510.14 630.06 533.98 597.97 521.61 496.85C513.39 429.58 517.2 426.63 517.2 426.63C517.2 426.63 492 413.49 456.26 385.18C456.26 385.18 474.81 293.48 504.4 275.49C533.99 257.5 579.91 249.11 610.4 237.63C640.89 226.15 687.24 214.23 687.24 214.23C699.61 224.38 758.34 253.09 772.91 270.31C793.67 289.34 822.13 364.81 765.82 480.06Z" fill="#CEEFF7"/>
<path d="M647.25 449.9C647.25 449.9 659.86 429.19 675.07 353.69" stroke="#84D7EC" stroke-width="5" stroke-miterlimit="10"/>
<path d="M516.08 424.72C514.64 406.46 516.58 372.29 518.94 353.3" stroke="#84D7EC" stroke-width="5" stroke-miterlimit="10"/>
<path d="M756 479.2C756 479.2 702.55 614.28 678.35 616.52C599.53 623.81 467.81 548.75 439.35 547.87L426.87 547.47C419.87 551.58 410.97 555.08 403.44 552.87C388.26 548.43 376.1 537.46 366.04 542.17C355.98 546.88 344.37 555.92 337.99 555.17C324.64 553.56 316.94 546.47 316.94 546.47C316.94 546.47 325.25 537.41 333.64 528.8C327.69 531.13 318.64 537.53 314.01 539.73C307.01 543.04 303.41 537.12 303.41 537.12C303.41 537.12 319.02 523.33 324.41 520.06C329.62 516.91 344.24 513.6 351.62 513.44C360.55 512.24 409.53 505.55 434.77 508.21C463.71 507.14 521.77 509.21 624.05 528.44L653.36 453.26C653.36 453.26 697.87 473.05 756 479.2Z" fill="#FFCFC9"/>
<path d="M756 479.21C756 479.21 751.17 491.42 743.75 508.56C719.44 501.38 680.03 486.13 651.75 457.38L653.36 453.24C653.36 453.24 697.88 473.05 756 479.21Z" fill="#FAB6AD"/>
<path d="M633.78 124.14C633.78 124.14 637.78 181.14 687.21 214.23C687.21 214.23 661.16 271.23 601.1 275.17C541.04 279.11 586.33 245.38 586.33 245.38C586.33 245.38 570.66 193.53 568 181.17L633.78 124.14Z" fill="#FFCFC9"/>
<path d="M633.6 153.74C630.6 179.81 607.6 217.18 579.07 221.01C574.59 205.76 569.43 187.79 568.01 181.17L630.46 127L632.4 130.86C632.4 130.86 634.24 148.24 633.6 153.74Z" fill="#FAB6AD"/>
<path d="M629.08 128.22C629.08 128.22 630.01 146.09 627.61 151.08C616.56 174.08 581.91 200.48 554.97 200.48C534.12 200.48 509.69 136.95 507.49 113.54C505.29 90.13 508.37 53.04 564.89 48.63C621.41 44.22 625.39 102.94 625.39 102.94L629.08 128.22Z" fill="#FFCFC9"/>
<path d="M464.21 89.7C464.21 89.7 453.7 68.82 471.27 53.49C492 35.38 511 43.77 521.62 32.29C532.24 20.81 554.43 -3.70998 587.42 0.480016C617 4.24002 625.63 24.78 625.63 24.78C625.63 24.78 643.93 17.07 659.82 37.78C675.71 58.49 637.33 144.78 637.33 144.78C637.33 144.78 627 110.4 625.39 103C621.78 86.43 589.18 90.34 591.83 57.95C591.83 57.95 583 80.03 549.44 79.61C539.44 79.49 526.52 76.75 513.69 74.85C506.59 87.42 506.4 102.15 507.49 113.59C507.49 113.54 477.48 113.08 464.21 89.7Z" fill="#ECDBBA"/>
<path d="M624.72 24.78C624.72 24.78 639.54 10.69 655.27 24.16" stroke="#ECDBBA" stroke-width="3" stroke-miterlimit="10"/>
<path d="M591.83 56.08C591.83 56.08 585.68 85.81 552.17 87.75" stroke="#ECDBBA" stroke-width="3" stroke-miterlimit="10"/>
<path d="M634.27 93.54L623.61 13.05C623.257 10.3708 621.894 7.92778 619.799 6.22114C617.703 4.5145 615.035 3.67338 612.34 3.87001" stroke="#3F4D79" stroke-width="5" stroke-miterlimit="10" stroke-linecap="round"/>
<path d="M643.14 151.92C646 166 670.9 204.51 627.61 278C584.32 351.49 640.61 373.38 612.14 423.72C583.67 474.06 521.95 471.3 525.14 555.54C527.24 610.97 477.54 618.47 480.41 555.54" stroke="#3F4D79" stroke-width="5" stroke-miterlimit="10" stroke-linecap="round"/>
<path d="M552.43 480.07C567.29 467.94 582.32 399.25 558.48 360.17C534.64 321.09 511.34 268.41 546.48 202.05" stroke="#3F4D79" stroke-width="5" stroke-miterlimit="10" stroke-linecap="round"/>
<path d="M643.81 92.135L622.789 95.3104C616.394 96.2764 611.993 102.243 612.959 108.638L618.281 143.868C619.247 150.263 625.214 154.664 631.609 153.698L652.63 150.523C659.025 149.557 663.426 143.59 662.46 137.195L657.138 101.965C656.172 95.5699 650.205 91.169 643.81 92.135Z" fill="white" stroke="#FF0000" stroke-width="6" stroke-miterlimit="10"/>
<path d="M20.9 575.65H559C564.72 575.65 569.36 582.29 569.36 590.49V591.85C569.36 600.04 564.72 606.68 559 606.68H153.9" fill="white"/>
<path d="M26.9 573.65H559C564.72 573.65 569.36 580.29 569.36 588.49V589.85C569.36 598.04 564.72 604.68 559 604.68H155.9" stroke="#666666" stroke-width="5" stroke-miterlimit="10" stroke-linecap="round"/>
<path d="M533.71 1240.91L431.76 605.68H466.86L567.81 1239.91L533.71 1240.91Z" fill="white"/>
<path d="M472.79 637.94L434.93 623.81L431.75 605.68H466.87L472.79 637.94Z" fill="#CEEFF7"/>
<path d="M531.71 1236.91L431.76 605.68H466.86L565.81 1235.91" stroke="#666666" stroke-width="7" stroke-miterlimit="10" stroke-linecap="round"/>
<path d="M405.1 547.5H102.27C98.2572 547.502 94.3405 546.272 91.0497 543.975C87.7589 541.679 85.2527 538.427 83.87 534.66L14.08 344.47C13.2073 342.111 12.9181 339.577 13.2372 337.082C13.5562 334.588 14.474 332.207 15.9122 330.144C17.3505 328.081 19.2664 326.397 21.4966 325.235C23.7269 324.072 26.2051 323.467 28.72 323.47H335.55C340.078 323.474 344.496 324.87 348.204 327.469C351.912 330.068 354.732 333.745 356.28 338L423.5 521.16C424.585 524.121 424.938 527.301 424.532 530.428C424.125 533.556 422.969 536.539 421.163 539.124C419.357 541.71 416.954 543.821 414.157 545.279C411.361 546.737 408.254 547.499 405.1 547.5Z" fill="white" stroke="#888888" stroke-width="5" stroke-miterlimit="10"/>
<path d="M391.92 547.5H99.27C95.3427 547.46 91.5244 546.204 88.3403 543.904C85.1563 541.605 82.7631 538.375 81.49 534.66L14.05 344.47C10.44 334.3 17.72 323.47 28.2 323.47H324.71C329.132 323.519 333.43 324.938 337.012 327.531C340.593 330.124 343.283 333.764 344.71 337.95L409.71 521.12C414.23 534 405.08 547.5 391.92 547.5Z" fill="white" stroke="#888888" stroke-width="5" stroke-miterlimit="10"/>
<path d="M534.34 547.5H98.65C93.0885 547.5 88.58 552.009 88.58 557.57V558.09C88.58 563.652 93.0885 568.16 98.65 568.16H534.34C539.902 568.16 544.41 563.652 544.41 558.09V557.57C544.41 552.009 539.902 547.5 534.34 547.5Z" fill="white" stroke="#888888" stroke-width="5" stroke-miterlimit="10"/>
</g>
<defs>
<clipPath id="clip0">
<rect width="947.48" height="1240.91" fill="white"/>
</clipPath>
</defs>
</svg>
