<svg width="609" height="613" viewBox="0 0 609 613" fill="none" xmlns="http://www.w3.org/2000/svg">
<path d="M423.952 162.251C472.428 228.349 531.545 282.288 528.34 331.628C525.135 380.844 459.624 425.346 387.023 465.628C314.309 505.961 234.616 542.075 172.27 519.452C109.924 496.829 64.9017 415.229 51.8733 332.844C38.8449 250.459 57.5061 167.081 104.163 101.462C150.82 35.8438 225.241 -12.3218 281.489 2.79044C337.737 17.9027 375.476 96.0363 423.952 162.251Z" fill="#F2F2F2"/>
<path d="M330.27 336.178V543.001" stroke="#A4A4A4" stroke-width="3" stroke-linecap="round" stroke-linejoin="round"/>
<path d="M417.767 119.271H411.918C406.607 119.271 402.302 123.715 402.302 129.197V145.757C402.302 151.239 406.607 155.683 411.918 155.683H417.767C423.077 155.683 427.382 151.239 427.382 145.757V129.197C427.382 123.715 423.077 119.271 417.767 119.271Z" fill="#FF0000"/>
<path d="M318.171 561.72C317.281 564.011 311.216 578.064 311.216 578.064L330.814 585.774L336.664 565.69L318.171 561.72Z" fill="#E49D75"/>
<path d="M430.402 541.851L434.433 557.203L416.789 566.112L405.155 553.614L430.402 541.851Z" fill="#E49D75"/>
<path d="M405.115 247.68C403.104 250.079 386.446 270.708 385.252 272.337C384.058 273.967 335.285 289.269 332.713 289.981C330.141 290.692 320.895 294.844 318.291 294.844C315.687 294.844 307.33 291.991 303.868 292.578C300.407 293.165 289.357 299.841 290.423 302.504C291.489 305.167 410.78 296.275 410.78 296.275L423.784 254.496L405.115 247.68Z" fill="#D38D6A"/>
<path d="M428.512 440.417L398.2 601.614" stroke="#E0E0E0" stroke-width="2" stroke-linecap="round" stroke-linejoin="round"/>
<path d="M540.215 177.379H608.77L543.756 440.416H418.111V423.294L488.461 375.071L540.215 177.379Z" fill="#E0E0E0"/>
<path d="M398.224 425.329C401.701 432.666 431.076 535.664 431.837 541.653C428.095 545.706 411.869 554.722 404.939 555.309C393.2 545.772 360.309 465.686 360.309 465.686C360.309 465.686 371.51 399.24 398.224 425.329Z" fill="black"/>
<path d="M539.678 327.211C542.226 330.338 550.471 376.485 551.697 388.421C553.579 407.181 518.348 434.659 468.614 434.659C452.197 434.659 397.839 430.879 382.223 424.791C381.422 434.99 342.048 562.191 337.585 566.798C330.254 568.775 319.413 564.664 316.704 561.835C313.996 559.007 335.518 383.284 341.543 371.936C347.569 360.587 470.337 352.059 470.337 352.059L539.678 327.211Z" fill="black"/>
<path d="M454.456 195.494C477.508 209.382 443.038 270.046 438.679 271.593C431.733 270.766 407.543 256.166 403.008 245.422C402.03 238.821 434.769 183.624 454.456 195.494Z" fill="#FFC78E"/>
<path d="M467.228 170.315C505.761 170.315 542.867 322.174 541.344 328.253C538.227 340.719 475.105 363.515 464.977 353.722C439.361 328.973 392.118 170.315 467.228 170.315Z" fill="#FFE4AD"/>
<path d="M536.513 440.417L566.824 601.614" stroke="#E0E0E0" stroke-width="2" stroke-linecap="round" stroke-linejoin="round"/>
<path d="M332.297 586.386L322.241 612.574L267.956 587.602L273.348 576.385L312.995 577.601L332.297 586.386Z" fill="black"/>
<path d="M434.761 555.309L448.102 579.884L395.083 607.611L390.059 596.204L415.988 565.227L434.761 555.309Z" fill="black"/>
<path d="M458.102 153.59C458.975 158.619 464.512 173.781 466.916 176.56C469.319 179.34 456.379 195.585 441.989 192.607C441.556 187.504 439.849 173.053 437.59 170.655C435.33 168.256 458.102 153.59 458.102 153.59Z" fill="#D38D6A"/>
<path d="M445.392 170.644C461.023 165.379 468.078 143.344 461.15 121.428C454.222 99.5114 435.935 86.0131 420.305 91.2784C404.675 96.5437 397.62 118.579 404.548 140.495C411.475 162.411 429.762 175.91 445.392 170.644Z" fill="#E49D75"/>
<path d="M409.145 74.1414C425.106 74.1414 466.122 103.415 466.122 132.87C466.122 148.677 463.414 152.722 462.389 152.722C461.363 152.722 451.459 144.789 451.459 139.09C451.459 133.391 449.512 124.962 447.613 124.962C444.408 124.962 443.936 128.643 435.875 128.643C432.79 128.643 426.997 124.846 426.997 120.487C420.451 120.603 420.451 122.836 411.469 122.836C401.293 122.836 376.294 117.526 376.294 109.37C376.294 103.845 383.273 100.04 390.147 101.388C385.492 98.8156 381.334 93.5052 381.334 89.9898C381.334 85.0682 387.343 81.6685 391.998 81.6685C397.519 81.6685 402.278 84.0673 404.658 86.4164C402.759 83.0251 404.634 74.1414 409.145 74.1414Z" fill="black"/>
<path d="M446.339 141.787C450.911 141.787 454.616 137.961 454.616 133.242C454.616 128.523 450.911 124.697 446.339 124.697C441.768 124.697 438.062 128.523 438.062 133.242C438.062 137.961 441.768 141.787 446.339 141.787Z" fill="#E49D75"/>
<path d="M415.539 324.159H0V336.186H415.539V324.159Z" fill="#A4A4A4"/>
<path d="M379.795 304.622H207.766H207.333H35.3033L0 324.052H207.333H207.766H415.107L379.795 304.622Z" fill="#E0E0E0"/>
<path d="M52.33 336.178V588.429" stroke="#A4A4A4" stroke-width="3" stroke-linecap="round" stroke-linejoin="round"/>
<path d="M85.2616 336.178V543.001" stroke="#A4A4A4" stroke-width="3" stroke-linecap="round" stroke-linejoin="round"/>
<path d="M363.209 336.178V588.429" stroke="#A4A4A4" stroke-width="3" stroke-linecap="round" stroke-linejoin="round"/>
<path d="M318.739 305.97H245.064V311.181H318.739V305.97Z" fill="#A4A4A4"/>
<path d="M166.974 299.485H152.872V316.814H166.974V299.485Z" fill="#A4A4A4"/>
<path d="M299.662 321.785C308.786 321.785 316.183 318.215 316.183 313.811C316.183 309.407 308.786 305.837 299.662 305.837C290.537 305.837 283.14 309.407 283.14 313.811C283.14 318.215 290.537 321.785 299.662 321.785Z" fill="#F2F2F2"/>
<path d="M416.861 255.968C414.458 258.673 399.746 280.51 398.16 282.817C364.507 286.871 320.038 298.012 318.403 298.07C316.768 298.128 298.067 291.875 295.559 292.33C293.051 292.785 287.923 302.066 288.14 303.976C288.356 305.887 303.083 315.069 320.038 314.837C323.243 314.614 324.292 312.81 327.617 312.81C330.943 312.81 406.942 318.873 420.13 311.76C427.302 307.88 447.453 278.624 447.453 276.432C447.453 274.24 416.861 255.968 416.861 255.968Z" fill="#E49D75"/>
<path d="M464.832 202.575C487.877 216.463 453.415 277.127 449.056 278.673C442.101 277.846 417.919 263.247 413.376 252.502C412.398 245.901 445.138 190.705 464.832 202.575Z" fill="#FFE4AD"/>
<path d="M147.671 84.4312H140.917V308.898H147.671V84.4312Z" fill="#E0E0E0"/>
<path d="M147.663 84.4312V196.66V308.898L179.601 296.838V196.66V96.4829L147.663 84.4312Z" fill="#A4A4A4"/>
<path d="M448.631 119.271H442.782C437.472 119.271 433.167 123.715 433.167 129.197V145.757C433.167 151.239 437.472 155.683 442.782 155.683H448.631C453.941 155.683 458.246 151.239 458.246 145.757V129.197C458.246 123.715 453.941 119.271 448.631 119.271Z" fill="#FF0000"/>
<path d="M446.339 123.862C446.339 119.271 447.878 92.2314 433.167 84.2493" stroke="#FF0000" stroke-width="6" stroke-linecap="round" stroke-linejoin="round"/>
<path d="M445.706 155.683C445.706 158.322 444.697 173.285 433.688 173.285" stroke="#A4A4A4" stroke-width="6" stroke-linecap="round" stroke-linejoin="round"/>
</svg>
