<svg viewBox="0 0 960 1080" xmlns="http://www.w3.org/2000/svg"><path d="m235.11 632.6c-50.76-6.24-182.77-124.6-182.77-124.6l97.32 26.56 11.87-22.56s337.45 54 307 64c-15.63 5.12-155.08 30-155.08 30s-53.63 29.63-78.34 26.6z" fill="#f3e7d9"/><path d="m540.07 660.33c-8.89.95-12.22-11.31-4.07-15 97.52-44 283.55-95.47 304-95.47 26.11 0 20.17 34.42 20.17 34.42s22.55-11.87 48.66-13.06-26.11 47.47-51 70-48.7 52.26-61.75 55.78-68.84-59.34-68.84-59.34l-57 8.77z" fill="#f3e7d9"/><path d="m255.26 823.8s-10.13-56.39-53.32-54.66-49.28 65.07-49.28 65.07 45.9 38.17 102.6-10.41z" fill="#f3e7d9"/><path d="m673.76 780.64c-3.49-7.64 30.71-27.08 48-30.34s14.52 8.51 17.7 20c1.37 5 2.27 9.22-1.57 11-12.54 5.89-56.11 9.64-64.13-.66z" fill="#f3e7d9"/><path d="m520.23 778.58s9.18-34.61 39.35-38.94 44.61 44.71 24.93 46.15-47.23 8.65-64.28-7.21z" fill="#f3e7d9"/><path d="m592 777.14c-7.85 0-13.46 14.42 9 10.09s-1.11-10.09-9-10.09z" fill="#f3e7d9"/><path d="m579 973.39s23.14-52.06 54.39-58 40.5 16.36 47.44 29.74c3.74 7.22 12.73 28.26 0 28.26z" fill="#f3e7d9"/><path d="m588.26 970.42s-42.82 1.48-46.26 16.36 59 20.82 71.75 14.87-2.32-16.36-2.32-16.36 43.94-10.41-23.17-14.87z" fill="#f3e7d9"/><path d="m697 980.83c-4.63 0-23.14 16.36 12.73 13.38s25.46-8.92 12.73-11.89-20.8-1.49-25.46-1.49z" fill="#f3e7d9"/><path d="m690.09 1009.09c-5.79 0-27.77-4.46-28.93 4.46s23.14 7.44 34.72 6-0-10.46-5.79-10.46z" fill="#f3e7d9"/><path d="m623 1007.6s-45.13 1.49-26.61 11.9 47.41-2.97 26.61-11.9z" fill="#f3e7d9"/><path d="m528.08 778.58s-24.68-1.44-18 5.77 38.2 7.21 18-5.77z" fill="#f3e7d9"/><path d="m621.33 794s29.21-8 29.21-3.34-8.21 3-8.21 3 43.83 5 24.65 11.08-83.98 2.66-45.65-10.74z" fill="#f3e7d9"/><path d="m135.11 823.8c-20.17 2.25-17.55 19.09 10.8 19.09s20.25-22.56-10.8-19.09z" fill="#f3e7d9"/><path d="m187.76 832.48s-36.45 10.41-8.1 15.61 41.85 0 41.85 0-47.25 10.41 18.9 12.15 62.1-34.7 13.5-34.7-66.15 6.94-66.15 6.94z" fill="#f3e7d9"/><g fill="#f5eade"><path d="m514.39 895.8c-.21-.15-.75-.37-.72-.17l.84.54c-.04-.11-.08-.25-.12-.37z"/><path d="m512.3 895.86a5.6 5.6 0 0 0 1.83 1.32c-.75-.63-.38-.47-1.29-1.17 0-.18.39-.06.71.13-.2-.16.3-.11-.22-.46-.78-.17-.9 0-.46.51a3.05 3.05 0 0 1 -.57-.33z"/><path d="m502.23 902.93.11.08s-.08-.08-.11-.08z"/><path d="m495 903.43a.26.26 0 0 0 .1-.21.28.28 0 0 0 -.1.21z"/><path d="m494 902.22.05.07c-.05-.09-.05-.15-.05-.07z"/><path d="m502.23 902.93-.29-.22c.06.29.18.19.29.22z"/><path d="m513.33 898.73a.72.72 0 0 0 -.14-.25 1 1 0 0 1 0 .16z"/><path d="m504.65 900.77h.05l-.19-.36z"/><path d="m506.44 899.21a7.48 7.48 0 0 0 .71.95 1.56 1.56 0 0 1 -.3-.52c-.1-.12-.24-.26-.41-.43z"/><path d="m510.17 897.28-.05-.13s.03.08.05.13z"/><path d="m503.11 901.46-.15-.26z"/><path d="m432.62 899.19h.14c-.08-.04-.14-.03-.14 0z"/><path d="m436.13 895h.48z"/><path d="m492.17 900.76c.08-.07.05-.06 0 0z"/><path d="m470 892.79c.34.74-.44 1 .06 1.81-.06-.33.32-1.34-.06-1.81z"/><path d="m513.2 898.74a.36.36 0 0 1 -.07.1c.06-.03.08-.06.07-.1z"/><path d="m470 894.6.05.08z"/><path d="m487.55 899.37a2.54 2.54 0 0 0 -.13.34 1.61 1.61 0 0 0 .13-.34z"/><path d="m490.49 902-.05-.14a.21.21 0 0 0 .05.14z"/><path d="m485.15 899.32c0-.08 0-.19-.1-.13v.1c.05-.09.11-.11.1.03z"/><path d="m483.2 898.11-.06.17h.09z"/><path d="m438.45 906.67a4 4 0 0 1 .3-.71c-.29.52-.75.42-.3.71z"/><path d="m512.94 898.47c.17.13.24.21.26.27s0-.07 0-.1a1 1 0 0 0 -.26-.17z"/><path d="m481.58 904.94-.26-.31a.66.66 0 0 0 .26.31z"/><path d="m457.93 905.79v.14s.07-.04 0-.14z"/><path d="m480.31 904.15a1.72 1.72 0 0 0 .14-.6 1.2 1.2 0 0 0 -.15.16z"/><path d="m434.87 905.15c.32.42 1-.54 1.51-.88.63.18-.41.74-.67 1.28.49.08 1.39-.47 1.54-.26-.1.15-.11.24-.31.37.85-.41.95.68 1.93 0a1.57 1.57 0 0 1 -.12.26 10.68 10.68 0 0 1 .81-1.3c.16.09.64-.39.31.26-.08-.08-.24.16-.41.32l.33-.16c-.4 1-.42.16-.84.79.54 0 1.36-.6 1.47-.2-.42.93-.79 0-.87 1l-.23-.57c-.5 1.56-.22-.25-.8 1.4.5.61 1-.07 1.45.51.37-.44.31-.78.67-1.23 1.18-.61-.26 2.64.88 1.61.4-.58.82-1.79 1.06-1l-.47 1c.6.3.76-1.51 1.18-.63-.2.42-.54.28-.49.43.21 1 .44-.58.73-.52l-.13 1a3.5 3.5 0 0 0 1.09-.34 5.08 5.08 0 0 1 1.06-.47 1.48 1.48 0 0 0 -.06.93 1.57 1.57 0 0 1 1.37 0 6.62 6.62 0 0 1 1.36.72l.26-.9c.07 0 .17.39.1.57.35.31 0-.56.1-.92.17-.07.28.5.19.77.53-.76 1.36-1.82 2.12-1l-.07.27c.55.28.14-1.85.72-1.16v.18a4.05 4.05 0 0 0 1.46-.3 1.46 1.46 0 0 1 1.53.3c-.34-1.23 1.16.15.49-1.51.86.57.85.92 1.84 1.1.23 0-.21-1.12-.09-1.41l.44.81-.16-1 .7.88.09-.32c-.11 0-.38-.27-.5-.51.11-.54 1.1.12 1.36.52l.32-1.12a1.41 1.41 0 0 1 .15.77c-.11-1.05.59.78.49-.18a2.74 2.74 0 0 1 -.36-.64.61.61 0 0 0 1-.28l.3.57c.59-.2.91-1 1.43-1.32-.36-.11-.93-1.06-.83-1.25l.61.76c-.24-.57-.37-.19-.58-.94.26 0 .75.83.82 1.17l.05-.45a6.44 6.44 0 0 1 .4.72c-.24-.57 1 .53.51-.43l.17.23c.5-.31.56-.76.93-1-.44-.73-.18-.66-.41-1.32.44.06 1.11.41 1.41.19.05-.5-.26-.67-.38-1.17.38.67.7.42.76 1a2.23 2.23 0 0 0 .75-1.2c-.17-.27-.3-.36-.36-.62s.36.2.48.55v.12c0-.33.22-.4.43-.35a2.36 2.36 0 0 1 .71.47c.49.39.85.71.91-.1v.08c.11-.3.22-.6.35-.9.26.09 0 .59.21 1 .15-.67.39-.69.6-.6s.42.23.62-.21c.25 1.14.51 1 .83.92s.67-.34.82.39v-.53c.16-.52.11.31.18.43 0-.41-.08-.48 0-.77a1.32 1.32 0 0 1 1.5.47c.43.5.77 1 1.16 1.48.28.27 1.24-2.48 1.23-1.11l-.53.85c1.25-.75 1.51.77 2.77.33-.16.18-.31.43-.38.39-.2.71.59.37.9-.12.09.13-.25.47-.32.78s.9-.53.62.14a.44.44 0 0 1 -.23.19c.29-.23.46.39.8-.38.09.53.79.06.78.64.66-.69.3.71 1.05-.37-.75 1.14 0 1.29.54.88-.28.3 0 .47-.42.9.25.14.6.06.92-.56-.38 1.66 1.58-.59.79 1.36a11.83 11.83 0 0 1 2.92-.19c-.62 1.21-.83-.28-1.45 1 .94-.12 1.84-1 2.39-.4.1.25-.34.49-.49.67.91-.18 1.37.7 2.28.24a.75.75 0 0 1 -.26.3c.14 0 .24.29.42-.3l-.18.12c.09-.92 1.09-1.6 1.23-2.05-.74 1.63.5.61-.48 2.65a1.38 1.38 0 0 0 .41-.74c.09.15.07.39-.19.8.58-.19.57-.87 1-.75a5.27 5.27 0 0 1 -.32.71c.37-.51.71-1 1-.69-.06.17-.07.41-.18.38.66.08 1.34-1.34 1.91-.67-.38 1.25.17.46.07 1.57l.42-.27-.09-.57c.32.08.67-.74.92-.35l-.28.45.62-.18-.31-.45c.36-.56.07-1.41.45-1.08-.09.11.29 0 .43.7.17-.35.32-.72.54-.43.06.36-.06 1.24 0 1.48.16-.91.76-.28.92-1.29a3.8 3.8 0 0 0 0 1l.1-.77a1.2 1.2 0 0 1 .18.82c.45.12-.21-1.41.34-.83 0 .07 0 .18-.09.3.56.28 1-.51 1.48-.24.29 1.09-.39.35-.11 1.26.73-.33 1.26-1.57 2-1.45l-.15-.09c-.28-1.57.67.63.83-.19a2 2 0 0 0 .1.7c.53.09.86-.61 1.32-1.36l.06.42c.38.24.75-.08 1.11 0-.08-.4.1-.41-.24-.91.9.9 1.18.37 1.38-.14s.35-1 1.19-.44c-.08.06 0 .44.06.39l.38-.7c-.42-.55-.31-.3-.72-.68-.15-.39-.17-.76 0-.84 0 .54.62.92.95 1.16-.14-.16-.23-.38-.36-.55 1 .82-.75-1.17.11-.75l.19.31c0-.26-.13-.74.07-.77.55.58.09.41.47.94.2-.21-.52-1.52.16-1 .06.24-.07.34 0 .59.79.57.68.36.93.35h.65l-.26-.12c-1.12-1.8.27-.77-.34-2.07.58 1.23.46.59 1.07 1.27.26.1.59.18.73.4-.34-.68.7.14.15-.85.22.19.19-.16.68.39 0-.38-.41-.3-.66-.57-.44-1 1.64 0 1-1.38-.08-.78-.81-1.46-.93-2.13a1.62 1.62 0 0 1 .78.74c.51 0 .57-.18.44-.57a1.73 1.73 0 0 0 .7.39c.06-.22-.8-.72-.3-.7a8.48 8.48 0 0 1 .87.83c-.09-.37-.41-.87-.5-1.22.47.22.57.54.8.8a1.51 1.51 0 0 0 -.64-1.37h-.34c0-.1.62.31.71.45.41.55-.42.16-.68 0l-.07-.25c-1.54-.75-.14.72-.42 1l-1-.82.66.88c-.31-.13-.91-.49-1-.73-.64-.17.24.43-.44.19a.35.35 0 0 1 -.17-.13l.16.4c-.18-.19-.72-.5-.5-.5-.8-.11.35 1.1-.49.63v-.08c0 .7.68.61 1.23 1.65-.64-.41-1.28-.82-1.91-1.24l.66.64c-.06 0-.2.06-.45-.2.32.58.32.24.67.73-.81-.36-.26.85-1.35-.11.42.56.57.17.71.73-1.18-1-.06.45-.76.11-.51-.64 0-.49-.72-.84.83 1.1-.56.11-.53.44.73.82 0 .65-.08 1.14-.22-.3-.89 0-1.38-.18l-.1-.15c.6.92.19.94.11 1.27a2.94 2.94 0 0 1 -.52-1.11l-.18.13a1 1 0 0 1 .14.7l-.4-.72c-.2.2 0 1.16-.6.85.34.69 1.35 1.7 1.19 2.37a3.69 3.69 0 0 1 -.55-1.17c0 .06 0 .36-.11.24l-.18-.69c-.31-.19.19.55 0 .57-.28-.53-.29-.32-.49-.75 0-.07.22.16.16-.07a1.39 1.39 0 0 1 -.78-.61c.17.29.36.71.29.83-.24.18-.4-.59-.68-.78.12.4-.23.08.13.88-.08 0-.27-.34-.39-.54 0 .41-.61.36-.1 1.17h.06a.09.09 0 0 1 0 .05c-.08.5-.38.51-.7.42s-.65-.27-.85 0l-.08-.29c-.2.41-.59.4-.67 1.06-.09 0-.33-.49-.36-.85-.18.26-.15.59-.57.17.13-.55-.16-.44.16-.41-.34-.21-.46-.67-.65.19 0-.77-.34-.91-.45-.66l.27.5a.35.35 0 0 1 -.43 0v-1c-.35-.6-.53-.07-.76.36s-.45.75-.69-.25c-.14.7.33.47.21 1.29-.29-.11-.57-1.53-.65-1.55-.34-.57-.37 1.44-.76 1 0 .36.05 1.31-.3 1.63-.3-.14-.25-1.5-.06-1.78.07 0 .1.09.09.21a.66.66 0 0 0 .13-.67l-.05.36c-.12-.37-.49-.35-.35-.93a.6.6 0 0 0 0 .77c-.3-.52-.54-.06-.85-.46 0 .21 0 .63 0 .62-.47-.52-.33.63-.73.73-.11-.57.29-1.27-.14-.87a1.75 1.75 0 0 1 .26-1.21c-.44.64-.48-.55-.6-.71l.21-.25c-.13.15-.2.12-.27.1l-.08.72c-.06-.15-.14-.17-.07-.46a9.76 9.76 0 0 1 -.55 1.74c0-.38-.5.28-.3-.65.32.41.21-.92.57-1-.09.1-.16.07-.22-.07a.55.55 0 0 1 .1-.23c-.12-.91-.45 1-.84.86.21-.49.22-1 .12-.91.15.06-.19.87-.46 1.21-.12-.48-.37.19-.5.1l.1.24c-.23.48-.34.37-.58.46.12-.39.26-.21.26-.4-.54.8-.12-1.06-.62-.58 0-.39.37-.94.36-1.21-.57.5 0-.81-.56-.42a1.57 1.57 0 0 1 -.62 1.08l.72-.23-.76.8c.16.08.53-.26.57-.11a1.32 1.32 0 0 0 -.46.89c.21-1.08-.71.37-.68-.41l.76-1.6c0-.86-1.05.49-1.34-.16v.36c-.39.59-.35-.08-.65.09a3.73 3.73 0 0 0 .42-1.11c-.2.4-.33-.24-1 .77l.17-.81c-.23-.5-1.31 1.2-1.6.79.45-.48.49-.94 1-1.19-.13-.07-.19-.24-.4.11.12-.36-.77.46-.6-.09-.19.18-.53.7-.66.57a1.56 1.56 0 0 1 .16-.25c-.15.25-.44.2-.66.83.58-1.81-1.2-.59-.72-2.16a3.68 3.68 0 0 1 -1.15-.2c.11-.14.16-.25.18-.17-.09-.7-1.11 1.32-1.21.53.27-1 .48-.31.54-.7.94-1.71-.66-.08-.4-1.23l.13-.06c.09-.71-.93.32-1.24 0a1.21 1.21 0 0 0 .14-.26 2.79 2.79 0 0 1 -1.86.86c.44-.63.34-.28.6-1-.22 0-.49 1.14-.9 1.18a5.62 5.62 0 0 1 .27-1.65l.35.11c.27-1.06-.46-.16-.56-.4l.2-.42c-.6-.08-1 1-1.55.73l-.07.35c-.67 1 0-.71-.62 0l.27-1.16a8.45 8.45 0 0 1 -1.47 1 5 5 0 0 1 1.42-1.51.81.81 0 0 0 -1 .4c.11-.09.3-.34.34-.14-.51.83-.93 1.17-1.33 1.09.53-2.24-1-.76-1.08-2.58a1 1 0 0 1 -1.26.08 2.18 2.18 0 0 0 -1.36-.41c.38 1.77-.29.07-.16 1.9-.2.13-.28.1-.31 0q-.34-.52-.72-1.05c-.21-.52.17-.42.12-.83-.52-.11-.28-.76-.68-1.22.14.65-.08.94-.4.75.17.26.34.5.51.78-.55 1.06-.83-1.43-1.4-.35l.13-.61c-.32.39-1.43.25-1.37 1.8-.12-.18-.34-.64-.22-.82-.45 0-.82.54-1.14 1s-.6.81-1.08.51l-.12-.43c-.1.18.08.87-.28.54-.07-.18-.13-.44-.2-.43 0 .17-.05.88-.34.74l-.06-.53c-1-.15-.57 1.64-.93 2.22a2 2 0 0 0 -1.77-1.23l-.08-.17c-.88.34-.67 1.73-1 2.58-1.19-.93-1.66.4-2.67.11a1.93 1.93 0 0 1 .52 1.05c-.29-.13.12 1-.53 0h.06c-.75-.92-.85-.49-1.08-.38l.81 1.36c-.9-.8-1.15-.38-1.36 0s-.4.81-1 0c.06.42-.11.49-.07.91l-.37-.77a1.06 1.06 0 0 0 -1 .35l-.15-.59c-.25 0 .62 2.38.37 2.53l-.52-1.16c-.47.22-1.21-.74-1.36.49a1.79 1.79 0 0 1 -.06-.61c-.22 0-1-.62-.55 1-.23-1.11-.49 0-.7.5l-.08-.83c-.06 1.09 0 1.38-.33 1.73-.09-.09-.14-.65 0-.46-.3-.39-.12.81-.49.39l.07-.54c-.27 0-.22.24-.33.87-.16.34-.55-.19-.61-.94 0 .46-.15 1.09-.32.88a1.16 1.16 0 0 1 .06-.55c-.44-.53-.68.94-1 .12a2 2 0 0 0 0-.5c.33 0 .61.1.58.16a6 6 0 0 1 0-2c-.18.56-.61 1.8-.86 1.42 0-.07 0-.14 0-.26v-.09c-.05-.08-.11 0-.17.12-.07-.13-.11-.23-.18-.24 0-.63-.24-.36-.35-.43-.11.84-.26.67-.21 1.39 0-.07 0-.1.13-.11a.14.14 0 0 0 .07-.08v.07h.34c-.15.42-.33.78-.41.28-.14.52-.3 1.06-.39 1.3a18.89 18.89 0 0 1 -.12-2.6c-.49.42-.86.1-1.64 1.5-.18.15 0-.47.08-.72s.18-.08.29-.28c-.35.31-.66 0-1.17.91 0-.6.58-.85.16-.87l.19-.28c.11-1-.46-.39-1.07-.08s-1.36.57-.88-.59a1.19 1.19 0 0 1 -.2.36.88.88 0 0 0 -.61-.63 6.33 6.33 0 0 0 -.62-.48 1.15 1.15 0 0 1 -.51-.6 1 1 0 0 1 .2-1c.17-.39-.48-.11-1.06-.07l.81-.41c-.36 0-.71.07-1.07.09s0-.47.39-.79.72-.62-.05-.71l-.57.22c.05-.22-.49-.58.2-.67-.12 0-.64 0-.34-.09l.46-.09c-.3-.11-.58-.24-.88-.37.29-.43 1.87-.2 1.91-.69a4.51 4.51 0 0 0 -1.72-.34 1.22 1.22 0 0 1 -.76.23l-.26-.2c-.7 0-1.4-.08-2.06-.06a2.79 2.79 0 0 0 -1.72.61c.3.16.6.29.89.42l-.65.22-.09-.41c-.61.29 0 .4.37.51a1.66 1.66 0 0 0 -.72.29c.47.1.93.19 1.39.26-.53.15-1.1 0-1.35.33.64.1 1.17-.4 1.63-.13-.58.31-1.1.36-.52.5a1.12 1.12 0 0 1 -.76 0c.48.15.3.58 1.06.52-.7.41.4.68-.88 1a2.5 2.5 0 0 1 1.24.27c-1.64.14.18.79-1.44 1.3 1.42-.24 1.05.8 2 .93-.11 0-.34.08-.3 0 0 .33-.29.61-.42.92 1.05-.54 1.52-.27 2.25-.47-.77.93-1.28.56-2.14 1.24.79-.52 1.16 0 1.75-.51a3.56 3.56 0 0 1 -.83 1.09c1.21-.84.38.07 1.23-.3-.3.79-1 1-.35 1a.76.76 0 0 1 -.5.43 1.14 1.14 0 0 1 -.34.16zm10.7 2.45h-.2zm.79 0a.87.87 0 0 0 -.34 0c0-.29 0-.59.11-.57-.05.17.12.35.23.6zm-.94-5.9c.1-.12.11 0 .1.22a.54.54 0 0 0 -.16.09v.1c.01-.11.03-.27.06-.38z"/><path d="m445.13 902.8s0 .05 0 .05 0 .14 0 .2l.07-.26z"/><path d="m502.36 903a.26.26 0 0 1 .07.1z"/><path d="m457.38 906.58-.11-.19.03.2z"/><path d="m507.09 903.75a.59.59 0 0 0 .17.15 1.47 1.47 0 0 0 -.17-.15z"/><path d="m508.64 902.83.39.07a1 1 0 0 0 -.39-.07z"/><path d="m510 902.21c-.09-.12-.16-.2-.23-.28z"/><path d="m488.72 907.38s0 0-.07 0-.07.09.07 0z"/><path d="m495.57 906.66a2.26 2.26 0 0 1 -.22.39c.11.07.2.09.22-.39z"/><path d="m495.05 907c.11.17.21.14.3 0-.09 0-.2-.11-.3 0z"/><path d="m514.08 897.71.07-.05a.35.35 0 0 1 -.11-.07z"/><path d="m514 897.59v-.12s0 .06 0 .12z"/><path d="m513.89 897.23.1.24c.01-.05.09-.09-.1-.24z"/><path d="m512.72 899.05.24.19a2.49 2.49 0 0 0 -.24-.19z"/><path d="m512.46 899.55c.13-.06.72.12.68-.15l-.18-.16c.31.35-.84-.1-.5.31z"/><path d="m508.18 898.76.45-.12c-.29-.17-.67-.4-.61-.58-1.02-.3.61.41.16.7z"/><path d="m507 899.27c.05-.25-.32-.34-.44-.48.1.3.13.38.44.48z"/><path d="m499.6 903.16-.13-.76c-.13.13.05.29.13.76z"/><path d="m498.4 907.35.24.47.01-.71z"/><path d="m496.98 901.96.06-.11-.23.29z"/><path d="m483.94 897.7-.45.83c.19-.08.77-.97.45-.83z"/><path d="m476.92 895.1c.08-.47 0-.85-.31-.44.15.11.19.52.31.44z"/><path d="m455.17 899.1-.06-.34-.06.35z"/><path d="m520.25 915.18c-.23-.14-.79-.32-.75-.09l.88.48c-.05-.12-.09-.26-.13-.39z"/><path d="m518.1 915.56a4.58 4.58 0 0 0 1.91 1.2c-.78-.58-.4-.47-1.35-1.12 0-.19.41-.13.73 0-.21-.15.31-.16-.24-.48-.79-.08-.92.13-.45.65a1.75 1.75 0 0 1 -.6-.25z"/><path d="m507.05 925.44.14.07a.23.23 0 0 0 -.14-.07z"/><path d="m498.46 926.45c.07 0 .11-.12.12-.21-.07.07-.12.12-.12.21z"/><path d="m497.16 925.2a.29.29 0 0 0 .07.08c-.02-.09-.04-.15-.07-.08z"/><path d="m507.05 925.44-.34-.18c.12.3.21.17.34.18z"/><path d="m519.22 918.64a.57.57 0 0 0 -.15-.25 1.11 1.11 0 0 1 0 .17z"/><path d="m509.84 922.72.05-.05a2.9 2.9 0 0 0 -.21-.34z"/><path d="m511.84 920.61c-.07 0 .54.61.79.88-.23-.27-.32-.41-.33-.5a4.42 4.42 0 0 0 -.46-.38z"/><path d="m515.88 917.6v-.13a.89.89 0 0 1 0 .13z"/><path d="m508.07 923.76a2.88 2.88 0 0 0 -.18-.25 1.44 1.44 0 0 0 .18.25z"/><path d="m426.62 919h.15c-.09 0-.15 0-.15 0z"/><path d="m430.33 914.52.05.05h.47z"/><path d="m495 923.59c.1-.05.06-.05 0 0z"/><path d="m468.89 912.76c.42.73-.51 1 .11 1.8-.09-.32.4-1.34-.11-1.8z"/><path d="m519.08 918.67a.26.26 0 0 1 -.06.13c.06-.04.08-.08.06-.13z"/><path d="m469 914.56.06.07z"/><path d="m489.51 921.47a2.11 2.11 0 0 0 -.14.35 2 2 0 0 0 .14-.35z"/><path d="m493 924.69-.06-.15a.21.21 0 0 0 .06.15z"/><path d="m486.74 921c0-.09 0-.2-.11-.16a.22.22 0 0 0 0 .1c.06-.05.13-.07.11.06z"/><path d="m484.49 919.41-.06.17h.1z"/><path d="m432 928.25a4.16 4.16 0 0 1 .39-.67c-.39.48-.95.27-.39.67z"/><path d="m518.81 918.42c.18.11.26.19.27.25a.37.37 0 0 0 0-.11.81.81 0 0 0 -.27-.14z"/><path d="m482.8 926.38-.3-.36a.87.87 0 0 0 .3.36z"/><path d="m454.85 928.08v.14c.01 0 .03-.05 0-.14z"/><path d="m481.35 925.34a1.76 1.76 0 0 0 .14-.62l-.17.15z"/><path d="m428.37 925.82c.29.51 1.06-.36 1.65-.61.6.36-.51.71-.85 1.23.46.2 1.51-.19 1.66.07-.13.13-.14.22-.37.31 1-.25.87 1 2.05.51a1.17 1.17 0 0 1 -.14.25 8.94 8.94 0 0 1 1-1.16c.18.13.76-.27.34.33-.08-.1-.28.11-.48.24l.38-.09c-.52.93-.48.06-1 .63.6.08 1.52-.24 1.62.19-.56.89-.86-.27-1 .77l-.2-.68c-.69 1.53-.21-.33-1 1.27.46.8 1 .19 1.56.87.46-.38.41-.73.86-1.12.72-.15.56.5.44 1.13s-.22 1.2.46.75c.5-.53 1.07-1.68 1.31-.85l-.61 1c.69.4 1-1.38 1.44-.37-.27.38-.67.14-.61.32.2 1 .55-.47.9-.39l-.21 1a19.85 19.85 0 0 0 2.63-.56c-.08.3-.27.61-.11.93a2.24 2.24 0 0 1 1.65.07 6.86 6.86 0 0 1 .83.38l.8.4.34-.9c.09 0 .19.39.1.56.41.31 0-.56.15-.91.21-.08.33.49.2.76a4.42 4.42 0 0 1 1.21-1.07 1 1 0 0 1 1.35.06l-.09.28c.64.24.23-1.88.9-1.17l-.06.17c1.25 0 2.21-1.08 3.52-.25-.36-1.23 1.33 0 .63-1.59 1 .48.94.85 2.07.9.27-.05-.21-1.14 0-1.45l.48.79c0-.34-.1-.69-.16-1l.77.82.11-.36c-.12 0-.42-.22-.55-.45.14-.59 1.25 0 1.53.34a11.74 11.74 0 0 0 .4-1.23 1.34 1.34 0 0 1 .16.8c-.1-1.09.64.73.55-.27-.18-.13-.29-.47-.39-.62a.81.81 0 0 0 1.18-.46l.32.56c.68-.31 1.05-1.19 1.67-1.66-.4-.06-1-1-.91-1.19l.67.71c-.26-.57-.42-.14-.63-.91.3-.09.83.75.9 1.11l.07-.49a7.44 7.44 0 0 1 .43.7c-.25-.57 1.08.4.6-.56l.19.22c.61-.45.66-.9 1.11-1.3-.48-.69-.19-.69-.44-1.34.52 0 1.28.26 1.65-.08.07-.55-.3-.66-.43-1.17.43.64.81.33.88.93a2.81 2.81 0 0 0 .9-1.4c-.21-.25-.36-.33-.44-.58s.43.15.58.49v.09c.12-.68.8-.43 1.37-.09s1 .65 1.1-.22v.09a7.27 7.27 0 0 1 .39-1c.31.07 0 .59.28 1 .17-.69.46-.7.71-.66s.5.21.74-.24c.31 1.11.63 1.05 1 .88s.8-.33 1 .4v-.53c.19-.51.14.31.23.44 0-.41-.11-.48 0-.77a1.19 1.19 0 0 1 1 0 3 3 0 0 1 .86.53c.26.27.5.57.73.85l.34.39a5 5 0 0 0 .35.41c.35.32 1.4-2.39 1.43-1l-.6.81c1.45-.6 1.8 1 3.25.79-.18.16-.35.4-.43.34-.21.72.68.49 1 0 .11.16-.27.47-.35.77-.05.49 1-.4.71.26 0 .11-.18.15-.25.17.33-.19.54.49.9-.27.12.57.91.2.91.8.73-.61.36.81 1.19-.21-.84 1.08 0 1.36.62 1-.31.28 0 .5-.46.89.29.19.69.16 1-.45-.42 1.7 1.79-.36.92 1.56a15.26 15.26 0 0 1 3.32.25c-.69 1.16-1-.42-1.65.83 1.07 0 2.09-.77 2.74-.08.12.27-.38.46-.56.63a2.44 2.44 0 0 1 1.31.39 1.7 1.7 0 0 0 1.34.14.66.66 0 0 1 -.3.27c.16 0 .28.33.49-.25l-.21.1c.1-.92 1.25-1.51 1.43-1.94-.86 1.57.58.68-.56 2.64a1.14 1.14 0 0 0 .48-.71c.11.16.09.4-.22.8.68-.15.67-.84 1.17-.68-.08.29-.22.37-.37.69.43-.48.83-1 1.19-.6-.07.17-.08.41-.21.36.78.15 1.58-1.25 2.26-.55-.44 1.24.21.47.1 1.59l.5-.26-.11-.57c.39.11.81-.73 1.1-.33l-.33.44.74-.17-.37-.44c.42-.56.07-1.42.53-1.08-.1.11.35 0 .52.7.2-.35.39-.71.65-.42.07.36-.06 1.23 0 1.48.19-.92.92-.31 1.11-1.31a3 3 0 0 0 0 .94l.12-.77c.19.23.22.35.22.82.55.1-.26-1.41.41-.84-.05.07 0 .18-.11.3.67.29 1.16-.55 1.77-.32.36 1.08-.46.37-.12 1.27a4.37 4.37 0 0 0 1.18-1 1.93 1.93 0 0 1 1.15-.67l-.18-.07c-.35-1.56.8.56 1-.29a1.69 1.69 0 0 0 .13.7c.63.06 1-.73 1.52-1.57l.08.42c.45.19.88-.19 1.3-.18-.1-.41.11-.44-.28-.91 1 .75 1.35.17 1.57-.4s.36-1.17 1.33-.7c-.09.08 0 .46.07.4l.43-.81c-.49-.5-.35-.26-.82-.58-.18-.38-.21-.76-.06-.88 0 .57.71.86 1.09 1-.16-.14-.27-.36-.42-.51 1.13.67-.85-1.1.1-.85l.22.29c0-.28-.16-.76.07-.84.62.52.1.43.54.92.21-.26-.6-1.52.17-1.15.06.25-.08.39 0 .64.89.45.76.25 1 .19l.6.07-.28-.07c-1.26-1.72.28-.88-.39-2.18.64 1.23.51.56 1.17 1.17.29.06.65.07.81.29-.4-.68.73 0 .12-1 .25.17.2-.2.75.29 0-.42-.46-.24-.73-.49-.47-1 1.74-.3 1-1.72-.09-.84-.9-1.48-1-2.21.5.07.83.68.83.68.53 0 .61-.3.45-.73a1.52 1.52 0 0 0 .75.31c0-.26-.86-.66-.33-.73a6.67 6.67 0 0 1 .92.78c-.1-.4-.44-.9-.54-1.29.49.16.61.52.85.77a1.57 1.57 0 0 0 -.7-1.45l-.35.06c0-.12.65.25.75.39.43.55-.44.26-.71.14l-.07-.28c-1.62-.57-.14.86-.44 1.2l-1-.75.71.87c-.33-.08-1-.37-1-.64-.67 0 .25.44-.46.31a.28.28 0 0 1 -.19-.12l.18.43c-.2-.18-.78-.42-.54-.47-.86 0 .39 1.18-.52.82v-.07c0 .79.74.55 1.33 1.59-.7-.32-1.38-.65-2.06-1l.71.58c-.07 0-.2.11-.49-.12.36.58.35.19.75.67-.88-.22-.29 1-1.48.16.47.53.62.08.78.67-1.3-.9-.06.51-.82.29-.55-.59 0-.54-.79-.76.92 1-.62.24-.59.59.8.73 0 .73-.07 1.28-.25-.27-1 .13-1.56.1l-.11-.15c.68.88.24 1 .14 1.36a2.46 2.46 0 0 1 -.6-1.07l-.21.16a.84.84 0 0 1 .16.72l-.45-.69c-.25.24 0 1.24-.68 1 .4.65 1.56 1.54 1.38 2.26a3.26 3.26 0 0 1 -.64-1.13c0 .07 0 .37-.12.27l-.22-.69c-.35-.13.23.55 0 .59-.32-.5-.34-.28-.57-.69 0-.07.26.12.18-.1a1.34 1.34 0 0 1 -.9-.5c.19.27.42.67.34.81-.29.23-.47-.54-.8-.69.14.4-.26.14.17.92-.1.06-.32-.3-.46-.5 0 .42-.72.46-.11 1.22h.07s0 0 0 .05c-.09.53-.46.57-.82.54s-.78-.19-1 .1l-.1-.28c-.24.43-.7.45-.79 1.15-.1 0-.39-.45-.43-.8-.22.26-.18.6-.69.2.17-.56-.19-.43.2-.43-.41-.18-.56-.63-.78.24 0-.77-.42-.89-.54-.64l.32.49a.53.53 0 0 1 -.51.09l-.05-1c-.41-.55-.64 0-.9.39s-.54.77-.83-.23c-.17.71.39.46.26 1.29-.36-.12-.7-1.5-.79-1.53-.42-.58-.44 1.43-.92 1 0 .35.07 1.31-.34 1.62-.36-.15-.31-1.51-.08-1.78.08 0 .11.08.1.2a.58.58 0 0 0 .16-.66l-.07.36c-.14-.37-.58-.36-.42-.94a.53.53 0 0 0 0 .77c-.37-.52-.65-.06-1-.49 0 .21 0 .63 0 .62-.56-.55-.38.62-.86.69-.15-.57.34-1.26-.18-.88-.19-.41.14-.93.3-1.2-.52.62-.58-.59-.73-.77l.25-.22a.27.27 0 0 1 -.32.07l-.08.72c-.08-.15-.17-.18-.09-.47-.24.42-.23 1.17-.64 1.71-.05-.39-.6.23-.37-.68.39.44.24-.92.67-1q-.15.14-.27-.09a.42.42 0 0 1 .13-.23c-.17-.93-.54 1-1 .79.24-.48.24-1 .13-.92.17.09-.21.87-.53 1.18-.15-.51-.44.16-.59.05l.11.25c-.26.47-.39.34-.68.41.15-.39.31-.19.31-.39-.62.75-.16-1.08-.74-.68 0-.4.41-.91.39-1.2-.65.44 0-.84-.66-.51-.23.68-.12.54-.71 1l.85-.13-.88.72c.19.11.61-.19.67 0-.45.43-.36.28-.53.86.22-1.1-.82.28-.8-.52l.86-1.56c0-.9-1.22.34-1.58-.38v.37c-.45.56-.41-.13-.75 0a3.5 3.5 0 0 0 .46-1.1c-.23.38-.39-.31-1.1.64l.18-.82c-.28-.57-1.48 1.05-1.82.57.51-.44.55-.92 1.11-1.09-.15-.1-.22-.29-.46 0 .13-.36-.87.36-.68-.2-.22.17-.6.66-.74.5a1.15 1.15 0 0 1 .17-.24c-.17.24-.49.14-.73.77.62-1.82-1.38-.83-.87-2.41a5 5 0 0 1 -1.31-.4c.13-.13.18-.24.2-.15-.12-.75-1.24 1.21-1.37.37.29-1 .55-.25.6-.66 1-1.66-.75-.19-.47-1.36h.15c.08-.73-1.06.2-1.42-.2a.86.86 0 0 0 .16-.25 3 3 0 0 1 -2.13.63c.49-.6.39-.24.68-1-.25 0-.55 1.12-1 1.1a4.83 4.83 0 0 1 .29-1.66 2.86 2.86 0 0 1 .41.15c.3-1.06-.54-.22-.66-.48l.23-.41c-.7-.16-1.19.92-1.8.55l-.06.36c-.78.92-.07-.73-.74 0l.29-1.15a8.85 8.85 0 0 1 -1.71.87 4.84 4.84 0 0 1 1.64-1.4 1 1 0 0 0 -1.2.31c.14-.08.35-.32.4-.11a3.06 3.06 0 0 1 -.82.83.88.88 0 0 1 -.74.18c.58-2.21-1.18-.86-1.34-2.64a1.42 1.42 0 0 1 -1.52 0c-.25-.11-.51-.24-.78-.33a2.08 2.08 0 0 0 -.86 0c.49 1.75-.34.07-.16 1.89-.24.14-.33.12-.36 0-.28-.35-.58-.69-.9-1-.26-.52.21-.43.14-.83-.63-.09-.36-.76-.85-1.17.18.64-.07 1-.46.8.22.24.42.49.63.73-.64 1.12-1-1.36-1.69-.24l.14-.62c-.37.39-1.66.45-1.56 2-.14-.18-.41-.62-.27-.81-.55.07-1 .63-1.3 1.15s-.69.91-1.25.68l-.14-.43c-.12.19.11.89-.3.6-.08-.16-.15-.42-.24-.4 0 .18 0 .92-.36.82l-.08-.54c-.56 0-.73.44-.79 1a3.83 3.83 0 0 1 -.23 1.49 2 2 0 0 0 -2-1l-.1-.15c-.92.48-.77 1.92-1.14 2.88a1.37 1.37 0 0 0 -1.57 0 2.37 2.37 0 0 1 -1.44.52 1.61 1.61 0 0 1 .56 1c-.32-.09.11 1.05-.59.06h.07c-.82-.87-.95-.39-1.22-.23l.88 1.32c-1-.68-1.3-.25-1.56.21s-.49 1-1.19.14c0 .42-.16.53-.13 1l-.4-.75a1.64 1.64 0 0 0 -1.22.49l-.15-.6c-.3.07.62 2.4.32 2.58l-.57-1.13c-.26.14-.64 0-1-.07s-.56 0-.68.68c0-.18-.12-.54-.05-.61-.27.08-1.16-.61-.71 1.07-.24-1.1-.59 0-.86.56l-.07-.84c-.11 1.1-.09 1.43-.46 1.73-.11-.1-.15-.66 0-.45-.35-.42-.17.8-.6.38l.1-.54c-.32-.05-.28.24-.43.87-.2.35-.65-.17-.7-.92 0 .47-.22 1.09-.41.85a1.08 1.08 0 0 1 .09-.55c-.49-.61-.85.91-1.16.07a1.74 1.74 0 0 0 0-.5c.4.05.73.12.7.17 0-.77-.26-.92 0-2-.25.57-.81 1.79-1.09 1.42a2.1 2.1 0 0 1 0-.27v-.08c-.06-.08-.13 0-.2.1-.07-.15-.11-.26-.19-.29.08-.63-.25-.41-.38-.47-.17.82-.34.65-.32 1.37 0-.07 0-.1.16-.11s.06 0 .09-.07v.07a2 2 0 0 1 .39 0c-.19.39-.4.71-.48.21-.2.51-.42 1-.54 1.28a16.23 16.23 0 0 1 0-2.6c-.54.27-1-.07-2 1.23-.22.11.07-.49.15-.73s.2 0 .34-.22c-.41.23-.71-.26-1.38.63 0-.6.72-.75.22-.84l.25-.25c.05-.46-.05-.61-.27-.63a3.91 3.91 0 0 0 -1 .24c-.75.25-1.49.18-1-.92a.86.86 0 0 1 -.22.34 1.85 1.85 0 0 0 -.32-1c-.17-.27-.47-.46-.67-.73a2.52 2.52 0 0 1 -.51-.86 1.53 1.53 0 0 1 .24-1.14c.18-.43-.49-.25-1.07-.32l.84-.33-1.11-.09c-.45-.18 0-.57.44-.92s.73-.66 0-.89l-.58.19c.07-.27-.48-.77.22-.81-.11 0-.64 0-.34-.15l.47-.06-.86-.55c.3-.51 1.87-.07 1.93-.72a3.51 3.51 0 0 0 -1.71-.56c0 .08-.29.25-.77.26l-.24-.25c-1.39-.08-2.84-.41-3.8.46.28.19.58.35.87.51l-.67.2-.06-.45c-.63.29-.05.43.34.59a1.61 1.61 0 0 0 -.73.27c.46.14.92.28 1.38.4-.54.12-1.1-.13-1.37.25.64.18 1.2-.35 1.64 0-.61.31-1.12.31-.55.53a1 1 0 0 1 -.76 0c.47.21.29.67 1 .69-.75.38.36.81-.94 1 .33 0 1.11.25 1.21.46-1.65-.06.14.89-1.52 1.23.73 0 1 .22 1.13.52s.32.65.79.79c-.11 0-.35 0-.3 0 0 .35-.36.6-.53.92 1.1-.4 1.56 0 2.34-.1-.85.86-1.36.37-2.29.93.86-.41 1.19.28 1.83-.21a3.11 3.11 0 0 1 -1 1c1.32-.65.36.16 1.3-.06-.38.77-1.12.82-.45 1-.17.68-.88.5-.88.5zm11.83 4.74h-.24zm.94.06a1.2 1.2 0 0 0 -.4-.06c0-.29.06-.59.15-.57-.07.19.11.37.25.63zm-.86-6c.12-.1.12.07.1.25a.42.42 0 0 0 -.18.06v.1c.01-.15.05-.29.08-.4z"/><path d="m439.88 925.67s0 .05-.05.05a1 1 0 0 0 0 .2l.09-.25z"/><path d="m507.21 925.52.08.09z"/><path d="m454.2 928.99-.11-.19.02.2z"/><path d="m512.63 925.4a.8.8 0 0 0 .19.13 1.22 1.22 0 0 0 -.19-.13z"/><path d="m514.32 924.09h.42a1.32 1.32 0 0 0 -.42 0z"/><path d="m515.74 923.15-.26-.26z"/><path d="m491 930h-.08c-.21.05-.09 0 .08 0z"/><path d="m499.13 929.7a1.68 1.68 0 0 1 -.26.38c.13.07.24.1.26-.38z"/><path d="m498.51 930.05c.13.17.25.14.36 0-.11-.05-.24-.12-.36 0z"/><path d="m520 917.36.07-.05-.12-.07z"/><path d="m519.93 917.24v-.12s-.08.07 0 .12z"/><path d="m519.77 916.86.11.26c.03-.06.12-.12-.11-.26z"/><path d="m518.6 919.11.25.18a1.25 1.25 0 0 0 -.25-.18z"/><path d="m518.33 919.72c.14-.1.77 0 .72-.29l-.2-.14c.34.32-.85.04-.52.43z"/><path d="m513.76 919.71.49-.23c-.32-.13-.73-.3-.67-.52-1.14-.11.67.34.18.75z"/><path d="m512.46 920.56c0-.29-.36-.31-.49-.44.12.31.15.39.49.44z"/><path d="m504 926-.17-.75c-.2.18.02.33.17.75z"/><path d="m502.54 930.34.29.44v-.72a2.56 2.56 0 0 1 -.29.28z"/><path d="m500.8 924.98.06-.11-.27.29z"/><path d="m485.33 919.1-.5.8c.22-.05.86-.9.5-.8z"/><path d="m477.24 915.34c.09-.48-.05-.86-.38-.48.14.14.24.54.38.48z"/><path d="m451.94 921.42-.06-.35-.08.39z"/></g><path d="m416.3 698s2-3.28 4.22.4.87 3 .87 3a3.12 3.12 0 0 1 4.1-1.36c2.92 1.12 1.55 3.26 1.55 3.26a7.75 7.75 0 0 1 5.18.76c2.94 1.42 9.58 6.23.69 4.56-8.47-1.62-16.61-10.62-16.61-10.62z" fill="#f3e7d9"/><path d="m435.62 707s2.17 2.17-1.45 2.79a37.91 37.91 0 0 1 -4.33.62s-4.21 3.56-7.1 3.56-10.84 5.03-10.84 5.03a18 18 0 0 1 -3.85 1.4c-1.69.31-7.23 3.09-8.67 1.55s.24-4 2.16-4h1.93s1.2-1.39 5.54-2.63 8.67-2.32 8.67-2.32.72-4.64 3.13-4.64a25.79 25.79 0 0 1 6.38 1.39s2.65-4.64 5.54-4 2.89 1.25 2.89 1.25z" fill="#f3e7d9"/><path d="m426.23 694.58s-.73-3.71 1.44-3.09a3.42 3.42 0 0 1 2.41 2.78s3.85-2.47 4.34 0-.25 3.1-.25 3.1 6.75-1.24 6.27 1.86-1.21 3.4-1.21 3.4 7.47-1.24 7.71.93-1.93 3.4-7.23.31-13.48-9.29-13.48-9.29z" fill="#f3e7d9"/><path d="m444.29 706.34s-.48-5.88 3.85-5.26 1.69 2.48 1.69 2.48.48-4 3.37-3.72 2.89-2.47 5.78-1.54 2.65.62 2.65.62 4.33-4 7.46-3.72 1.69 1.55 1.69 1.55 14.57-4 16.86-3.25-42.64 12.5-43.35 12.84z" fill="#f3e7d9"/><path d="m451.75 711.3s-3.37-4.34.24-4.65a2.64 2.64 0 0 1 3.14 3.1s3.61-3.72 5.53-3.41a8.78 8.78 0 0 0 3.5-.15s.6-4.49 3-3.56a33 33 0 0 1 3.25 1.39 6.83 6.83 0 0 1 3.73-2.78c2.41-.62 1.44.62 1.44.62s11-3.87 13.85-4.49.48 1.24-6.14 3.71c-4.97 1.86-29.61 10.53-31.54 10.22z" fill="#f3e7d9"/><path d="m805.35 837.67c-10.35 0-19 21.35-3.5 21.06 21.97-.41 13.85-21.06 3.5-21.06z" fill="#856792"/><path d="m787.31 850.9s-3.09-5-10.8-5-14.06 13.49-2.31 14.87c8.48 1.03 17.73 1.03 13.11-9.87z" fill="#856792"/><path d="m208.59 790-11.09-119.65 2.55-.4 11.1 119.65z" fill="#f5894e"/><path d="m197.5 670.35s22.83-4.86 28.63-3.14c8.93 2.66-.4 6.65 10.52 8.23s35.75 9.56 35.75 9.56-21.75 19.22-31.85 20.8-6.61-4.89-18.23-3.07c-16.19 2.54-22.16 4.13-22.16 4.13z" fill="#f7bc4b"/><path d="m228.4 668 2.34 35.21 2.73 1.77-2.84-32s.12-4.98-2.23-4.98z" fill="#ce9436"/><path d="m545.01 754.94 5.91-81.16 1.73.21-5.9 81.15z" fill="#f5894e"/><path d="m550.92 673.78s15.63 1 19.28 3.16c5.61 3.39-1 4.33 6 7.37s22.59 12.85 22.59 12.85-16.51 8.73-23.36 7.93-3.84-4.44-11.72-5.36c-11-1.28-15.11-1.32-15.11-1.32z" fill="#856792"/><path d="m571.62 677.85-2.35 23.71 1.61 1.67 1.66-21.7s.63-3.2-.92-3.68z" fill="#665070"/><path d="m445 715.94s1.81-3.71-4.69-3.71-10.48 5.1-10.48 5.1a6.61 6.61 0 0 0 -5.42-1.85c-3.25.46-2.17 6.5-2.17 6.5s-5.41-2.79-8.67-2.33-1.8 4.65-1.8 4.65-1.81-3.25-4.34-2.32-4.33 2.78-2.89 5.1c0 0-9 3.25 0 3.72s14.82-2.8 10.13-2.8" fill="#f3e7d9"/><path d="m442.6 716.87s-1.2-7.43 1.45-7.12 2.41 4 2.41 4a6 6 0 0 1 4.57-.31c2.17.93 1 3.72 1 3.72l4 3.25 4-.62s3.13-1.24 4.34.62 3.61 7.27 3.61 7.27 4.09-2.78 5.3-.93 3.72 7.45 3.72 7.45z" fill="#f3e7d9"/><path d="m391.07 716.25c-4.1 0-11.56 4.33-2.41 6.81s6.5-6.81 2.41-6.81z" fill="#f3e7d9"/><path d="m381.8 722.59c-3.13-1.54-6.51 2.64-3.13 3.25s6.26-1.7 3.13-3.25z" fill="#f3e7d9"/><path d="m415.15 698s-1.45 3.13 2.89 2.2 2.17-3.25 2.17-3.25a16.29 16.29 0 0 0 -3.59-1.21 12.32 12.32 0 0 0 -6.89.29c-5.06 1.8 5.42 1.97 5.42 1.97z" fill="#f3e7d9"/><path d="m348.32 817.62s-6.14-4.64-6.5-7.43 5.78 1.86 5.78 1.86 10.12 3.25 6.5 7.43-5.78-1.86-5.78-1.86z" fill="#f3e7d9"/><path d="m412.85 737.07s0-6.31-4.91-4.37-3.39 7.28-3.39 7.28a19.87 19.87 0 0 0 -9.07.49c-4.15 1.45-1.51 3.88-1.51 3.88s-7.55 0-12.08 2.42.76 3.89.76 3.89-3-.49-9.44 1.94-3.77 5.34-3.77 5.34a9.36 9.36 0 0 0 -8.31.48 5 5 0 0 0 -2.27 6.79 22.83 22.83 0 0 0 -7.55 2.43c-3.39 1.94.76 3.88.76 3.88s-9.44.49-12.84 4.86 5.67 1.45 5.67 1.45-8.69 1.46-10.58 3.88a4.06 4.06 0 0 0 0 4.86s-1.13-1-3.39 2.91a5.56 5.56 0 0 0 .75 6.79s-3.77 2.91-2.26 5.34 3.77.48 3.77.48-1.51 5.83 2.27 8.74 2.64-.49 2.64-.49 2.64 5.83 6 7.28-.38-3.4-.38-3.4-1.88-5.33-4.91-6.79-1.51 0-1.51 0 1.89-6.79-.75-10.67l-2.55-3.89s-1.51-2.42 3.39-5.33 1.51-4.86 1.51-4.86 7.56-2.91 13.22-5.82 4.48-5.86 4.48-5.86 10.19-2.43 10.19-4.86a3.85 3.85 0 0 0 -1.89-3.39s11-3.4 13.22-5.82.38-2 .38-2a26.66 26.66 0 0 1 13.59-6.3c7.93-1 35.11-17.47 27.93-13.59s-7.17 2.03-7.17 2.03z" fill="#f3e7d9"/><path d="m328.28 815.2s9.82 2.91 15.48 8.24 6 6.31 6 6.31 4.16-2.91 9.06 2.91 5.29 6.8 5.29 6.8 3.78-6.31 7.17-3.88a15.59 15.59 0 0 1 4.91 6.3s4.15-3.88 7.93-1.94a18.15 18.15 0 0 1 5.66 4.37s.76-2.91 4.53-1.46 9.44 9.71 9.44 8.25 10.57-4.85 18.5-2.91 10.57 7.28 10.57 7.28 6-4.85 10.57-3.4 8.69 10.68 8.69 10.68-.38-4.37 6.41-5.82 9.06 3.88 9.06 3.88a50.48 50.48 0 0 1 10.45-3.07c5.66-1 12.08 3.88 12.08 3.88s-1.64-1.62 4-2.59 6.29 2.75 6.29 2.75 11.83-1.46 17.87-1.46-3.15-4.36 5.16-3.88 13.59 1 13.59 1 10.07-7.44 21-7.44 4.53 7.12 4.53 7.12 7.17-7.28 15.1-7.77 2.51 2.59 2.51 2.59 13.09-5.17 18.13-5.82 6.41 3.88 13.59 1.94 10.44-1.13 10.44-1.13 1.64-1.27 8.06-1.27a31.6 31.6 0 0 1 12.52 3.1s-5.44-8 6.26-5.58 14.69 7.31 14.69 7.31 2.64-4.37 8.31-1.94 3.4 5.33 3.4 5.33 3-.48 8.68 3.4 4.15 6.31 4.15 6.31a69.74 69.74 0 0 1 8.68 1c6.42 1 10.58 8.9 10.58 8.9s.37-3.4 8.68-3.4a19.85 19.85 0 0 1 13.21 4.85s-2.26-3.4 4.91-7.28 3.33.94 3.33.94 4.42-1.14 8.19 3.71 5.06 4.64 5.06 4.64l-13.18-2s-7.55 7.28-11.33 6.31-7.55-5.34-7.55-5.34a144.82 144.82 0 0 1 -15.86-1 36 36 0 0 1 -13.08-4.57s-5.18-4.29-7.17-6.31c-9-9.12-12.86-7.27-12.86-7.27 3.38-6.19-6.26.46-7.7-.62a26.08 26.08 0 0 0 -11.53-4.88s-9.06 5.82-14.35 4.36a36.22 36.22 0 0 1 -9.06-3.88l-5.33 2.43-10.2-1.46s-10.95 2.1-14 1.13l-4.53-1.45s-4.15 7.44-10.95 7.44-9.06-1.46-9.06-1.46-12.46 7.77-20 4.37-8.3-5.82-8.3-5.82-15.48 11.64-21.14 10.67a35.94 35.94 0 0 1 -8.69-2.42s-4.9 5.33-10.19 4.36-12.08-5.82-21.9-.48-23.4-1.94-23.4-1.94-9.07 6.31-16.62 1-.37-4.86-.37-4.86-15.1.49-17.37-7.27c0 0-14.35 2.91-19.25 1.45s-6.8-2.91-6.8-2.91-14.72-2.43-21.52-5.82-9.06-7.28-9.06-7.28-3.78 5.82-7.17 2.91a30.31 30.31 0 0 1 -5.67-6.79s-7.55 1-13.21-3.89-2.26-6.3-2.26-6.3z" fill="#f3e7d9"/><path d="m394 735.61s-6-5.33-9.81 0 .75 2.92.75 2.92-10.57 1-15.1 5.33-2.64 6.31-2.64 6.31-13.59-1.45-15.48 3.4-.38 5.34-.38 5.34-4.9-.49-7.55 2.42a4.36 4.36 0 0 0 -1.11 1.91 2.31 2.31 0 0 0 1.11 2.46l4.91-2.91s7.17-3.88 7.55-6.31c0 0 13.59-3.88 17.37-7.28l3.77-3.4s15.45-2.42 16.61-10.19z" fill="#f3e7d9"/><path d="m339.23 763.27 4.53 2.43s-4.91 8.73-7.93 8.25c0 0-6 8.73-7.55 7.76l-1.51-1s4.16 4.37 0 7.77-2.26 12.13-2.26 12.13 8.68 13.1 2.64 11.16-3.77-7.28-3.77-7.28-5.29 4.85-4.16-2.43 2.65-16 2.65-16-.76-7.76 4.15-10.68l4.91-2.91z" fill="#f3e7d9"/><path d="m343.76 814.22s4.53-5.33 7.55-2.42 3.78 7.76 3.78 7.76 1.13-5.82 5.28-2.42a31.48 31.48 0 0 1 6.8 8.25s-3.4-5.83 4.15-3.4 7.93 7.28 7.93 7.28 9.06 2.42 15.1 2.42 2.65 3.4 2.65 3.4 12.45-4.37 19.25-2.43 5.66 6.31 5.66 6.31 14-3.88 12.46 1.46-10.19 7.28-15.1 3.39l-4.91-3.88s-17 1.94-21.9-1l-4.9-2.91s-11.71-5.82-13.22-7.76c0 0-8.68.48-12.08-.49a6.21 6.21 0 0 1 -4.15-4.37s-10.95-2.88-14.35-9.19z" fill="#f3e7d9"/><path d="m434.37 840.43s6.6-3 10.95 1c2.64 2.42.75 3.4.75 3.4s11.33-5.83 16.62-4.86 0 6.8 0 6.8 9.43-5.83 12.83-4.86 7.18 5.83 7.18 5.83 5.28-6.8 9.81-3.89-8.68 11.65-16.23 6.31-1.51-.48-1.51-.48-17.75 2.42-20.39-2.43c0 0-10.95 2.43-15.48.49s-13.59-5.37-4.53-7.31z" fill="#f3e7d9"/><path d="m490.62 846.09s-2.64 3.09 3.78 3.44a15.6 15.6 0 0 0 10.19-2.75s2.27 4.46 10.2 3.43 8.68-4.12 8.68-4.12a34.39 34.39 0 0 0 14 .34 62.52 62.52 0 0 0 12.08-3.09s3.77-5.15 8.3-2.06 3-1.72 6.8 1 10.19.34 10.19.34 7.18-4.12 8.69-1.37 9.06.69 9.06.69a11.73 11.73 0 0 1 7.17-.35c4.15 1 10.19-2.4 10.19-2.4s0 2.06 3.4 2.4 8.69-5.15 8.69-5.15-1.89-.34 5.66 1.72 12.46-1.72 12.46-1.72-2.65 2.4 4.9 2.4 7.93-2.4 7.93-2.4 0 2.06 8.31 4.12c0 0 1.51-3.78 6-1.72a27.8 27.8 0 0 1 7.55 5.16s0 2.4 5.29 3.43 1.88-2.74 1.88-2.74 7.18 7.21 11.33 8.24-1.89-3.78-.76-3.43 8.31 5.15 13.22 5.49 2.26-2.4 2.26-2.4-.75 3.09 5.67 4.81 7.55-1.72 7.55-1.72 7.92 7.32 12.07 5.6-.76-3.78-.76-3.78 9.63.91 9.63-1.84-4-1.6-10-2.63-6.8 3.09-6.8 3.09-6.79-9.37-13.58-10.06-9.06 3.78-9.06 3.78-5.29-5.84-9.44-6.18-4.53 1.71-4.53 1.71-4.91-9.27-7.93-9.62-4.15 3.09-4.15 3.09-10.57-3.77-14.73-4.12-3.39 1.38-3.39 1.38-11.71-6.19-21.15-7.22-7.92 4.47-7.92 4.47-11.33-1.72-13.22-.69-.38 4.12-.38 4.12-20.76-2.06-23.78-2.4-2.27 3.78-2.27 3.78-8.68-5.5-16.61-5.16-4.9 6.19-4.9 6.19a18.26 18.26 0 0 0 -11.32-7.19c-7.55-1.37-7.55 4.81-7.55 4.81s-7.93-7.21-11.33-1 0 6.53 0 6.53-1.51-1.37-12.08-2.06-17 2.4-13.21 3.09-4.53-4.81-9.06-4.81-6.8 4.12-6.8 4.12-12.83-.37-6.42 3.41z" fill="#f3e7d9"/><path d="m757 883.18s2.66-11.24 8-3 1.77 4.93 1.77 4.93 0-6.58 8-4.11 18.31 6 18.31 6-3.25-6.85 9.15-6 15.06 2.74 15.06 2.74 3.25-4.66 8.56-3.84 13.29-1.64 13.29-1.64 4.43-8.78 11.52-8.78-5.91 7.13-5.91 7.13 4.43 5.21-6.2 5.21-13 2.19-13 2.19 9.74 3.84-1.48 5.49c-19.66 2.88-22.73-2.2-22.73-2.2s-2.37 5.49-13 3.84a79.94 79.94 0 0 0 -17.13-1.14s-34.55-5.17-14.21-6.82z" fill="#f3e7d9"/><path d="m741.7 852.75c-.85 1.7-2 4.8 5.17 2.17 3.38-1.24 4.7-7 4.7-7s-3.89.38 2.53-2.67 3.73-6.49 3.73-6.49 3 2.29 8.45.38a13.81 13.81 0 0 0 7.45-5.73s-1 4.2 5.41 1.15a54 54 0 0 0 10.15-6.11 73 73 0 0 1 9.47 1.14c3 .77 12.18-4.2 12.18-4.2s-4.4 2.29 3.39 4.58 9.81-3 9.81-3-2.37 4.2 3.72 6.49 7.78-2.29 7.78-2.29 3.38 7.64 11.16 8.4 10 3.6 10 3.6-8.31 1-3.24 4 1.79 9.58 1.79 9.58l1.45 6.19 3.85-2.47s3.06-16.36 1.37-19.41-5.75-6.88-7.78-8.78-5.42-.39-4.74 1.52c0 0-6.61-8.38-11-8a16.88 16.88 0 0 0 -7.27 2.28s-1.69-5.73-6.43-5.73-4.39 2.67-4.39 2.67-5.76-6.11-9.82-5.34a8.59 8.59 0 0 0 -5.75 3.81s-8.79-1.14-12.52-1.14-8.45 5.73-8.45 5.73-.34-2.68-6.43-2.68-7.11 7.26-7.11 7.26-6.42.38-12.85 1.14-4.74 8.4-4.74 8.4-6.51-2.34-8.12.77.08 6.82.08 6.82a8.57 8.57 0 0 0 -3 2.96z" fill="#f3e7d9"/><path d="m738.08 843.46c-2.64-.62-9.87.62-3.13 3.72s5.78-3.1 3.13-3.72z" fill="#f3e7d9"/><path d="m750.61 858c-3.62-1.55-7.83 4.93.24 5.26 7.46.32 3.37-3.7-.24-5.26z" fill="#f3e7d9"/><path d="m316.85 530.26s-1.69 22 13.5 30.39 11 12.66 22.79 15.19 25.32-4.22 24.48-11.82-12.62-15.19-12.62-15.19 5.06-15.19-3.38-24.47-35.49-17.73-44.77 5.9z" fill="#121721"/><path d="m228 578.48s-13.51 24.48-7.6 35.45 30.12 11.22 43.6-12.73c7.37-13.1 14.35-22.79 7.6-34.6s-43.6 11.88-43.6 11.88z" fill="#121721"/><path d="m262.32 448.5s67.68-16.68 111.23-14.83 74.15.93 94.54 19.47 23.18 36.15 5.57 54.69-92.73 38.25-106.66 39.17-22.25.92-29.66-.93-10.14-25.27-10.14-25.27 3.71-1.8-32.44-15.8-67.66-31.47-32.44-56.5z" fill="#f7bc4b"/><path d="m262.32 448.5s67.68-16.68 111.23-14.83 74.15.93 94.54 19.47c0 0-59.43-18.54-97 12.57-19.7 16.3-35 28.52-35 28.52l-8.89 26.57s3.71-1.8-32.44-15.8-67.66-31.47-32.44-56.5z" fill="#ce9436"/><path d="m205.24 437.54s-22.79 29.54-27.85 59.08 1.69 37.13 1.69 37.13-5.91 38 47.26 35.45 50.64-24.48 54-38.83 16-48.95-4.22-75.11-37.96-48.95-70.88-17.72z" fill="#f7bc4b"/><path d="m205.24 437.54s-20.54 23.35-25.6 52.89-.56 43.32-.56 43.32-5.91 38 47.26 35.45 50.64-24.48 54-38.83 16-48.95-4.22-75.11-37.96-48.95-70.88-17.72z" fill="#ce9436"/><path d="m193.43 555.69c-.36 9 0 18.57 24.47 27s31.23-2.53 42.2-4.22 22.79-27 26.16-32.91 8.44-22.79 4.22-38-32.07-27-54-16.88-42.21 43.63-43.05 65.01z" fill="#f7bc4b"/><path d="m199.9 511.24s-19 10.82 5.25 36.14c0 0-9.76-25.45 22.32-51.33 0 0-14.63-13.5-27.57 15.19z" fill="#ce9436"/><path d="m264.6 565.82c-1.11 4.72 7.23-27.62 6.19-45 0 0 7.88 8.44 4.5 23.07l5.06-6.19s-.56 25.87-15.75 28.12z" fill="#ce9436"/><path d="m424.22 463.12s-42.11-10.38-60.59-1.95-5.52 1.95-5.52 1.95l42.78 7.78s-27.23 2.59-35 14.25 58.33-22.03 58.33-22.03z" fill="#ce9436"/><path d="m366.49 295.63s12.36-7.73 25.5 3.86 16.22 26.53 17.77 37.35 19.32 32.16 24.72 46.16 14.69 37.86 2.32 47.13-36.31 10.05-47.9-23.95-16.23-36.32-23.19-49.46-30.9-53.36.78-61.09z" fill="#a96443"/><path d="m366.49 295.63s12.36-7.73 25.5 3.86-3.35 36.32-3.35 36.32l15.45 34.51s-2.46 33.33 0 39.67c5.41 13.91 45.08 10.82 32.71 20.09s-36.31 10.05-47.9-23.95-16.23-36.32-23.19-49.46-30.9-53.31.78-61.04z" fill="#7a462f"/><path d="m409.76 402.26c-9.79.52-4.83 5.65-27.3 23.18-10.16 7.93-23.86 20.44-26.46 25.83-4 8.28 6.08 16.2 10.45 18.7 7.21 4.12 11.89-3.83 38.16-17.74s44-25.76 35.54-39.66-20.6-10.82-30.39-10.31z" fill="#a96443"/><path d="m409.76 402.26c-9.79.52-4.83 5.65-27.3 23.18-10.16 7.93-26.06 22.72-28.67 28.11-1.79 3.72 1.21 10.45 1.21 10.45l53.75-54.56 17.51-7.21z" fill="#7a462f"/><path d="m351.64 456.9c-3.87-4.43-17.43 11.83-19.32 18.14-1.32 4.4-1.82 13-1.7 14.94.26 4 4.38 5.35 9.31-3.64 1-1.87 1.56-4.45 2.33-7.32 2.11-7.88 12.5-18.54 9.38-22.12z" fill="#7a462f"/><path d="m350 456.47s-6.83 5.94-12.42 18.1c-1.08 2.34-4.21 11.65-4.36 17.66a81 81 0 0 0 1.64 16c.73 4.3 3.66 3.85 5.78 2.35.89-.63-.52-13.71-.52-13.71l3.14-7.61a42.28 42.28 0 0 0 0 10.95c.9 7.42 2.51 19.2 5 19.93 1.69.22 4.44.17 4.49-3s-1-11.63-1-11.63.67 8.55 2.81 12.34c.73 1.31 4.45 2.5 6.75 1.34s-.29-6.12-.58-10c-.29-3.67-.74-5.76-.73-6.63 0-1.62 4.53 9.18 4.53 9.18s3.28 4.12 6.57 3.06.1-8.57-.69-12.66-.44-17.95-.44-17.95a67.43 67.43 0 0 1 7-11c4.42-5.45 1.43-14 1.43-14-2.33-7.5-10.12-12.94-28.4-2.72z" fill="#a96443"/><path d="m349.86 454.74s-14.86 13.1-15.08 23.53c0 2.58-2.47 8.9-2.62 14.91s1.94 14.08 2.72 18.72c.72 4.3 4.39 3.87 6.52 2.37.89-.62-1.06-15-1.06-15l2.88-10s-1.3 11.3-1 14.2c.79 3.43 3.57 15.95 6.09 16.68 1.69.22 4.44.17 4.49-3s-1-11.63-1-11.63.67 8.55 2.81 12.34c.73 1.31 4.45 2.5 6.75 1.34s-.29-6.12-.58-10c-.29-3.67-.74-5.76-.73-6.63 0-1.62 3.81 9.6 3.81 9.6s4 3.7 7.29 2.64-8.29-14.55-8.29-14.55l-7.16-27.84 6.3-12.09s7.56-9 7-10.32c-1.88-4.19-4.13-10.07-19.14 4.73z" fill="#7a462f"/><path d="m307.76 274.38s-22.73 2.07-52.87 16-39.89 22.67-38.77 28.47 7 74.91.08 91.14.38 35 .38 35 66.07 17.9 88.09 21.38 51.39-26.08 51.39-26.08.38-2.13-2.52-2.9a5.84 5.84 0 0 0 -3.67.39s1.81-.58 3.87-3.67-.13-13.85-.13-13.85 13.26-30 19.06-42.75 12.37-52.76 10.79-44.85 7.77-28.68 2-36.79-59.15-19.17-77.7-21.49z" fill="#1689cb"/><path d="m278.79 397.24-7 34.77-17.77-10.82 10 22s19.61 13.91 36.71 16.61 41.94-13.62 41.94-13.62-11.42 1.64-17.22 2.8 14.24-7.26 15.84-9.66-.52-8.69-.52-8.69 10.3-23.29 14.8-33.19 10.06-26.89 10.06-26.89 9.14-36.58 4.64-42.88-91.48 69.57-91.48 69.57z" fill="#29abe2"/><path d="m296.17 274.38s-7.26 2.3-7.26 25.48 28 28.63 38.77 29.27 20.75-8.34 24.13-16.5c13.9-33.63-6.96-39.41-55.64-38.25z" fill="#7a462f"/><path d="m366.85 384.91s-44.17 19.09-108.12 4.47l2.94-17.58s35.69 17.47 111.35-2.3z" fill="#3e4c6f"/><path d="m359.92 387.43c-15.5 4.73-42 10-76.93 6.08l16.8-14.7c16.48.6 38.43-.92 66.07-7.52z" fill="#48598b"/><path d="m374.38 361.87s-54.15 17.72-110.72 1.48l3.41-18.9s52.47 13.42 111.25-.55z" fill="#3e4c6f"/><path d="m367.41 363.81a222.61 222.61 0 0 1 -57.33 6.34l25.31-20.23a242.47 242.47 0 0 0 35.22-4.33z" fill="#48598b"/><path d="m257.79 317.78c13.65 27.69 1.55 69.09-21.63 77.27s-25-39.1-21.9-64.54 29.88-40.42 43.53-12.73z" fill="#7a462f"/><path d="m256 314.17s-11.74-17.85-29.62-7.21c-20.35 12.11-23.7 32.71-29.11 46.62s-24.09 36.58-28.59 57.18c-4.19 19.24-12.78 29.24 9.32 38.64 20.77 8.85 44.81-23.18 47.13-31.68a85.27 85.27 0 0 1 20.87-37.87c13.85-14.68 20-50.99 10-65.68z" fill="#a96443"/><path d="m256 314.17s-11.74-17.85-29.62-7.21c-20.35 12.11-23.7 32.71-29.11 46.62s-24.09 36.58-28.59 57.18c-4.19 19.24-12.78 29.24 9.32 38.64 20.77 8.85 25.5-26.27 27.81-34.77.87-3.18-6.95-30.14-4.63-39.41s22-40.57 22-40.57z" fill="#7a462f"/><path d="m183.68 417.75c14.13-1.48 19.86-1.7 45.1 13.45s56.41 34.56 62.18 40.33-2.17 20.2-19.47 18c-31.31-3.91-59.86-19.47-73.57-23.8s-38.46-14.42-33.41-32.45 5.04-14.06 19.17-15.53z" fill="#a96443"/><path d="m181.33 414.56c2.28-1 29.07 39.47 29.07 39.47l33 29.62s-31.74-13.56-45.45-17.89-38.46-14.42-33.41-32.45 2.67-17.31 16.79-18.75z" fill="#7a462f"/><path d="m266.51 486.67c2.11 4.44 2.9 8.32 10 16.64s9.29 14.69 9.29 14.69-.27 3.9-.84 10.54c-.42 4.81.26 6.55 3.42 7.38s5.12-7.27 5.12-7.27-2.65 9.12 2.8 9.38c3 .14 4.49-12.5 4.49-12.5l.67 6.67s-1.08 4.83 2.71 5.12 6.75-17.32 6.75-17.32-1.52 4.79 2 5.65 4.22-12.18 4.22-12.18l-.14-12.1s-4.59-14.42-7.75-20.25-26.38-14.15-33.51-15-11.34 16.11-9.23 20.55z" fill="#a96443"/><path d="m316.74 503.2a56.15 56.15 0 0 1 -11.74 4.48 21.14 21.14 0 0 0 -9 4.48l8 2.84 7.92-4.44" fill="#7a462f"/><path d="m382.27 225.48c-4.74 34.82-20.19 59.39-46.11 59.39s-46.94-24.13-46.94-53.9c0-13.84 5.19-26.81 10.81-34.45 7.61-10.33 19.07-13.14 32.93-12.44 41.67 2.11 53.29 12.28 49.31 41.4z" fill="#1d2538"/><path d="m303.9 239.93s-5.72-10.93-15.61-10.93-8.84 28.09 1 35.37 13.57-2.59 14.61-24.44z" fill="#7a462f"/><path d="m341.37 191.7s-37.26 2.42-43.65 34.39c-7 34.77-7.73 63.36 12.36 72.63s44.82 7.73 52.54 4.64 12.37-17 16.23-44.82c4.59-33.04 4.64-64.54-37.48-66.84z" fill="#7a462f"/><path d="m342.52 228.79s-31.72 1.59-37.16 22.62c-5.92 22.88-6.57 41.68 10.52 47.78s38.14 5.09 44.72 3.05 10.52-11.18 13.81-29.48c3.9-21.76 3.94-42.44-31.89-43.97z" fill="#a96443"/><path d="m320.9 212.18a102.14 102.14 0 0 0 23.56 5.41c12.37 1.16 29.75-3.87 29.75-3.87 4.64 3.48 6.7 24.47 6.7 24.47s2.58-14 2.58-24.47-1.55-21.63-36.71-25.5c-17.67-1.94-43.27-2.31-48.29 20.87a199 199 0 0 0 -3.09 25.37 24.11 24.11 0 0 0 2.7 12.1 65.38 65.38 0 0 0 9.66-9.66c4.24-5.4 13.14-24.72 13.14-24.72z" fill="#273252"/><path d="m303.42 211.51c6.85-12.14 32.47-18 44.83-16.88s25.85 5.27 35.24 19.09c0-10.43-1.55-21.63-36.71-25.5-17.67-1.94-43.27-2.31-48.29 20.87a199 199 0 0 0 -3.09 25.37 24.11 24.11 0 0 0 2.7 12.1s-1.54-22.92 5.32-35.05z" fill="#1d2538"/><path d="m334.33 241.44a67.1 67.1 0 0 0 -9.7.78" fill="none" stroke="#273252" stroke-linecap="round" stroke-linejoin="round"/><ellipse cx="328.37" cy="254.42" fill="#273252" rx="6.41" ry="3.95" transform="matrix(.10886687 -.99405634 .99405634 .10886687 39.73 553.15)"/><path d="m358.25 242.33a67.8 67.8 0 0 1 9.59 1.65" fill="none" stroke="#273252" stroke-linecap="round" stroke-linejoin="round"/><ellipse cx="362.8" cy="255.98" fill="#273252" rx="6.41" ry="3.95" transform="matrix(.04972137 -.99876313 .99876313 .04972137 89.09 605.59)"/><path d="m780.25 638.49s1.59 16.36 4 21.1c1 2 1.3 7.82 2.64 10.82 2 4.57 5 11 10 10.81l6.59-.36c5.67-.25 8.46-2.5 9.5-8.08 1.09-5.9 2.45-15.51 4.48-22.42 4-13.45-8.7-36.39-17.41-34s-17.42.77-19.8 22.13z" fill="#121721"/><path d="m707.46 563.33s7.12 2.37 7.91 7.12-4 15.82-4.74 21.36-23 31.65-32.44 34-15-1.59-22.16-8.71 0-15 5.54-20.57 20.57-26.87 45.89-33.2z" fill="#121721"/><path d="m688.47 490.54s-78.33 9.46-102.06 20.57-30.86 38-33.23 50.64 18.19 21.36 23.73 28.48 23.74 4.77 23.74 4.77 58.55-7.91 70.42-8.71c10.38-.69 26.9 5.54 34.81-7.12 1.19-1.68 9.49-22.15 9.49-22.15s15.43 2.37 26.9-3.16-38.76-64.11-53.8-63.32z" fill="#273252"/><path d="m690.05 490.54s-78.32 9.46-102.05 20.57-32.84 50.64-32.84 50.64l58.16-32 60.53 3.56 26.5 21.37c19 4 42.83 2.19 43.12 1.58 11.86-25.37-38.38-66.51-53.42-65.72z" fill="#1d2538"/><path d="m733.57 551.46 10.29 8.7s14.84 61.66 20.57 71.21c9.49 15.83 30.06 19.78 41.14 14.25s13.43-12.62 13.43-12.62 11.87-12.66 17.41-21.37 9.51-31.63 9.51-31.63-.79-32.49-3.92-42-14.24-41.14-30.07-36.39-84.69 22.95-78.36 49.85z" fill="#273252"/><path d="m733.57 551.46 10.29 8.7 60.92 15.84 23.74 28.22-9.52 28.78s11.87-12.66 17.41-21.37 9.51-31.63 9.51-31.63-.79-32.49-3.92-42-14.24-41.14-30.07-36.39-84.69 22.95-78.36 49.85z" fill="#1d2538"/><path d="m711.42 556.21s-53.8-1.58-74.38 7.12a35.06 35.06 0 0 0 -16.61 14.24s22.94-20.57 90.99-21.36z" fill="#1d2538"/><path d="m624.38 574.41a21.56 21.56 0 0 1 3.17-22.16 37 37 0 0 1 -3.17 22.16z" fill="#1d2538"/><path d="m624.38 574.41s-9.49-4.75-13.45-8.71c0 0 1.59 13.45 13.45 8.71z" fill="#1d2538"/><path d="m815.86 635.86s15.14-16.86 16.88-21.86c7.64-22.55 6.06-34.42 6.06-34.42s-2.37 9-7.12 23.6c-.66 2-1.84-9.36-1.84-9.36s-6.07 28.32-13.98 42.04z" fill="#273252"/><path d="m663.15 379.77s-16.35 1.05-21.62 7.91-17.94 24.79-24.27 34.81-31.12 34.29-32.17 47.51 15.29 35.34 34.28 19c9.34-8 17.48-20.8 28.49-32.71 11.37-12.3 25-20.64 28.48-32.17 6.86-22.72-3.16-44.35-13.19-44.35z" fill="#f5894e"/><path d="m665.13 376.6s-16.35 1.06-21.62 7.92-17.94 24.79-24.27 34.81-31.12 34.29-32.17 47.47 15.29 35.34 34.28 19c9.34-8 17.48-20.8 28.49-32.7 11.37-12.31 25-20.65 28.48-32.18 6.86-22.69-3.17-44.32-13.19-44.32z" fill="#cc6d3d"/><path d="m665.13 376.6s-16.35 1.06-21.62 7.92-17.94 24.79-24.27 34.81-31.12 34.29-32.17 47.47-6.2 14 12.79-2.37c3.95 3.16 19.78-.79 19.78-.79 4.74-6.33 19.85-50.19 23.34-61.72 6.86-22.68 32.17-25.32 22.15-25.32z" fill="#f5894e"/><path d="m786.7 372.61c-7.63-11.89-49.54-14.36-78.09-9.32-12.07 2.13-22.7 3.41-31.54 5.33-12.05 2.61-27.67 6.91-27.67 6.91a11.9 11.9 0 0 0 -1.47 7.71c4.12 20.2 17.6 52.71 17.6 52.71l14.24 43.51s-5.06 39.18-2 43.87c1.84 2.88 14.79 11.31 32.91 15.47 20.13 4.62 108.61-18.24 108.61-18.24s1.5-45.71-.51-57.73c-2.73-16.05-17.88-68.09-32.08-90.22z" fill="#feed7f"/><path d="m750.19 521.4c-10.79 7.89-70.42 3.16-70.42 3.16 1.85 2.88 15 30.07 110.77 26.9 13-.43 47.47-29.27 47.47-29.27l-22.15-121.85s1.58-16.61-30.07-34c-12.47-6.86-48.63-8.07-77.18-3-12.07 2.13-22.7 3.41-31.54 5.33-12.05 2.61-27.67 6.91-27.67 6.91a16.86 16.86 0 0 0 -1.28 11.36c2.2 8.31-.75 23.41 21.36 52.22l16-13.54 54.72 9.73s10.73 13.5 14.72 14.89l-3.11-8.82 26.86 43.58-30.86 26.11-13.45 4z" fill="#f7bc4b"/><path d="m738.76 360.77a2.81 2.81 0 0 1 2.77 3c-.64 9.48-4.74 39.52-31.42 42.66-26.4 3.1-30.67-38.27-30.67-38.27a371 371 0 0 1 37.07-6.21 171 171 0 0 1 22.25-1.18z" fill="#cc6d3d"/><path d="m710.11 406.4c-26.4 3.1-30.65-38.28-30.65-38.28l5.85-1.24z" fill="#f5894e"/><path d="m809.28 403.28c3.62 19.21 6.8 36.83-12.77 41.9-10.62 2.75-22.38-5.82-27.32-23.85-5.33-19.43.42-43.85 12.12-49.47 11.9-5.72 24.07 10.68 27.97 31.42z" fill="#f5894e"/><path d="m686.1 367.58a18.37 18.37 0 0 0 -1.22 8.16c1.67 17.81 8.42 61.93 28.18 68.5 7.35 2.44 24.05-35.23 24.69-63.39.14-6.18.78-16.64-6-20.13" fill="none" stroke="#992c29" stroke-miterlimit="10" stroke-width=".75"/><ellipse cx="715.15" cy="449.78" fill="#29abe2" rx="4.18" ry="8.21" transform="matrix(.99862039 -.05251025 .05251025 .99862039 -22.65 38.2)"/><path d="m688.62 343.22s10.22 33.61 11.35 36.95c3.82 11.22 35.47 9.05 34.95-1.84-.18-3.84-5.83-45-5.83-45z" fill="#cc6d3d"/><path d="m524.47 574.54-73.53 110.9 6.42 3.92 82.67-119.3z" fill="#7a462f"/><path d="m543.59 556.92s-13.25-2-6-19.17c5.44-12.82 11.7-22.61 24.24-39.79s19.6-33.51 33.25-35.91 35.7 11.8 14.55 39.83a240.4 240.4 0 0 1 -55.32 52.58c-9.24 6.11-10.72 2.46-10.72 2.46z" fill="#f5894e"/><path d="m568.38 532.48 23.38-29.3 14.49-36c8.31-2.61 24.56 6.69 3.41 34.72a240.4 240.4 0 0 1 -55.32 52.58c-9.27 6.09 14.04-22 14.04-22z" fill="#cc6d3d"/><path d="m545.26 538.8c9.5 2.38 6.63 12.22 7.71 19.93s-3.73 14.28-9.08 23.88-6.61 10.75-14.36 16.75c-5.76 4.45-10.57-.49-6.23-7 1-1.53 5.64-5.66 6.61-7.32 3.18-5.38 3.27-7.34 3.27-7.34l-9.94 5.7s-5.82 2.78-9.35 15.06-13.77 14.22-14.24 10.84 5.1-14.72 5.1-14.72-2.83-7.86-4.07-11.22c-.91-2.46-.55-10 .52-12.48 2.53-5.76 13.36-17.11 23.39-23.92s11.18-10.53 20.67-8.16z" fill="#f5894e"/><path d="m767 394.87c4.3-20 17.55-29 29.44-20.17s19.58 18.31 25 47.86 16.64 45 18.26 65.72-6 30.41-25.27 23.88-27.43-24.88-31.32-54.44-21.6-37.46-16.11-62.85z" fill="#f5894e"/><path d="m767 394.87c4.3-20 17.55-29 29.44-20.17s19.58 18.31 25 47.86 16.64 45 18.26 65.72-6 30.41-25.27 23.88c-7.75-2.62 2.67-28.41.7-46.94-2.94-27.58-15.83-50.64-15.83-50.64z" fill="#cc6d3d"/><path d="m834.32 486c-7.55-5-19.32-5.62-39.58 5.73s-43.8 45.3-51.89 55.18-16.48 27.35 7.34 22.77 81.47-47.94 85.88-52.83 5.8-25.91-1.75-30.85z" fill="#cc6d3d"/><path d="m812.69 493.7c1.58-7.91 2.31-13.34-18-2s-43.8 45.3-51.89 55.18 24.74-3.08 24.74-3.08l20.57-16.88s23-25.3 24.58-33.22z" fill="#f5894e"/><path d="m740.69 551.73c-3.67.28-22.42 21.62-23.21 25.84s-1.58 21.1-1.58 21.1 4.89 22.6 10.31 21.38c1.33-.3 2.32-4.1.64-7.67s-.14-10.81-.14-10.81l1.59 9.23s5.41 10.94 6.19 11.71c1.55 1.56 4.39 2.64 5.2 1.56s-2.43-10.63-2.43-10.63 5.24 9.9 7.83 9.69 2.57-1.62 2.57-3-1.35-10.57-1.35-10.57 3.33 9.52 5.28 8.53 3.93-3.25 1.76-7.71-4.14-17.47-4.14-17.47 8.5-8.12 10.08-28.16c.5-6.3-14.92-13.31-18.6-13.02z" fill="#cc6d3d"/><path d="m742.73 321.35c-6.4 46.88-48.56 12.84-48.56 12.84-8.58-3.86-49.25 5.56-49.91-22.88-2.15-13.44 4.7-41.64 42.76-45.43 44.72-4.45 59.62 26.81 55.71 55.47z" fill="#1d2538"/><path d="m701.66 274.27c-35.62 2.2-22.12 9.48-19.52 22.16 3.05 14.84 8.57 24.9 15.39 28 0 0 24.83 9.18 36.55-3.63a29.85 29.85 0 0 0 .62-12.55 7 7 0 0 1 3.84 4.56c.07-.21.15-.4.21-.62 6.35-22.03-4.48-39.93-37.09-37.92z" fill="#3e4c6f"/><path d="m675.29 294.32s-22.58 3-25.66 7.3 2.51 53.64 11.49 68.61c8.85 14.76 51.86 8.68 62.17-.48 4.74-4.22 6.93-19.11 7.13-34.06.2-16-5.31-14.39-10.28-18.33-26.02-20.59-44.85-23.04-44.85-23.04z" fill="#cc6d3d"/><path d="m727 339.67c1.43 9.72 1.49 23-6.84 30.08-7.87 6.68-23.83 7.47-33 7.1-18.64-.76-28.66-13.37-31.84-33.5-2.1-13.27 18-26.62 37.68-30.08 19.11-3.37 30.46 4.64 34 26.4z" fill="#f5894e"/><path d="m696.7 339c.38 3.73-1.2 5.3-3 5.23s-3.25-1.76-3.63-5.49.81-6.69 2.66-6.62 3.6 3.15 3.97 6.88z" fill="#34283a"/><path d="m668 342.25c.38 3.73-1.19 5.29-3 5.22s-3.25-1.75-3.63-5.48.82-6.7 2.66-6.63 3.61 3.16 3.97 6.89z" fill="#34283a"/><path d="m688.52 326.34a22.19 22.19 0 0 1 9 2" fill="none" stroke="#34283a" stroke-linecap="round" stroke-linejoin="round"/><path d="m665.17 328.67a23.49 23.49 0 0 0 -7.41 4.19" fill="none" stroke="#34283a" stroke-linecap="round" stroke-linejoin="round"/><ellipse cx="729.4" cy="330.39" fill="#f5894e" rx="15.63" ry="8.7" transform="matrix(.31664252 -.94854494 .94854494 .31664252 185.02 917.61)"/><path d="m704.82 308.74s-9.83 8.15-63.28 8.95c-14.19.22 6.69-34.56 31.65-29 22.96 5.11 31.63 20.05 31.63 20.05z" fill="#1d2538"/><path d="m673.29 288.35c-18.62 4.27-36.84 26.38-25.51 27.29a151.46 151.46 0 0 0 16.84-.43 90.25 90.25 0 0 0 18.48-10.08c-.15 4.6-3.76 7.5-8.42 9.33 9.58-.82 19.71-2 27.14-3.38 9.65-1.81 10.64-5.38 10.64-5.38s-19.25-21.93-39.17-17.35z" fill="#3e4c6f"/><path d="m717.76 307.14s-.6 16.32 1.65 21l4.82 6.81-.14-23.28z" fill="#3e4c6f"/></svg>