<svg width="502" height="424" viewBox="0 0 502 424" fill="none" xmlns="http://www.w3.org/2000/svg">
<g clip-path="url(#clip0)">
<path d="M456.21 360.73C467.079 360.73 475.89 345.463 475.89 326.63C475.89 307.797 467.079 292.53 456.21 292.53C445.341 292.53 436.53 307.797 436.53 326.63C436.53 345.463 445.341 360.73 456.21 360.73Z" stroke="#9F6D3E" stroke-miterlimit="10"/>
<path d="M456.21 360.73V309.59" stroke="#9F6D3E" stroke-linecap="round" stroke-linejoin="round"/>
<path d="M456.21 329.62L464.18 320.51" stroke="#9F6D3E" stroke-linecap="round" stroke-linejoin="round"/>
<path d="M456.21 340.5L467.7 327.37" stroke="#9F6D3E" stroke-linecap="round" stroke-linejoin="round"/>
<path d="M456.21 351.72L468.07 338.15" stroke="#9F6D3E" stroke-linecap="round" stroke-linejoin="round"/>
<path d="M456.21 329.65L446.55 318.59" stroke="#9F6D3E" stroke-linecap="round" stroke-linejoin="round"/>
<path d="M456.21 340.52L444.35 326.96" stroke="#9F6D3E" stroke-linecap="round" stroke-linejoin="round"/>
<path d="M456.21 351.74L444.35 338.18" stroke="#9F6D3E" stroke-linecap="round" stroke-linejoin="round"/>
<path d="M481.05 340.05C491.919 340.05 500.73 324.783 500.73 305.95C500.73 287.117 491.919 271.85 481.05 271.85C470.181 271.85 461.37 287.117 461.37 305.95C461.37 324.783 470.181 340.05 481.05 340.05Z" stroke="#3F4D79" stroke-miterlimit="10"/>
<path d="M481.05 288.91V340.05V360.87" stroke="#3F4D79" stroke-linecap="round" stroke-linejoin="round"/>
<path d="M481.05 308.94L490.69 297.91" stroke="#3F4D79" stroke-linecap="round" stroke-linejoin="round"/>
<path d="M481.05 319.82L492.91 306.26" stroke="#3F4D79" stroke-linecap="round" stroke-linejoin="round"/>
<path d="M481.05 331.03L492.91 317.47" stroke="#3F4D79" stroke-linecap="round" stroke-linejoin="round"/>
<path d="M481.05 308.96L471.38 297.91" stroke="#3F4D79" stroke-linecap="round" stroke-linejoin="round"/>
<path d="M481.05 319.84L469.19 306.28" stroke="#3F4D79" stroke-linecap="round" stroke-linejoin="round"/>
<path d="M481.05 331.06L469.19 317.49" stroke="#3F4D79" stroke-linecap="round" stroke-linejoin="round"/>
<path d="M425.93 348.56C436.799 348.56 445.61 333.293 445.61 314.46C445.61 295.627 436.799 280.36 425.93 280.36C415.061 280.36 406.25 295.627 406.25 314.46C406.25 333.293 415.061 348.56 425.93 348.56Z" stroke="#FF5061" stroke-linecap="round" stroke-linejoin="round"/>
<path d="M425.93 297.42V348.56V360.87" stroke="#FF5061" stroke-linecap="round" stroke-linejoin="round"/>
<path d="M425.93 317.45L435.58 306.42" stroke="#FF5061" stroke-linecap="round" stroke-linejoin="round"/>
<path d="M425.93 328.33L437.79 314.77" stroke="#FF5061" stroke-linecap="round" stroke-linejoin="round"/>
<path d="M425.93 339.54L437.79 325.98" stroke="#FF5061" stroke-linecap="round" stroke-linejoin="round"/>
<path d="M425.93 317.47L416.27 306.42" stroke="#FF5061" stroke-linecap="round" stroke-linejoin="round"/>
<path d="M425.93 328.35L414.07 314.79" stroke="#FF5061" stroke-linecap="round" stroke-linejoin="round"/>
<path d="M425.93 339.56L414.07 326" stroke="#FF5061" stroke-linecap="round" stroke-linejoin="round"/>
<path d="M25.26 360.87H492.91" stroke="#545454" stroke-linecap="round" stroke-linejoin="round"/>
<path d="M151.02 222.187L100.773 171.94C95.6961 166.863 87.465 166.863 82.3882 171.94L31.4058 222.922C26.329 227.999 26.329 236.23 31.4058 241.307L81.6528 291.554C86.7296 296.631 94.9608 296.631 100.038 291.554L151.02 240.572C156.097 235.495 156.097 227.264 151.02 222.187Z" fill="#9BBDD1"/>
<path d="M162.857 222.555L100.405 160.103C95.3285 155.026 87.0973 155.026 82.0205 160.103L19.5688 222.555C14.492 227.631 14.492 235.863 19.5688 240.939L82.0205 303.391C87.0973 308.468 95.3285 308.468 100.405 303.391L162.857 240.939C167.934 235.863 167.934 227.631 162.857 222.555Z" stroke="#3F4D79" stroke-linecap="round" stroke-linejoin="round"/>
<path d="M31.34 313.3C31.8765 315.908 32.2803 318.541 32.55 321.19C32.85 323.82 33.03 326.46 33.19 329.1C33.35 331.74 33.42 334.39 33.4 337.05C33.4187 339.721 33.3018 342.391 33.05 345.05C32.5135 342.442 32.1097 339.809 31.84 337.16C31.54 334.53 31.36 331.88 31.2 329.24C31.04 326.6 30.98 323.95 30.99 321.3C31 318.65 31.07 316 31.34 313.3Z" fill="#C4C4C4"/>
<path d="M48.06 328.3C45.452 328.836 42.8187 329.24 40.17 329.51C37.53 329.81 34.89 329.99 32.25 330.16C29.61 330.33 26.96 330.38 24.31 330.36C21.639 330.384 18.9687 330.267 16.31 330.01C18.9171 329.472 21.5508 329.071 24.2 328.81C26.83 328.51 29.47 328.32 32.11 328.16C34.75 328 37.4 327.94 40.05 327.96C42.724 327.938 45.3975 328.051 48.06 328.3V328.3Z" fill="#C4C4C4"/>
<path d="M103.71 277.21C104.194 278.948 104.548 280.72 104.77 282.51C105.02 284.28 105.19 286.06 105.28 287.84C105.37 289.62 105.4 291.4 105.35 293.19C105.32 294.993 105.157 296.791 104.86 298.57C104.378 296.831 104.02 295.06 103.79 293.27C103.55 291.5 103.38 289.73 103.29 287.95C103.2 286.17 103.17 284.38 103.22 282.59C103.25 280.787 103.414 278.989 103.71 277.21V277.21Z" fill="#0850EC"/>
<path d="M115 287.32C113.266 287.805 111.497 288.159 109.71 288.38C107.93 288.62 106.16 288.8 104.38 288.89C102.6 288.98 100.82 289.01 99.03 288.96C97.227 288.93 95.4287 288.767 93.65 288.47C95.3831 287.977 97.1517 287.62 98.94 287.4C100.72 287.16 102.49 286.98 104.27 286.89C106.05 286.8 107.83 286.78 109.62 286.83C111.423 286.86 113.221 287.023 115 287.32V287.32Z" fill="#0850EC"/>
<path d="M175.25 0C175.8 2.62 176.16 5.25 176.45 7.89C176.74 10.53 176.94 13.16 177.1 15.81C177.26 18.46 177.32 21.1 177.31 23.75C177.325 26.421 177.205 29.0911 176.95 31.75C176.4 29.13 176.04 26.5 175.75 23.86C175.46 21.22 175.26 18.59 175.1 15.94C174.94 13.29 174.88 10.65 174.9 8C174.881 5.32913 174.998 2.65904 175.25 0V0Z" fill="#C4C4C4"/>
<path d="M192 15C189.38 15.55 186.75 15.91 184.11 16.2C181.47 16.49 178.84 16.69 176.19 16.85C173.54 17.01 170.9 17.07 168.25 17.06C165.579 17.0753 162.909 16.9552 160.25 16.7C162.87 16.15 165.5 15.79 168.14 15.5C170.78 15.21 173.41 15.01 176.06 14.85C178.71 14.69 181.35 14.63 184 14.65C186.671 14.6263 189.341 14.7431 192 15V15ZM196.18 19.44C196.664 21.1781 197.018 22.9496 197.24 24.74C197.48 26.51 197.66 28.29 197.75 30.07C197.84 31.85 197.87 33.63 197.82 35.42C197.79 37.223 197.626 39.0213 197.33 40.8C196.843 39.0621 196.485 37.2906 196.26 35.5C196.02 33.73 195.84 31.95 195.75 30.17C195.66 28.39 195.64 26.61 195.69 24.82C195.72 23.017 195.883 21.2187 196.18 19.44V19.44Z" fill="#C4C4C4"/>
<path d="M207.43 29.54C205.691 30.023 203.92 30.3806 202.13 30.61C200.36 30.85 198.59 31.02 196.81 31.12C195.03 31.22 193.24 31.23 191.46 31.19C189.653 31.1565 187.852 30.9894 186.07 30.69C187.808 30.2064 189.58 29.8521 191.37 29.63C193.14 29.39 194.92 29.21 196.7 29.12C198.48 29.03 200.26 29.01 202.05 29.06C203.853 29.0913 205.65 29.2517 207.43 29.54V29.54ZM10.1 299.21C10.5831 300.945 10.9406 302.713 11.17 304.5C11.41 306.28 11.58 308.05 11.68 309.83C11.78 311.61 11.79 313.39 11.75 315.18C11.712 316.983 11.5449 318.781 11.25 320.56C10.7655 318.826 10.4111 317.057 10.19 315.27C9.95002 313.49 9.77002 311.72 9.68002 309.94C9.59002 308.16 9.56002 306.37 9.61002 304.59C9.64963 302.788 9.81336 300.99 10.1 299.21V299.21Z" fill="#C4C4C4"/>
<path d="M21.36 309.31C19.6219 309.794 17.8504 310.148 16.06 310.37C14.29 310.62 12.51 310.79 10.73 310.88C8.95 310.97 7.17 311 5.38 310.95C3.577 310.92 1.7787 310.757 0 310.46C1.73902 309.978 3.51017 309.62 5.3 309.39C7.07 309.15 8.84 308.98 10.62 308.89C12.4 308.8 14.19 308.77 15.98 308.82C17.783 308.851 19.5812 309.014 21.36 309.31V309.31ZM448.55 163.66C449.086 166.268 449.49 168.901 449.76 171.55C450.06 174.18 450.24 176.82 450.41 179.47C450.58 182.12 450.63 184.76 450.61 187.41C450.629 190.081 450.512 192.751 450.26 195.41C449.722 192.803 449.321 190.169 449.06 187.52C448.75 184.89 448.57 182.25 448.41 179.6C448.25 176.95 448.19 174.31 448.2 171.66C448.21 169.01 448.28 166.33 448.55 163.66Z" fill="#C4C4C4"/>
<path d="M465.27 178.67C462.65 179.22 460.01 179.58 457.38 179.87C454.75 180.16 452.1 180.36 449.46 180.52C446.82 180.68 444.17 180.74 441.52 180.73C438.849 180.746 436.179 180.625 433.52 180.37C436.14 179.82 438.77 179.46 441.41 179.17C444.05 178.88 446.68 178.68 449.32 178.52C451.96 178.36 454.61 178.3 457.27 178.32C459.941 178.296 462.611 178.413 465.27 178.67V178.67ZM437.53 145.33C438.013 147.065 438.371 148.833 438.6 150.62C438.84 152.39 439.01 154.17 439.11 155.95C439.21 157.73 439.22 159.51 439.17 161.3C439.14 163.103 438.977 164.901 438.68 166.68C438.196 164.945 437.842 163.177 437.62 161.39C437.38 159.61 437.2 157.84 437.11 156.06C437.02 154.28 436.99 152.49 437.04 150.71C437.08 148.908 437.243 147.11 437.53 145.33Z" fill="#C4C4C4"/>
<path d="M448.79 155.43C447.052 155.914 445.28 156.268 443.49 156.49C441.72 156.73 439.94 156.91 438.16 157C436.38 157.09 434.6 157.12 432.81 157.07C431.007 157.04 429.209 156.877 427.43 156.58C429.168 156.093 430.939 155.735 432.73 155.51C434.5 155.27 436.27 155.1 438.05 155.01C439.83 154.92 441.62 154.89 443.41 154.94C445.213 154.971 447.011 155.134 448.79 155.43V155.43Z" fill="#C4C4C4"/>
<path d="M245.69 203.17L104.28 256.58L221.53 314.88L374.65 256.58L245.69 203.17Z" fill="#D86C1D"/>
<path d="M245.69 203.17L221.53 314.88L374.65 256.58L245.69 203.17Z" fill="#F46534"/>
<path d="M245.69 203.29L374.65 256.58L416.38 257.88L288.88 200.58L245.69 203.29Z" fill="#9F6D3E"/>
<path d="M66.84 238.93L206.69 189.2L245.69 203.17L104.28 256.58L66.84 238.93Z" fill="#9F6D3E"/>
<path d="M279.87 198.9C279.413 204.054 278.186 209.11 276.23 213.9C273.83 219.7 271.43 222.32 270.31 228.01C269.497 231.605 269.497 235.335 270.31 238.93C271.12 242.26 272.63 245.06 277.6 251.22C283.3 258.3 285.24 259.49 288.98 263.97C292.58 268.3 295.22 273.13 300.35 282.63C307.03 294.98 310.35 301.16 310.82 303.57C314.19 321.44 291.18 339.86 287.61 342.71C259.66 365.08 219.08 365.82 189.29 354.09C176.901 349.508 165.701 342.197 156.52 332.7C138.13 313.38 134.43 290.83 132.85 280.35C131.63 272.19 127.33 240.64 144.69 211.17C162.32 181.24 184.84 183.08 192.48 156.09C198.3 135.54 190.35 116.4 194.75 115.09C199.41 113.74 204.2 136.32 225.75 147.86C232.45 151.45 234.3 150.5 243.84 155.65C256.65 162.57 259.25 167.49 268.08 173.35C288.48 186.88 307.08 182.14 308.08 187.91C308.67 191.09 303.83 196.74 277.13 207.48L279.87 198.9Z" fill="#3F4D79"/>
<path d="M221.53 314.88L218.81 423.1L104.28 360.36V256.58L221.53 314.88Z" fill="#9F6D3E"/>
<path d="M221.53 314.88L218.81 423.1L368.41 372.8L374.65 256.58L221.53 314.88Z" fill="#BE912D"/>
<path d="M291.25 286.29C290.43 278.89 297.05 276.48 304.91 263.08C310.48 253.57 313.2 244.45 316.74 232.58C321 218.3 320.38 214.69 324.93 210.28C330.68 204.7 340.93 201.46 348.6 205.28C358.28 210.1 359.13 223.93 359.53 230.28C361.03 254.77 344.4 273.02 338.13 279.9C330.76 287.98 316.13 304 303.13 299.9C297.27 298.13 291.93 292.4 291.25 286.29Z" fill="#3F4D79"/>
<path d="M209.91 159.13L231.64 167.62C231.64 167.62 228.18 187.14 216.26 183.57C204.34 180 209.91 159.13 209.91 159.13Z" fill="#EEEEEE"/>
<path d="M209.91 159.13L231.64 167.62C231.64 167.62 228.18 187.14 216.26 183.57C204.34 180 209.91 159.13 209.91 159.13Z" stroke="#63717C" stroke-linecap="round" stroke-linejoin="round"/>
<path d="M220.77 163.37C220.77 163.37 211.77 178.37 216.26 183.57C216.26 183.57 223.57 177.93 220.77 163.37Z" fill="#63717C"/>
<path d="M239.54 171L255.54 185.32C255.54 185.32 246.27 201.06 237.13 194.14C227.99 187.22 239.54 171 239.54 171Z" fill="#EEEEEE"/>
<path d="M239.54 171L255.54 185.32C255.54 185.32 246.27 201.06 237.13 194.14C227.99 187.22 239.54 171 239.54 171Z" stroke="#63717C" stroke-linecap="round" stroke-linejoin="round"/>
<path d="M247.55 178.14C247.55 178.14 235.01 188.14 237.15 194.14C237.15 194.12 245.28 191.61 247.55 178.14Z" fill="#63717C"/>
<path d="M206.39 183.39C205.536 182.325 204.607 181.322 203.61 180.39C202.633 179.436 201.598 178.545 200.51 177.72C198.356 176.054 196.005 174.661 193.51 173.57C191.028 172.461 188.418 171.665 185.74 171.2C183.036 170.73 180.295 170.506 177.55 170.53C178.217 170.45 178.907 170.38 179.62 170.32C180.307 170.234 180.998 170.187 181.69 170.18C183.084 170.177 184.477 170.263 185.86 170.44C188.623 170.773 191.32 171.521 193.86 172.66C196.427 173.785 198.81 175.288 200.93 177.12C203.089 178.889 204.935 181.008 206.39 183.39V183.39ZM199.71 186.42C197.397 185.09 194.933 184.043 192.37 183.3C189.831 182.539 187.221 182.043 184.58 181.82C183.92 181.72 183.25 181.75 182.58 181.7C181.914 181.664 181.246 181.664 180.58 181.7H178.58L176.58 181.89C173.923 182.199 171.29 182.69 168.7 183.36C169.96 182.88 171.22 182.36 172.51 182C173.827 181.639 175.162 181.349 176.51 181.13C179.191 180.672 181.92 180.558 184.63 180.79C187.363 181.015 190.053 181.603 192.63 182.54C193.903 183.005 195.145 183.55 196.35 184.17C197.537 184.815 198.662 185.568 199.71 186.42V186.42ZM196.07 191C194.92 191 193.77 190.95 192.62 191C191.47 191.05 190.33 191 189.19 191.1C186.91 191.218 184.64 191.471 182.39 191.86C180.155 192.238 177.961 192.831 175.84 193.63C175.3 193.82 174.84 194.09 174.29 194.32C174.03 194.44 173.77 194.55 173.52 194.69L172.79 195.13C171.799 195.717 170.859 196.386 169.98 197.13C170.74 196.252 171.591 195.457 172.52 194.76L173.23 194.24C173.47 194.08 173.74 193.95 173.99 193.8C174.5 193.53 174.99 193.2 175.53 192.96C177.662 191.991 179.911 191.302 182.22 190.91C186.81 190.153 191.497 190.203 196.07 191.06V191ZM241.21 199.61C243.979 199.3 246.781 199.452 249.5 200.06C252.245 200.624 254.889 201.601 257.34 202.96C259.807 204.274 262.057 205.96 264.01 207.96C264.991 208.946 265.904 209.998 266.74 211.11C267.165 211.66 267.553 212.238 267.9 212.84C268.27 213.42 268.64 214.01 268.99 214.6C267.337 212.411 265.493 210.373 263.48 208.51C261.475 206.676 259.255 205.091 256.87 203.79C254.485 202.486 251.949 201.479 249.32 200.79C248.006 200.425 246.67 200.144 245.32 199.95C243.96 199.742 242.586 199.628 241.21 199.61V199.61ZM242.87 206.76C244.181 207.086 245.46 207.531 246.69 208.09C247.915 208.685 249.104 209.353 250.25 210.09C252.544 211.561 254.635 213.326 256.47 215.34C258.303 217.352 259.875 219.586 261.15 221.99C261.785 223.186 262.355 224.414 262.86 225.67C263.34 226.93 263.72 228.23 264.11 229.51C263.061 227.052 261.848 224.666 260.48 222.37L259.42 220.69L258.25 219C257.872 218.455 257.465 217.931 257.03 217.43C256.59 216.94 256.21 216.43 255.73 215.93C253.947 213.972 251.966 212.202 249.82 210.65C247.665 209.083 245.332 207.777 242.87 206.76V206.76ZM241.47 212.42C244.935 215.526 247.828 219.215 250.02 223.32C251.113 225.392 251.934 227.597 252.46 229.88C252.6 230.44 252.64 231.03 252.73 231.61C252.73 231.9 252.83 232.19 252.85 232.48V233.36C252.866 234.522 252.755 235.682 252.52 236.82C252.561 235.675 252.51 234.528 252.37 233.39L252.28 232.55C252.28 232.27 252.16 231.99 252.1 231.71C251.96 231.16 251.88 230.6 251.7 230.06C251.046 227.888 250.181 225.785 249.12 223.78C248.059 221.763 246.88 219.809 245.59 217.93C244.95 216.93 244.28 216.06 243.59 215.14C242.9 214.22 242.2 213.32 241.47 212.42Z" fill="#96C6FF"/>
<path d="M221.34 322.63L260.95 369L371.26 323.12L374.25 264.38L221.53 314.88L221.34 322.63Z" fill="#D8821D"/>
<path d="M180.64 351.59L221.34 322.6L221.53 314.88L104.28 264.17V305.2L180.64 351.59Z" fill="#D8821D"/>
<path d="M199.94 143.33L199.24 127.61L208.66 141.3C208.66 141.3 204.24 138.16 199.94 143.33ZM281.59 191L297.29 190L283.75 199.64C283.75 199.64 286.82 195.18 281.59 191Z" fill="#FFCCD8"/>
<path d="M180.64 344L74.69 279.64L104.28 256.58L221.53 314.88L180.64 344Z" fill="#9F6D3E"/>
<path d="M405.6 301.19L261.16 361.27L221.53 314.88L374.65 256.58L405.6 301.19Z" fill="#9F6D3E"/>
<path d="M104.28 312C105.855 310.424 107.561 308.986 109.38 307.7C111.167 306.371 113.067 305.204 115.06 304.21C113.487 305.788 111.781 307.227 109.96 308.51C108.168 309.831 106.268 310.999 104.28 312V312ZM104.28 320.53C106.936 318.176 109.713 315.963 112.6 313.9C115.461 311.802 118.432 309.86 121.5 308.08C118.852 310.439 116.078 312.652 113.19 314.71C110.326 316.808 107.352 318.75 104.28 320.53V320.53ZM104.27 330.07C106.2 328.53 108.19 327.07 110.2 325.67C112.21 324.27 114.2 322.86 116.28 321.49C118.36 320.12 120.39 318.79 122.49 317.49L125.64 315.57C126.71 314.95 127.76 314.32 128.84 313.73C127.84 314.5 126.84 315.22 125.91 315.97L122.91 318.13C120.91 319.56 118.91 320.94 116.83 322.3C114.75 323.66 112.72 325 110.62 326.3C108.52 327.6 106.43 328.88 104.27 330.07ZM104.28 343.21C107.09 341.03 109.97 338.93 112.86 336.84C115.75 334.75 118.66 332.72 121.58 330.69C124.5 328.66 127.46 326.69 130.44 324.69L134.92 321.78C136.43 320.84 137.92 319.87 139.45 318.95C138.05 320.06 136.61 321.11 135.2 322.18L130.88 325.33C128 327.42 125.08 329.45 122.15 331.48C119.22 333.51 116.27 335.48 113.29 337.48C110.31 339.48 107.33 341.37 104.28 343.21ZM104.27 356.1C107.92 353.34 111.63 350.68 115.35 348.02C119.07 345.36 122.84 342.79 126.59 340.17C130.34 337.55 134.14 335.03 137.95 332.51L143.68 328.75C145.61 327.52 147.53 326.27 149.47 325.07C147.65 326.46 145.8 327.79 143.96 329.15L138.39 333.15C134.67 335.81 130.9 338.39 127.15 341.01C123.4 343.63 119.6 346.15 115.78 348.67C111.96 351.19 108.15 353.68 104.27 356.1ZM112.89 364.81C116.63 362 120.44 359.27 124.25 356.55C128.06 353.83 131.93 351.2 135.76 348.55C139.59 345.9 143.5 343.29 147.4 340.71L153.27 336.85C155.27 335.59 157.2 334.31 159.19 333.08C157.33 334.5 155.43 335.86 153.54 337.25L147.84 341.34C144.02 344.05 140.16 346.7 136.33 349.34C132.5 351.98 128.59 354.61 124.68 357.19C120.77 359.77 116.87 362.34 112.89 364.81ZM124.41 371.35C128.15 368.53 131.95 365.8 135.77 363.09C139.59 360.38 143.44 357.73 147.28 355.09C151.12 352.45 155.01 349.82 158.92 347.24L164.78 343.38C166.78 342.13 168.72 340.84 170.71 339.61C168.84 341.03 166.94 342.4 165.06 343.79L159.35 347.88C155.54 350.59 151.68 353.23 147.84 355.88C144 358.53 140.1 361.15 136.2 363.73C132.3 366.31 128.38 368.87 124.41 371.35ZM136 377.51C139.74 374.69 143.55 371.96 147.36 369.25C151.17 366.54 155.04 363.89 158.87 361.25C162.7 358.61 166.61 355.98 170.51 353.4L176.38 349.54C178.38 348.28 180.31 347 182.3 345.77C180.44 347.19 178.54 348.55 176.66 349.94L171 354C167.18 356.71 163.32 359.36 159.49 362C155.66 364.64 151.75 367.27 147.84 369.85C143.93 372.43 140 375 136 377.51ZM147.56 383.37C153.56 379 159.61 374.73 165.67 370.47L183.94 357.79L202.34 345.3L211.59 339.13L220.89 333.04L211.89 339.53L202.81 345.94L184.54 358.61L166.14 371.1C160 375.23 153.79 379.34 147.56 383.37ZM220.74 346C215.58 349.79 210.36 353.49 205.13 357.18C199.9 360.87 194.61 364.49 189.36 368.18C184.11 371.87 178.78 375.4 173.46 378.96L165.46 384.27C162.78 386.02 160.11 387.79 157.41 389.51C159.98 387.6 162.6 385.75 165.19 383.87L173.02 378.32C178.26 374.63 183.54 371.01 188.79 367.32C194.04 363.63 199.37 360.1 204.69 356.55C210.01 353 215.35 349.45 220.74 346ZM220.4 359.8C216.18 362.95 211.9 366 207.62 369.04C203.34 372.08 198.99 375.04 194.68 378.04C190.37 381.04 186 384 181.62 386.88L175 391.23C172.78 392.64 170.59 394.09 168.36 395.48C170.46 393.9 172.6 392.38 174.72 390.82L181.14 386.25C185.43 383.25 189.76 380.25 194.08 377.25C198.4 374.25 202.76 371.33 207.14 368.43C211.52 365.53 216 362.61 220.4 359.8ZM220 374.68C216.8 377.13 213.54 379.48 210.28 381.82C207.02 384.16 203.69 386.44 200.4 388.75C197.11 391.06 193.75 393.27 190.4 395.48L185.4 398.77C183.69 399.84 182.01 400.94 180.29 401.98C181.88 400.75 183.51 399.57 185.12 398.37L190.01 394.84C193.28 392.5 196.59 390.23 199.89 387.92C203.19 385.61 206.53 383.4 209.89 381.19C213.25 378.98 216.59 376.79 220 374.68ZM219.67 389C217.45 390.77 215.16 392.46 212.87 394.13C210.58 395.8 208.26 397.42 205.93 399.03C203.6 400.64 201.24 402.22 198.85 403.75L195.27 406C194.05 406.73 192.86 407.49 191.62 408.2C192.73 407.31 193.87 406.47 194.99 405.6L198.42 403.08C200.7 401.4 203.03 399.78 205.36 398.17C207.69 396.56 210.05 394.98 212.44 393.45C214.83 391.92 217.21 390.39 219.67 389ZM219.31 403.1C214.227 407.401 208.722 411.176 202.88 414.37C205.406 412.204 208.054 410.184 210.81 408.32C213.543 406.422 216.381 404.679 219.31 403.1V403.1ZM219 414.75C218.08 415.811 217.02 416.743 215.85 417.52C214.705 418.329 213.457 418.981 212.14 419.46C214.016 417.362 216.369 415.747 219 414.75V414.75Z" fill="#D8821D"/>
<path d="M212.79 209.08C212.947 207.562 213.402 206.091 214.13 204.75C214.811 203.394 215.717 202.163 216.81 201.11C216.326 202.523 215.727 203.894 215.02 205.21C214.344 206.537 213.599 207.829 212.79 209.08V209.08Z" fill="#96C6FF"/>
<path d="M214.58 188.13L228.69 195.89C228.69 195.89 211.38 213.15 214.58 188.13Z" fill="#FFCCD8"/>
<path d="M381 118.73L292.08 99.58C290.413 99.2211 288.919 98.3019 287.847 96.9754C286.776 95.6489 286.191 93.9953 286.19 92.29V51.19C286.19 49.2115 286.976 47.314 288.375 45.915C289.774 44.516 291.671 43.73 293.65 43.73H382.52C383.501 43.7274 384.474 43.9184 385.381 44.2921C386.288 44.6658 387.113 45.2149 387.808 45.9079C388.503 46.6009 389.054 47.4242 389.43 48.3306C389.806 49.237 390 50.2087 390 51.19V111.44C390 112.55 389.753 113.646 389.275 114.649C388.797 115.651 388.102 116.533 387.239 117.232C386.377 117.931 385.369 118.428 384.289 118.687C383.21 118.946 382.086 118.961 381 118.73V118.73Z" stroke="#97A5D1" stroke-linecap="round" stroke-linejoin="round"/>
<path d="M294.51 100.1L298 109.85L313.71 104.24L294.51 100.1Z" stroke="#3F4D79" stroke-linecap="round" stroke-linejoin="round"/>
<path d="M313.06 104.47L313.71 104.24L294.51 100.1L295.75 103.55L313.06 104.47Z" fill="#3F4D79"/>
<path d="M338.13 92.67H335.28L331.49 55.79L341.05 53.74L338.13 92.67Z" fill="#3F4D79"/>
<path d="M336.55 100.1C337.787 100.1 338.79 99.0971 338.79 97.86C338.79 96.6229 337.787 95.62 336.55 95.62C335.313 95.62 334.31 96.6229 334.31 97.86C334.31 99.0971 335.313 100.1 336.55 100.1Z" fill="#3F4D79"/>
<path d="M162.9 262.15C160.68 260.952 158.595 259.521 156.68 257.88C154.808 256.185 153.131 254.287 151.68 252.22C148.804 248.02 146.767 243.303 145.68 238.33C144.603 233.38 144.159 228.312 144.36 223.25C144.528 218.212 145.239 213.206 146.48 208.32C146.06 210.8 145.71 213.32 145.48 215.78C145.25 218.24 145.11 220.78 145.11 223.27C145.028 228.256 145.538 233.234 146.63 238.1C147.662 242.971 149.581 247.612 152.29 251.79C153.657 253.867 155.247 255.788 157.03 257.52C158.836 259.245 160.801 260.796 162.9 262.15V262.15ZM134 238.49C134.13 241.95 134.35 245.4 134.78 248.81C135.215 252.218 135.883 255.593 136.78 258.91C137.654 262.223 138.836 265.447 140.31 268.54C141.8 271.639 143.65 274.552 145.82 277.22C145.22 276.6 144.63 275.97 144.04 275.33C143.45 274.69 142.95 273.98 142.4 273.33C141.85 272.68 141.4 271.89 140.94 271.16C140.46 270.434 140.019 269.683 139.62 268.91C137.98 265.828 136.701 262.566 135.81 259.19C134.919 255.823 134.333 252.382 134.06 248.91C133.759 245.444 133.739 241.959 134 238.49V238.49ZM273.24 245.39C274.142 247.557 274.812 249.813 275.24 252.12C275.613 254.434 275.764 256.778 275.69 259.12C275.426 263.83 274.414 268.468 272.69 272.86C270.962 277.225 268.766 281.389 266.14 285.28C263.527 289.174 260.511 292.78 257.14 296.04C258.68 294.293 260.137 292.48 261.51 290.6C262.91 288.75 264.22 286.83 265.45 284.86C267.948 280.96 270.048 276.819 271.72 272.5C272.554 270.347 273.249 268.142 273.8 265.9C274.293 263.65 274.628 261.367 274.8 259.07C275.151 254.452 274.622 249.81 273.24 245.39V245.39ZM286.42 290.17C287.118 287.814 287.695 285.424 288.15 283.01C288.595 280.61 288.852 278.18 288.92 275.74C288.984 273.304 288.826 270.867 288.45 268.46C288.261 267.251 288.007 266.052 287.69 264.87C287.53 264.28 287.38 263.69 287.2 263.1C287.02 262.51 286.81 261.93 286.63 261.34C286.92 261.89 287.19 262.45 287.45 263.01C287.71 263.57 287.92 264.16 288.16 264.74C288.564 265.916 288.898 267.115 289.16 268.33C289.705 270.771 289.946 273.27 289.88 275.77C289.813 278.269 289.478 280.753 288.88 283.18C288.298 285.587 287.474 287.929 286.42 290.17V290.17Z" fill="#96C6FF"/>
</g>
<defs>
<clipPath id="clip0">
<rect width="501.23" height="423.1" fill="white"/>
</clipPath>
</defs>
</svg>
