<svg enable-background="new 0 0 1920 1080" viewBox="0 0 1920 1080" xmlns="http://www.w3.org/2000/svg"><path d="m1308.27 396.02s-288.55-3.59-348.68 104.01-360.79 158.24-471.56 107.6c-110.77-50.63-132.92-129.75-6.33-199.38 158.75-87.31 140.79 28.84 155.08 9.49 79.85-108.17 227.61-238.89 332.31-212.04 123.43 31.65 31.65 148.75 31.65 148.75s187.27-56.54 307.53 41.57z" fill="#f4e8d8"/><path d="m757.04 669.35s261.89-35.08 341.01-152.18 383.74-35.6 383.74-35.6-138.46 16.62-198.59 92.57c0 0 68.84-30.07 135.3-14.24 0 0-47.47 30.86-102.07 87.82-54.47 56.84-454.95 91.26-559.39 21.63z" fill="#f4e8d8"/><path d="m983.69 923.99s19.36-16.04-26.06-14.16c-44.88 1.86-92.84 8.13-72.98 19.42 19.87 11.29 80.42 4.38 99.04-5.26z" fill="#866694"/><path d="m1080.1 908.06s28.72-23.8-38.66-21.01c-66.58 2.76-137.73 12.06-108.26 28.82 29.47 16.75 119.31 6.5 146.92-7.81z" fill="#866694"/><path d="m1062 941.65s13.16-10.9-17.71-9.63c-30.5 1.26-63.1 5.53-49.6 13.2 13.5 7.68 54.66 2.99 67.31-3.57z" fill="#866694"/><path d="m1429.57 896.43c11.08-6.33-77.54-3.96-121.93-7.39-3.06-.24-6.48.29-10.14.37-20.56-3.18-131.72-7.18-174.92-4.85-43.04 2.32-89.67 16.42-47.34 27.67 31.74 8.43 51.47 12.86 123.3 8.73 14.68-.85 54.46-7.8 86.22-14.63 11.23-.06 47.34 2.44 60.3 1.69 28.87-1.67 75.07-6.2 84.51-11.59z" fill="#866694"/><path d="m1404.53 853.87s11.26-32.64 31.52-31.52c20.26 1.13 9 21.39 9 21.39s9-13.51 20.26-2.25 0 19.13 0 19.13 9-5.63 10.13 4.5-43.9 24.76-60.78 20.26-10.13-31.51-10.13-31.51z" fill="#288453"/><path d="m898.67 822.85c-129.4 2.63-43.52 24.53-43.52 24.53s-465.6-6.49-332.31 19.78c0 0-82.06 14.47-104.44 28.48-14.55 9.11 121.75 42.34 197.8 39.56 108.4-3.96 122.37-16.35 121.85-26.9-.65-13.03-76.79-14.23-53.8-20.57 33.89-9.35 57.82 3.98 188.31-11.08 82.29-9.49 144.79-6.33 144.79-6.33s-64.76 19.85-1.46 14.75c122.72-9.89 148.5 2.44 163.66-17.92 22.48-30.18-120.64-47.56-280.88-44.3z" fill="#866694"/><path d="m1301.03 315.72 26.6-130.78c.16-.77 9.21-2.25 9.21-2.25l11.62 3.49-4.31 153.77c-.06 2.32-2.73 3.56-4.84 2.24l-36.6-22.85c-1.27-.79-1.95-2.26-1.68-3.62z" fill="#1d2538"/><path d="m1314.04 318.38 21.79-135.01c.31-1.47 17.63 3.25 17.58 4.8l-4.63 147.36c-.14 4.44-5.23 6.78-9.22 4.29l-22.46-14.64c-2.39-1.49-3.63-4.25-3.06-6.8z" fill="#1d2538"/><path d="m1312.84 257.7s-1.97-2.56 5.56-3.01c7.56-.46 32.32 20.85 32.32 20.85l-1.75 63.55-48.4-21.09z" fill="#c73f37"/><path d="m1302.76 307.17s21.35-104.23 22.36-109.44c1.19-6.17 6.68-6.51 6.03 1.56-.43 5.35-19.97 110.38-19.97 110.38z" fill="#f4e8d8"/><path d="m1316.04 241.74s1.66-1.71 5.03-1.41c13.8 1.23 30 22.77 30 22.77l-.42 12.7s-22-22.63-27.31-23.99c-7.55-1.93-9.99 3.67-9.99 3.67z" fill="#c73f37"/><path d="m1347.87 291.14s-17.57-20.8-33.01-18.94c-6.5.78-4.46 2.94-4.46 2.94s-1.29.92 4.08.79c7.98-.19 33.39 15.21 33.39 15.21z" fill="#1d2538"/><path d="m1349.82 304.7c-7.56-12.62-32.62-20.32-32.62-20.32s28.23 16.58 32.35 23.92z" fill="#1d2538"/><path d="m1305.39 299.58s3.1-4.69 5.71-3.7 19.82 11.56 23.66 16.79c3.79 5.17-23.1-12.12-24.48-12.7-1.39-.57-4.89-.39-4.89-.39z" fill="#1d2538"/><path d="m1349.24 324.88s-2.42-3.88-7.4-5.33 7.39 9.13 7.39 9.13z" fill="#1d2538"/><path d="m1175.2 890.49c126.61-2.54 214.81 4.38 238.55-5.11 0 0 22.15-53.04-4.75-91.02-55.97-58.04-94.95-80.7-182.77-71.21s-161.67 64.35-185.41 116.57 2.64 53.14 10.95 54.33 84-2.76 123.43-3.56z" fill="#634874"/><path d="m1295.15 733.1c-43.52-15.24-70.36-17.22-118.98 7.71-48.62 24.94-59.74 31.84-66.8 65.49-7.06 33.66 40.01 29.65 73.73 21.68 33.74-7.96 161.89-77.43 112.05-94.88z" fill="#f4e8d8"/><path d="m1375.36 806.14c-45.29 18.25-77.82 23.48-125.82-3.42-51.1-28.63-61.8-36.7-37.05-68.05 19.25-24.39 87.79-6.58 114.26 2.29 24.2 8.11 85.81 54.19 48.61 69.18z" fill="#f4e8d8"/><path d="m1222.27 288.78 181.76 105.41c1.96 1.14 17.03-7.5 18.41-9.47s-4.53-16.22-7.68-18.09l-175.46-105.14c-2.57-1.53-15.25 1.77-15.25 1.77z" fill="#f6874e"/><path d="m1307.73 313.7 10.68 18.99-83.11-49.77c-2.34-1.45-3.94-6.53-3.94-6.53l-3.56-12.02z" fill="#f4e8d8"/><path d="m1422.45 384.71s-1.3 1.47-4.22 3.23c-4.89 2.94-11.27 7.91-14.9 6s-178.15-103.05-181.05-105.16c-2.2-1.6-3.16-16.62-3.16-18.46 0-1.85 4.95-7.05 4.95-7.05s1.65 15.1 4.55 18.4 178.68 105.23 178.68 105.23c2.36.78 10.4-.93 15.15-2.19z" fill="#c73f37"/><path d="m1224.18 733.51 70.4-398.15c.16-.88.47-1.73.93-2.5 2.42-4.07 6.09-4.72 11.44-1.65 0 0 29.53 17.24 32.17 18.83 2.64 1.58 5.78 4.67 5.41 8.97l-33.01 384.96c-.27 3.18-2.54 5.82-5.64 6.58l-33.3 8.15c-1.45.36-2.98.26-4.38-.26l-35.55-13.35c-.84-.32-1.62-.78-2.3-1.38l-3.76-3.31c-1.95-1.73-2.87-4.34-2.41-6.89z" fill="#f6be4a"/><path d="m1294.99 333.72c1.66-3.4 5.26-5.41 4.92-3.31l-67.99 410.74c-.25 1.49-2.04 2.14-3.18 1.13l-4.49-3.96c-.5-.44-.74-1.12-.62-1.78l71.11-402.18c.05-.22.13-.44.25-.64z" fill="#f6874e"/><path d="m1270.93 758.36 54.2-416.17" fill="none" stroke="#f4e8d8" stroke-miterlimit="10" stroke-width="2"/><path d="m1285.53 445.18 35.38 83.86 2.47-23.55-34.1-88.9z" fill="#f4e8d8"/><path d="m1290.93 404.2 35.38 92.8 7.54-58.49-34.1-88.9z" fill="#f4e8d8"/><path d="m1393.18 790.41s4.75 18.2-34.02 30.86c-.01-.01 53-.8 34.02-30.86z" fill="#f4e8d8"/><path d="m1325.92 578.1-10.28-3.17-7.91 14.25 6.32 13.45-20.57 24.52-6.33 8.51" fill="none" stroke="#f4e8d8" stroke-miterlimit="10" stroke-width="2"/><path d="m1114.54 813.27s21.09 24.12 59.48 18.8c16.6-1.39 66.26-17.61 66.26-17.61s-90.21 16.85-125.74-1.19z" fill="#634874"/><path d="m1365.48 363.15 11.08-4.74 5.54 15.03z" fill="#c73f37"/><path d="m1343.39 130.14c-15.82-3.61-29.04 9.07-29.33 27.46-.27 17.46 11.33 33.35 25.75 36.26 14.25 2.88 26.93-7.82 28.55-24.61 1.7-17.67-9.36-35.55-24.97-39.11zm-3.68 46.64c-5.46-1.77-10.11-9.41-10.37-17.22-.27-7.99 4.15-13.03 9.85-11.08 5.65 1.93 10.23 9.96 10.26 17.77.03 7.64-4.31 12.29-9.74 10.53z" fill="#1d2538"/><path d="m1345.96 141.43c-8.98-2.22-16.51 5.09-16.75 16.01-.05 2.14.2 4.26.68 6.29-.31-1.36-.51-2.76-.55-4.17-.27-7.99 4.15-13.03 9.85-11.08 5.65 1.93 10.23 9.96 10.26 17.77.03 7.64-4.32 12.29-9.74 10.53-3.38-1.1-6.45-4.45-8.36-8.69 2.61 5.96 7.36 10.57 12.85 11.84 8.43 1.94 15.77-4.65 16.48-14.98.75-10.66-5.81-21.32-14.72-23.52z" fill="#f6be4a"/><path d="m1330.14 164.69c.05.18.09.36.14.54-.05-.18-.09-.36-.14-.54z" fill="#f6be4a"/><path d="m1330.82 166.78c.1.28.22.55.33.82-.11-.27-.23-.54-.33-.82z" fill="#f6be4a"/><path d="m1323.99 176.61c-.45 0-.9-.2-1.19-.59-9.92-12.94-3.06-30.67-2.76-31.42.3-.77 1.17-1.15 1.95-.84.77.3 1.15 1.18.84 1.95-.07.17-6.52 16.91 2.36 28.49.5.66.38 1.6-.28 2.1-.28.21-.6.31-.92.31z" fill="#f4e8d8"/><path d="m1334.58 184.96c-.31 0-.62-.09-.88-.29-2.05-1.5-3.74-3.18-5.01-5.01-.47-.68-.31-1.61.37-2.09.68-.47 1.61-.31 2.09.37 1.08 1.55 2.54 3 4.32 4.3.67.49.82 1.43.33 2.1-.3.41-.75.62-1.22.62z" fill="#f4e8d8"/><path d="m1409.52 899.85c8.17-4.53-21.5-45.28-42.66-55.26s-7.79 38.65 7.97 49.81c15.76 11.17 26.52 9.99 34.69 5.45z" fill="#33a86d"/><path d="m1393.06 902.67s-40.98-19.92-62.45-19.19c-21.46.73 4.86 17.56 4.86 17.56s-22.65-4.66-28.35 7.24 85.94-5.61 85.94-5.61z" fill="#33a86d"/><path d="m1433.06 893.97c2.06-4.41.49-17.41-18.33-15.26s-23.33 19.44-16.75 23.65c6.58 4.2 33.02-3.98 35.08-8.39z" fill="#33a86d"/><path d="m1268.56 511.31-1.36 14.4c-.23.91 1.29 1.63 2.79 1.32l11.55-2.38c1.16-.24 1.72-1 1.21-1.65l-10.19-12.02c-.87-1.1-3.69-.87-4 .33z" fill="#f6874e"/><path d="m1321.57 629.4-9.89 9.89 7.91 10.28z" fill="#f6874e"/><path d="m1244.82 662.23 8.71 11.87-11.48 6.33z" fill="#f6874e"/><path d="m1363.23 949.87s-6.89-4.46-19.96-2.76c-12.91 1.68-17.7 4.56-8.43 7.19 5.95 1.68 23.82 1.81 28.39-4.43z" fill="#33a86d"/><path d="m1313.39 923.76s-6.89-4.46-19.96-2.76c-12.91 1.68-17.7 4.56-8.43 7.19 5.95 1.68 23.81 1.81 28.39-4.43z" fill="#288453"/><path d="m1343.06 938s-6.89-4.46-19.96-2.76c-12.91 1.68-17.7 4.56-8.43 7.19 5.95 1.68 23.81 1.82 28.39-4.43z" fill="#33a86d"/><path d="m1314.57 943.94s-6.89-4.46-19.96-2.76c-12.91 1.68-17.7 4.56-8.43 7.19 5.95 1.68 23.82 1.81 28.39-4.43z" fill="#33a86d"/><path d="m1215.97 935.41s-7.32-5.38-21.88-4.38c-14.38.99-19.86 3.87-9.79 7.38 6.46 2.26 26.2 3.6 31.67-3z" fill="#288453"/><path d="m1270.17 938.67s-7.32-5.38-21.88-4.38c-14.38.99-19.86 3.87-9.79 7.38 6.47 2.26 26.2 3.6 31.67-3z" fill="#288453"/><path d="m1239.67 926.91s-5.74-4.22-17.14-3.43c-11.27.78-15.56 3.03-7.67 5.78 5.06 1.77 20.52 2.82 24.81-2.35z" fill="#288453"/><path d="m1240.85 939.83s-7.32-5.38-21.88-4.38c-14.38.99-19.86 3.87-9.79 7.38 6.47 2.26 26.21 3.6 31.67-3z" fill="#288453"/><path d="m1310.89 675.15s-1.58-12.66-7.38-8.97-5.8 7.38-3.16 12.13c2.63 4.76 8.43 1.59 10.54-3.16z" fill="#288453"/><path d="m1304.56 656.16s-1.58-12.66-7.38-8.97-5.8 7.38-3.16 12.13 8.43 1.59 10.54-3.16z" fill="#33a86d"/><path d="m1307.73 639.55s-1.58-12.66-7.38-8.97-5.8 7.38-3.16 12.13c2.62 4.75 8.43 1.59 10.54-3.16z" fill="#33a86d"/><path d="m1326.71 564.38s-1.58-12.66-7.38-8.97-5.8 7.38-3.16 12.13c2.63 4.76 8.43 1.59 10.54-3.16z" fill="#33a86d"/><g fill="#288453"><path d="m1333.04 550.14s-1.58-12.66-7.38-8.97-5.8 7.38-3.16 12.13 8.43 1.59 10.54-3.16z"/><path d="m1314.58 693.09s-1.3-12.66-6.04-8.97c-4.75 3.69-4.75 7.38-2.59 12.13s6.91 1.59 8.63-3.16z"/><path d="m1307.2 690.45s-1.3-12.66-6.04-8.97c-4.75 3.69-4.75 7.38-2.59 12.13 2.15 4.75 6.9 1.59 8.63-3.16z"/><path d="m1318.38 669.63s-1.05-10.26-4.9-7.27-3.85 5.98-2.1 9.83 5.6 1.29 7-2.56z"/><path d="m1302.98 711.75s-.88-8.57-4.09-6.07-3.21 5-1.75 8.21 4.67 1.07 5.84-2.14z"/><path d="m1322.76 540.65s-1.58-12.66-7.38-8.97-5.8 7.38-3.16 12.13c2.63 4.75 8.43 1.59 10.54-3.16z"/><path d="m1251.15 735.42s-15.82-5.93-21.76 1.98c-1.96 2.62-2.84 5.19-3.14 7.47-.61 4.6 1.17 7.96 1.17 7.96s-14.64-15.03-24.92-7.12c-10.29 7.91 3.56 17.41 3.56 17.41s-9.89-3.96-18.2-.4-2.77 14.24-2.77 14.24 5.93 7.52 14.24 2.37c8.31-5.14 7.91-6.73 7.91-6.73s5.54 1.98 14.24-4.35 9.1-9.1 9.1-9.1 7.52 6.33 12.26 2.37c4.75-3.96 6.73-8.7 6.73-8.7s1.58 8.31 8.7 8.31c7.13 0 17.41-36-7.12-25.71z"/><path d="m1338.98 761.05s-1.58-7.53-7.38-5.33-5.8 4.39-3.16 7.22 8.43.93 10.54-1.89z"/><path d="m1350.05 770.54s-1.58-7.53-7.38-5.33-5.8 4.39-3.16 7.22 8.44.94 10.54-1.89z"/><path d="m1335.42 777.66s-1.58-7.53-7.38-5.33-5.8 4.39-3.16 7.22c2.63 2.82 8.43.94 10.54-1.89z"/><path d="m1362.71 789.14s-1.58-7.53-7.38-5.33-5.8 4.39-3.16 7.22c2.63 2.81 8.43.93 10.54-1.89z"/><path d="m1315.64 759.95s11.08-5.54 6.33-13.45-18.2-7.52-20.57-.4c0 0-3.96-24.92-13.05-23.34-9.1 1.58-12.26 9.1-9.1 20.97 0 0-5.54-7.52-13.45 1.19-7.91 8.7 2.37 15.03 2.37 15.03s-10.29-7.91-12.66 3.96 7.91 20.18 16.22 16.22 10.68-6.73 10.68-6.73 29.27 13.05 33.23-13.45z"/></g><path d="m1299.29 759.53s-2.33-9.73-10.89-6.89-8.56 5.68-4.67 9.32c3.88 3.65 12.44 1.22 15.56-2.43z" fill="#33a86d"/><path d="m1291.9 751.62s-1.98-9.73-9.22-6.89c-7.25 2.84-7.25 5.68-3.95 9.32 3.29 3.65 10.54 1.22 13.17-2.43z" fill="#33a86d"/><path d="m1278.19 752.67s-1.98-9.73-9.22-6.89c-7.25 2.84-7.25 5.68-3.95 9.32 3.28 3.66 10.53 1.22 13.17-2.43z" fill="#33a86d"/><path d="m1252.65 751.65s5.81-3.98 2.61-11.22c-3.07-6.94-8.11-4.37-10.13.11-2.02 4.49 3.12 10.16 7.52 11.11z" fill="#33a86d"/><path d="m1224.65 761.52s-.24-10.09-10.5-9.75-10.96 3.09-7.5 7.73c3.46 4.63 13.63 4.68 18 2.02z" fill="#33a86d"/><path d="m1064.82 494.49s-4.09-16.62-5.34-29.47c-1.2-12.3 5.97-7.3 13.52 1.25 7.91 8.97 15.56 25.05 17.67 28.75 2.11 3.69-17.93 12.13-25.85-.53z" fill="#1d2538"/><path d="m925.04 680.43c-2.4-3.51-17.41-20.31-20.57-29.01s-9.76-29.54-.26-40.62c0 0-13.45 0-19.78 28.48s21.37 55.25 23.74 57.49c10.54 10.03 23.73-6.32 16.87-16.34z" fill="#1d2538"/><path d="m1183.82 749.19c-2.95-5.95-13.96-8.73-13.96-8.73-.85-1.24-3.44-3.27-3.74-4.73-4.08-19.8-7.91-37.72-9.3-42.4-2.89-9.72-5.34-25.31-11.65-47.72s-30.98-5.31-26.18 17.03c3.42 15.93 28.4 80.76 29.23 81.76l10.96 11.65c2.82 3.42 7.6 5.67 12.55 3.47s14.98-4.51 12.09-10.33z" fill="#1d2538"/><path d="m992.43 723.1c5.78-6.77 36.39-12.52 39.81 1.35 2.92 11.81-40.25 86.73-40.25 86.73l.26 10.63s7.16 6.06 6.12 11.94c-.25 1.38-7.61 3.27-13.6 4.59-4.38.96-8-.41-8.69-3.36l-.86-3.72-5.48-12.94 15.55-51.9c-.01.02-.76-34.07 7.14-43.32z" fill="#1d2538"/><path d="m1082.23 645.62c-13.19 1.85-52.22-13.45-58.55-35.6s-14.24-56.97-14.24-71.21c0 0-10.55-21.1-14.77-33.23s-1.58-14.24 5.27-11.08c6.86 3.16 22.15 18.46 22.15 18.46s20.04-24.79 45.89-27.43 40.09 7.91 48.53 18.99l1.12.53s24.2-.53 37.38-2.11c13.19-1.58 19.52 2.11 21.1 16.35s1.32 17.93-2.9 25.85c-4.22 7.91-27.43 32.57-41.14 43.12 0 0 8.7 30.46 7.65 40.48s-44.3 15.03-57.49 16.88z" fill="#273150"/><path d="m1060.34 614.23s-30.33 17.93-36.66-4.22-14.24-56.97-14.24-71.21c0 0-10.55-21.1-14.77-33.23s-1.58-14.24 5.27-11.08c6.86 3.16 22.15 18.46 22.15 18.46s20.04-24.79 45.89-27.43c0 0-20.18 25.98-24.53 40.22s13.98 57.89 13.98 57.89 27.76 8.45 27.43 11.6c-1.05 10.03-24.52 19-24.52 19z" fill="#1d2538"/><path d="m1070.16 491.92s-4.86-15.75-7.91-26.31c-3.43-11.87 5.04-8.69 12.59-.13 7.91 8.97 14.97 18.79 17.08 22.48 2.11 3.7-17.4 13.46-21.76 3.96z" fill="#273150"/><ellipse cx="1100.01" cy="502.53" fill="#121721" rx="5.6" ry="8.4" transform="matrix(.6622 -.7493 .7493 .6622 -4.975 994.0333)"/><path d="m1129.88 600.07s26.92 14.5 32.3 22.41l-16.75 5.93s-13.16-11.87-15.55-28.34z" fill="#992c29"/><ellipse cx="1066.78" cy="521.68" fill="#121721" rx="6.75" ry="10.13" transform="matrix(.6622 -.7493 .7493 .6622 -30.5474 975.6035)"/><path d="m1088.56 591.81s-44.38-7.88-67.25 18.99c-20.45 24.03-31.36 31.64-60.13 45.89-18.08 8.95-40.43 8.06-53.01 32.44-8.44 16.35-4.22 40.09 4.22 60.66 17.93 20.04 157.8-19.7 168.26-24.26 30.86-13.45 48.85-41.1 58.55-53.01 8.7-10.68 9.12-45.28-14.73-66.25-8.7-7.65-20.47-13.19-35.91-14.46z" fill="#273150"/><path d="m1081.44 598.14c-26.11-6.07-37.26-14.21-60.13 12.66-20.45 24.03-31.36 31.64-60.13 45.89-18.08 8.95-40.43 8.06-53.01 32.44-8.44 16.35-4.22 40.09 4.22 60.66 17.93 20.04 157.8-19.7 168.26-24.26 0 0-36.4-4.75-41.14-18.2-4.75-13.45 18.2-47.47 18.2-47.47 7.91-22.95 32.99-59.57 23.73-61.72z" fill="#1d2538"/><ellipse cx="1156.92" cy="518.77" fill="#121721" rx="17.86" ry="13.31" transform="matrix(.8067 -.591 .591 .8067 -82.9317 784.0142)"/><path d="m1161.75 783.74c-4.77-6.92-18.08-8.49-18.08-8.49-1.27-1.41-4.71-3.49-5.39-5.26-9.27-24.03-17.82-45.77-20.5-51.38-5.57-11.64-8.98-34.98-21.42-61.89s-48.65 20.28-32.35 38.97c13.64 15.65 54.5 87.12 55.68 88.22l15.29 12.66c4.04 3.79 10.05 5.76 15.23 2.16 5.19-3.59 16.22-8.21 11.54-14.99z" fill="#273150"/><path d="m911.2 736.39c9.12-14.1 36.48-4.48 41.79-.78 5.59 3.88-3.78 37.74-4.06 42.31-.3 4.78-41.07 43.99-48.91 54.55-8.47 11.41 2.11 22.07-3.22 27.35-2.7 2.68-29.12 2.33-29.48-9.42-.34-11.1 6.72-30.3 6.82-31.2.2-1.77 33.47-45.53 34.03-47.91.55-2.33.32-30.71 3.03-34.9z" fill="#1d2538"/><path d="m1104.12 595.51s29.54-1.05 27.96-7.25c10.62-7.98 25.78-24.33 25.78-24.33l-31.05 17.34z" fill="#1d2538"/><path d="m1019.46 598.14s-3.03 9.23-1.85 15.56c0 0 25.13 4.48 66.46 4.48 22.15 0 53.8-5.27 53.8-5.27l-3.16-16.68s-64.08 11.93-115.25 1.91z" fill="#992c29"/><path d="m1128.5 601.18s18.86-15.15 29.91-15.92l14.6 24.74s-33.39-3.3-44.51-8.82z" fill="#c93f37"/><path d="m1128.5 601.18c9.64 6.1 44.5 8.82 44.5 8.82s-14.24-11.39-18.83-11.85-25.67 3.03-25.67 3.03z" fill="#992c29"/><path d="m680.3 305.05c16.62 1.19 57.01 36.93 85.45 67.2 36.79 39.16 81.98 80.72 100.48 89.01 22.95 10.29 48.66 23.74 59.34 23.74 0 0-49.45 52.67-69.63 70.47s-9.49-17.8-35.6 0-70.42 70.37-70.42 70.37-22.95-6.78-56.97-37.98c-44.44-40.75-115.12-220.35-105.23-251.6 9.9-31.26 76.75-35.56 92.58-31.21z" fill="#992c29"/><path d="m680.3 305.05c16.62 1.19 58.2 35 86.64 65.27 36.79 39.16 86.53 81.47 105.1 89.62 21.23 9.31 64.62 27.88 75.3 27.88l-20.97 15.38s-47.61-2.86-85.45-44.31c-45.78-50.14-121.66-137.12-160.62-153.84z" fill="#29ace4"/><path d="m604.38 329s-42.15.64-61.79-6.39-14.11-81.79 24.96-91.64c44.64-11.26 98.28 12.79 127.95 32.12s17.62 48.24-25.32 61.86c-43.57 13.81-65.8 4.05-65.8 4.05z" fill="#229bc6"/><path d="m697.85 290.47c0 24-78.03 25.21-101.82 25.21s-43.08-19.46-43.08-43.46 19.29-43.46 43.08-43.46 101.82 37.71 101.82 61.71z" fill="#992c29"/><path d="m841.57 557.26c-1.45-2.11-24.4-31.12-32.31-39.03s51.16 33.23 51.16 33.23-6.16 6.61-11.21 8.57c-4.74 1.85-6.19-.66-7.64-2.77z" fill="#c93f37"/><path d="m807.88 499.84-10.29-1.98-13.91 10.35c-2.41-2.87 1.46-22.87 5.2-23.13 5.8-.41 18-1.25 25.42 3.06 5.15 2.99 21.6 16.51 18.44 19.68-.7.7-4.02.4-4.02.4-.75.37-3.56-.26-4.62.13-1.05.4-3.09.15-4.78-.56z" fill="#f6874e"/><path d="m715.09 345.9s19.78 45.91 23.99 55.82c7.84 18.45-8.3 27.68-19.37 18.45s-33.21-52.13-37.36-62.27c-4.16-10.15 21.21-25.38 32.74-12z" fill="#ce6d3e"/><path d="m720.79 358.37s14.75 34.35 18.38 43.61c4.29 10.95-8.37 17.34-14.04 10.64-6.92-8.17-12.53-64.79-4.34-54.25z" fill="#f6874e"/><path d="m673.05 304.79c7.04-4.36 23.57 4.25 33.22 22.43 10.69 20.14 13.65 28.56 13.65 28.56s-11.68-2.01-17.44 3.18c-9.36 8.43-16.66 17.95-16.66 17.95s-10.8-21.86-16.56-36.56c-5.33-13.66-5.3-29.92 3.79-35.56z" fill="#c93f37"/><path d="m790.56 477.54c4.76 12.74-7.15 17.67-14.27 12.12-7.12-5.54-21.14-25.63-37.52-43.44-18.86-20.49-25.71-30.54-13.7-39.31 12.01-8.78 12.57-7.91 31.91 19.63 13.29 18.92 31.33 45 33.58 51z" fill="#ce6d3e"/><path d="m775.51 458.14c-8.97 13.01-43.98-35.38-43.98-35.38-11.14-14.34-9.96-14.37-4.55-17.87 10.95-5.54 11.14-4.75 24.07 13.12 10.19 14.08 27.28 36.03 24.46 40.13z" fill="#f6874e"/><path d="m796.65 489.42 16.27 1.4c.82.07 1.57.48 2.08 1.13l19.11 13.2c1.1 1.41 3.2 1.53 4.45.25.92-.95 1.11-2.39.45-3.54l-16.96-15.64c-.33-.58-.85-1.03-1.46-1.27l-29.81-11.98c-1.07-.43-9.23-3.45-14.6 1.93s-2.58 11.15-2.04 12.31l2.82 12.59c.03.06.05.11.08.16l9.66 17.86c.52.97 1.54 1.56 2.64 1.55l2.16-.03c1.99-.02 3.39-1.96 2.78-3.86l-3.44-10.78c-.16-.51-.18-1.06-.06-1.59l2.74-11.45c.34-1.4 1.67-2.36 3.13-2.24z" fill="#ce6d3e"/><path d="m754.94 563.25s-2.96 13.46-75.37 21.55c-29.55 3.3-58.43 1.08-81.55-.11-19.45-1-55.35-8.56-71.72-14.51-16.27-5.91-30.65-18.28 7.71-45.24 38.43-27.01 203.07-11.54 220.93 38.31z" fill="#ec5e4d"/><path d="m564.64 541.33s-11.13-5.89-7.57-13.01 13.25-7.52 13.25-7.52z" fill="#c93f37"/><path d="m702.81 256.58c-2.2 31.07-29.53 35.76-61.12 38.58-18.99 1.7-39.22-5.78-52.35-18.75-8.71-8.6-14.3-19.62-14.32-31.97-.06-30.97 34.88-58.62 66.47-61.44 31.58-2.82 63.68 40.2 61.32 73.58z" fill="#273150"/><ellipse cx="628.77" cy="182.64" fill="#273150" rx="28.96" ry="16.97" transform="matrix(.5663 -.8242 .8242 .5663 122.1759 597.4571)"/><ellipse cx="602.61" cy="173.78" fill="#273150" rx="28.22" ry="14.48" transform="matrix(.0783 -.9969 .9969 .0783 382.1713 760.9348)"/><ellipse cx="593.98" cy="213.91" fill="#273150" rx="32.81" ry="24.5" transform="matrix(.3429 -.9394 .9394 .3429 189.3571 698.5156)"/><ellipse cx="585.81" cy="257.89" fill="#273150" rx="35.54" ry="35.18" transform="matrix(.9025 -.4306 .4306 .9025 -53.9549 277.417)"/><ellipse cx="661.16" cy="213.54" fill="#273150" rx="32.13" ry="38.03" transform="matrix(.7603 -.6496 .6496 .7603 19.768 480.6496)"/><path d="m702.55 254.73c-1.79 25.36-24.1 29.18-49.87 31.48-15.5 1.38-32.01-4.72-42.72-15.3-7.11-7.02-11.66-16.01-11.68-26.09-.05-25.27 28.46-47.83 54.24-50.14 25.76-2.29 51.95 32.82 50.03 60.05z" fill="#48598b"/><ellipse cx="629.57" cy="188.32" fill="#48598b" rx="24.88" ry="14.59" transform="matrix(.5663 -.8242 .8242 .5663 117.8394 600.5732)"/><ellipse cx="605.35" cy="183.63" fill="#48598b" rx="19.24" ry="9.87" transform="matrix(.0783 -.9969 .9969 .0783 374.8775 772.7459)"/><ellipse cx="603.49" cy="215.12" fill="#48598b" rx="34.73" ry="21.05" transform="matrix(.3429 -.9394 .9394 .3429 194.4698 708.2445)"/><ellipse cx="595.81" cy="255.88" fill="#48598b" rx="30.54" ry="30.23" transform="matrix(.9025 -.4306 .4306 .9025 -52.1152 281.5287)"/><ellipse cx="658.45" cy="217.77" fill="#48598b" rx="27.61" ry="32.68" transform="matrix(.7603 -.6496 .6496 .7603 16.3695 479.904)"/><path d="m582.98 610.15c-.05 12.43 3.24 42.97 19.78 43.77 16.22.79 22.67-11.04 28.09-29.67 7.73-26.56 43.34-151.98 1.98-155.42s-45.02 15-49.65 39.08c-4.63 24.09-.1 79.23-.2 102.24z" fill="#273150"/><path d="m584.96 630.58c.58 2.59 11.47-16.62 11.47-16.62s-.81-40.57 5.54-45.1c22.15-18.2 42.73-8.7 42.73-8.7 9.21-41.52 14.24-89.16-11.87-91.33-41.36-3.44-45.02 15-49.65 39.08-2.68 13.98-2.28 38.42-1.5 60.97.57 16.31.31 48.45 3.28 61.7z" fill="#102441"/><path d="m574.21 649.73c-32.38 60.77-23.92 118.41-25.91 190.66-.79 28.67 16.43 23.94 21.23 2.24 6.27-28.3 26.1-87.47 47.47-168.13 6.73-20.18-21.64-64.47-42.79-24.77z" fill="#ce6d3e"/><path d="m578.46 638.65c9.33-19.32 27.17-23.54 40.56-17.18 8.79 4.17 10.53 8.33 3.27 36.16-4.54 17.38-7.59 26.23-8.12 27.56 0 0-21.3-11.58-50.58-10.69 0-.01 8.54-22.74 14.87-35.85z" fill="#102441"/><path d="m580.19 654.22c-27.93 52.43-21.43 103.51-23.15 165.84-.17 6.13-.6 11.07.09 15.18 1.58 9.36 11.52 13.42 14.64-.66 5.41-24.42 26.9-89.41 45.34-159 5.8-17.4-18.67-55.61-36.92-21.36z" fill="#f6874e"/><path d="m582.19 642.45s12.66-32.44 37.76-25.71c8.38 2.24 10.1 12.24 2.72 38.77-5.11 18.4-7.52 27.88-8 29.3 0 0-18.21-12-43.52-10.55z" fill="#273150"/><path d="m622.54 638.23s-14.9 2.64-20.18-3.16c0 0 2.37 9.76 7.65 11.6 5.27 1.85 10.15-3.43 10.15-3.43l-4.75-.53z" fill="#102441"/><path d="m553.37 849.1c2.28 20.71 4.62 47.24 48.69 42.2 22.35-2.56-5.3-28.52-13.34-38.18 0 0-14.04-15.87-15.23-18.4-3.03-6.46-13.66-8.06-19.41 5.07-2.98 6.78-1.04 6.3-.71 9.31z" fill="#f6874e"/><path d="m544.21 861.62c-.69 3.64 1.14 5.12 6.26 8.38 10.76 6.86 28.11 12.84 45.57 11 21.93-2.3-22.55-10.68-26.51-15.82s-5.55-15.42-8.7-22.35c-3.69-8.11-4.75-14.04-8.31-7.71-3.56 6.32-7.53 22.39-8.31 26.5z" fill="#ce6d3e"/><path d="m548.3 840.78s-.69.56 3.3 8.18c15.03 28.75 22.65 29 41.27 28.88 12.27-.08-6.86-24-6.86-24l-11.74-17.84s9.96 11.9 21.16 24.63c6.89 7.82 15.13 14.44 18.06 19.24 5.09 7.07 10.7 18.43 4.69 19.73-20.18 4.35-46.93-.84-51.89-3.36s-5.54-9.51-11.8-16.81c-2.37-2.77-8.57-5.54-8.97-8.04-.42-6.45-2.41-11.08-.95-18.79 1.55-8.17 3.73-11.82 3.73-11.82z" fill="#992c29"/><path d="m700.43 810.05c-3.63 13.95-.24 16.53 3.6 20.95 28.45 32.8 35.17 20.12 39.72 22.28 15.17 7.21 15.63-10.96 8.78-14.76-6.59-3.66-17.3-18.48-25.62-26.05-3.89-3.54-4.18-5.75-9.49-6.46-5.52-.73-15.45-1.85-16.99 4.04z" fill="#f6874e"/><path d="m700.52 827.39c15.97 41.35 50.18 30.67 56.92 27.53 2.78-1.3-15.16-21.53-15.16-21.53s-20.25-5.42-31.19-10.29c-11.46-5.1-15.32-7.99-10.57 4.29z" fill="#ce6d3e"/><path d="m699.34 810.61c1.15-2.13 1.37-1.16 1.74.39 2.86 12 3.84 16.8 13.44 27.11 3.27 3.51 3.19 11.35 30.54 12.72 11.6.58-2.78-17.43-2.78-17.43l-16.25-21.9 4.83 4.73s19.08 21.26 26.56 26.17c7.33 4.81 15.81 27.79 8.81 28.45-17.87 1.68-34.91-.21-49.14-3.65-6.63-1.98-10.59-15.9-13.14-16.8 0 0-6.97-5.02-7.04-8.75-.06-3.6.82-28.06 2.43-31.04z" fill="#992c29"/><path d="m728.56 632.43s11.08-81.71-4.35-123.24c-9.23-24.86-26.59-29.46-45.39-28.86s-22.64 15.39-19.85 31.22 15.89 102.43 22.51 122.26c7.11 21.3 21.15 19.77 30.2 19.73 10.53-.06 14.62-5.57 16.88-21.11z" fill="#273150"/><path d="m696.12 569.66c7.12-4.75 35.93-7.11 35.93-7.11-.29-18.87-2.29-38.4-7.85-53.36-9.23-24.86-26.59-29.46-45.39-28.86s-22.64 15.39-19.85 31.22c1.21 6.87 4.36 27.08 8.09 49.38 0 0 8.88 52.26 12.44 64.26.68-.35 2.9-12.79 6.33-32.57 2.61-6.92 3.18-18.21 10.3-22.96z" fill="#102441"/><path d="m682.38 650.73c-14.64 48.88-.36 71.9 18.5 160.57 1.74 8.18 18.36 13.98 22.64 1.66.71-2.04.4-5.93.4-10.38 0-32.88 8.78-114.21 3.39-145.7-4.17-24.29-37.72-30.24-44.93-6.15z" fill="#f6874e"/><path d="m676.19 681.91c-.3 8.26.09 20.28 3.38 37.02 4.92 25.06 13.5 56.52 14.57 61.98 1.78 9.1 6.82 31.45 8.21 37.09.87 3.53 11.57 7.22 11.57 7.22s-6.75-19.11-8.31-24c-3.22-10.12-19-81.85-22.61-117.87-.41-4.16-6.51-9.79-6.81-1.44z" fill="#ce6d3e"/><path d="m678.76 641.46c5.57-16.94 13.16-20.63 26.54-20.95 11.27-.27 20.74-.91 21.83 25.63.71 17.31 1.38 29.91 2.21 37.06 0 0-14.6-5.96-53.36.2.01-0-.91-30.71 2.78-41.94z" fill="#273150"/><path d="m678.76 641.46c1.16-3.33 1.41 8.08 1.41 8.08l2.86 32.9s-1.57.09-7.04.96c0-0-1.08-19.84 2.77-41.94z" fill="#102441"/><path d="m723.6 642.03s-13.55-.51-18.9-3.48 9.93 17.85 18.9 3.48z" fill="#102441"/><path d="m679.51 413.84c-16.89 17.72-66.73-.63-68.84-17.46-.9-7.16-3.49-23.79-11.08-54.15-4.75-18.99-5.54-25.21-3.43-27.88 5.54-7.01 26.39-9.5 47.74-12.73 35.21-5.34 37.71 3.09 49.32 19.45 14.14 19.95 19.52 57.91-13.71 92.77z" fill="#f6be4a"/><path d="m622.14 343.37c-16.89 17.72-9.36 69.84-11.47 53.01-.9-7.16-3.49-23.79-11.08-54.15-4.75-18.99-5.54-25.21-3.43-27.88 5.54-7.01 26.39-9.5 47.74-12.73 35.21-5.34 37.68 2.98 49.95 20.09 14.24 19.87-38.48-13.2-71.71 21.66z" fill="#d09435"/><path d="m612.25 379.77c-2.64 9.89-2.15 35.14-1.32 20.04.4-7.2-11.34-59.16-11.34-59.16l54.59-19.17-35.87 32.44c.01 0-3.42 15.96-6.06 25.85z" fill="#d09435"/><path d="m605.13 405.09s-70.06 98.14-75.03 111.05c-4.98 12.95-21.19 29.57-20.49 36.37 4.67-12.93 47.32-8.71 55.01-11.18 0 0-15.61-10.29-2.43-15.03s43.26-5.26 60.94-4.96c52.78.92 113.89 11.06 131.85 42.64 0 0-30.07-147.77-71.76-179.91-40.84-31.5-78.09 21.02-78.09 21.02z" fill="#f6be4a"/><path d="m689 329.33c6.92 3.76 13.12 11.6 13.12 11.6s-1.25-8.84-7.38-17.54c-4.62-6.56-21.56 2.37-21.56 2.37s11.43 1.19 15.82 3.57z" fill="#d09435"/><path d="m680.64 398.45c-10.43 8.63-61.6 6.77-53.88-15.2 3.69-10.52 27.02-23.43 43.78-25.36 27.63-3.18 32.7 21.88 10.1 40.56z" fill="#feed7f"/><path d="m728.56 517.44-98.11-7.91c-24.47 0-56.97-44.31-49.05-56.97 7.91-12.66 40.62-53.27 40.62-53.27 3.43-16.88 9.29-29.54 33.76-29.54 0 0 27.96 1.58 39.56 32.18 0 0 30.07 45.49 34.81 80.31 3.48 25.53-1.59 35.2-1.59 35.2z" fill="#feed7f"/><path d="m611.01 506.04c-9.11.64-17.12 4.69-25.49-21.32.01 0 9.23 13.3 25.49 21.32z" fill="#feed7f"/><path d="m582.45 443.07s2.64 20.04 11.6 33.23c0 0-7.91-22.68-7.38-36.4s-4.22 3.17-4.22 3.17z" fill="#f6be4a"/><path d="m723.14 519.11c.35-5.18 2.22-21.59-1.35-29.83 0 0 7.64 13.22 7.27 26.83-.36 13.61-6.27 8.18-5.92 3z" fill="#f6be4a"/><path d="m608.92 414.85s11.22-17.71 32.93-25.09c0 0-25.92 3.21-35.14 15.86s2.21 9.23 2.21 9.23z" fill="#f6be4a"/><path d="m653.18 319.37-2.3.35c-5.83.89-11.28-3.11-12.17-8.94l-3.4-22.21c-.89-5.83 3.11-11.28 8.94-12.17l2.3-.35c5.83-.89 11.28 3.11 12.17 8.94l3.4 22.21c.9 5.83-3.11 11.28-8.94 12.17z" fill="#f6874e"/><path d="m649.93 293.27-3.84.59c-5.41.83-10.46-2.88-11.29-8.29l-3.63-23.75c-.83-5.41 2.88-10.46 8.29-11.29l3.84-.59c5.41-.83 10.46 2.88 11.29 8.29l3.63 23.75c.83 5.41-2.88 10.47-8.29 11.29z" fill="#ce6d3e"/><path d="m570.71 352.87c-6.73 16.88-17.59 47.04-20.63 52.16s-3.14 12.94 4.96 16.94c8.09 4.01 14.2 1.99 17.85-2.36s24.46-39.58 28.81-53.69c3.42-11.08 1.11-23.24-4.88-26.11s-19.38-3.82-26.11 13.06z" fill="#f6874e"/><path d="m570.71 352.87c-6.73 16.88-17.59 47.04-20.63 52.16-.93 1.57-1.59 3.6-1.7 4.71-.24 2.49 1.57 2.71 4.1-.3 2-2.38 16.7-32.23 21.79-48.7 4.19-13.57-.52-15.5-3.56-7.87z" fill="#ce6d3e"/><path d="m607.24 312.78c-8.78-3.04-20.7 1.71-29.01 21.89-4.36 10.6-10.42 24.79-10.42 24.79s13.72 2.16 31.38 13.19c0 0 5.61-11.08 9.63-21.36 8.44-21.63 5.28-36.14-1.58-38.51z" fill="#ec5e4d"/><path d="m607.24 312.78c-8.78-3.04-20.7 1.71-29.01 21.89-4.36 10.6-10.42 24.79-10.42 24.79l6.2 1.32 13.32-11.27 24.13-6.66c5.36-17.85 1.89-27.95-4.22-30.07z" fill="#c93f37"/><path d="m499.69 467.06s-8.52 8.8-5.74 13.78c2.62 4.67 12 8.48 18.69 3.05s28.19-19.54 56.77-57.97c12.19-16.38-11.49-27.79-20.95-17.44s-48.77 58.58-48.77 58.58z" fill="#f6874e"/><path d="m508.08 457.84 21.1-12.4 25.49-40.52s-3.49.52-6.21 3.57c-9.33 10.46-40.38 49.35-40.38 49.35z" fill="#ce6d3e"/><path d="m479.86 496.75s-9.22 15.89-11.68 19.78c-2.15 3.39-5.35.48-4.36-1.82s7.77-18.68 16.04-17.96z" fill="#ce6d3e"/><path d="m474.06 496.75s-9.22 15.89-11.68 19.78c-2.15 3.39-5.35.48-4.36-1.82s7.76-18.68 16.04-17.96z" fill="#ce6d3e"/><path d="m513.27 479.74c-.86 5.55-4.32 14.13-12.73 23.32-6.49 7.09-7.96 10.67-10.33 15.81-.6 1.29-2.18 2.9-3.76 4.35-5.04 4.62-7.09 3.9-7.61.83-.6-3.6 1.18-6.32 4.34-11.11 1.62-2.46 1.92-5.41 2.47-7.02.71-2.04.99-6.92-4.92-7.94-6.07-1.05-9.38-9.01-7.35-11.94 3.56-5.14 26.81-18.43 29.49-17.66 5.94 1.11 11.26 5.81 10.4 11.36z" fill="#f6874e"/><path d="m482.72 490.52c2.01.57 4.65 4.51 1.94 6.93s-16.85 9.64-20.76 14.37c-4.65 5.63-7.21 10.55-10.1 12.05-3.69 1.91-8.42 1.66-4.6-4.21 5.41-8.31 9.42-17.31 18.7-21.91 9.29-4.6 12.81-7.8 14.82-7.23z" fill="#f6874e"/><path d="m482.23 497.48c4.51-4.65-.49-16.08-3.8-15.14s-18.42 13.3-21.93 14.91-11.46 13.25-13.21 17.39c-1.76 4.14-1.91 6.7 2.93 5.47s10.5-14.98 17.14-18.45 14.36.47 18.87-4.18z" fill="#f6874e"/><path d="m598.27 349.7s-14.75 2.95-20.02 6.16-3.98 4.88-3.98 4.88z" fill="#c93f37"/><path d="m668.82 317.26c-29.08 19.78-95.05 26.64-94.84 26.02 2.11-6.35 16.38-37.89 31.15-40.53 9.91-.03 48.73.34 63.69 14.51z" fill="#229bc6"/><path d="m678.98 301.18c-9.49-2.11-29.02 13.54-30.08 17.76s31.79-2.33 91.53 32.88c20.52 12.09-46.16-46.95-61.45-50.64z" fill="#29ace4"/><circle cx="656.96" cy="316.87" fill="#273150" r="2.74"/><path d="m681.85 174.38c3 1.01 2.65 15.92-4.81 14.94-7.02-.92-14.74-3.07-12.38-7.4 2.35-4.32 14.19-8.55 17.19-7.54z" fill="#c93f37"/><path d="m682.66 179.23s-1.21 9.02-3.78 9.39c-2.58.36-.33-3.87.26-9.76s3.93-3.42 3.52.37z" fill="#f7bc4b"/><path d="m663.41 185.6s13.14 11.23 25.63 15.48c9.44 3.21 16.68 3.35 16.68 3.35l-2.2-2.97 4.03-3.35s-16.85-.15-40.91-14.63z" fill="#c93f37"/><path d="m669.86 189.69s9.82 13.23 20.89 19.54c8.37 4.77 15.41 6.16 15.41 6.16l-1.36-3.27 4.85-2.56s-16.45-3.07-36.06-21.36z" fill="#c93f37"/><ellipse cx="595.25" cy="237.51" fill="#ce6d3e" rx="13.37" ry="15.22" transform="matrix(.8244 -.566 .566 .8244 -29.9074 378.6117)"/><path d="m646.55 188.03c3.34 5.88-7.95 12.94-19.99 19.78-12.03 6.84-24.5 7.62-27.84 1.73-3.34-5.88 3.7-16.2 15.73-23.04 12.04-6.83 28.76-4.35 32.1 1.53z" fill="#273150"/><path d="m593.05 229.13c.44-35.69 29.47-46.3 36.68-47.68 35.96-6.9 52.14 14.41 59.01 52.13 5.02 27.56-11.29 35.3-27.61 41.53-19.64 7.5-68.62-1.4-68.08-45.98z" fill="#ce6d3e"/><path d="m604.91 240.64c1.93-27.03 27.91-36.33 34.31-37.69 0 0 34.93 8.49 41.66 13.78s7.97 23.07 7.97 23.07c3.22 20.63-11.45 27.2-26.08 32.64-17.58 6.53-60.27 1.95-57.86-31.8z" fill="#f6874e"/><path d="m615.87 194.56c18.9-14.14 49.08-8.43 49.08-8.43s-28.6-22.74-54.64.35c-23.36 20.71-16.91 39.06-13.62 50.02 0 0-3.16-25.22 19.18-41.94z" fill="#f6be4a"/><ellipse cx="632.96" cy="219.43" fill="#273252" rx="3.82" ry="7.13" transform="matrix(.9843 -.1765 .1765 .9843 -28.7902 115.1445)"/><ellipse cx="668.88" cy="215.02" fill="#273252" rx="3.21" ry="6.54" transform="matrix(.9787 -.2053 .2053 .9787 -29.8914 141.8664)"/><path d="m631.41 199.24s-5.07.93-6.21 5.55" fill="none" stroke="#273252" stroke-linecap="round" stroke-linejoin="round" stroke-miterlimit="10"/><path d="m669.58 197.97s-3.31-2.84-6.74-2.36" fill="none" stroke="#273252" stroke-linecap="round" stroke-linejoin="round" stroke-miterlimit="10"/></svg>